SplineFontDB: 3.0
FontName: NixieOne
FullName: Nixie One
FamilyName: Nixie One
Weight: Book
Copyright: Copyright (c) 2011 by Jovanny Lemonad. All rights reserved.
Version: 1.000 2011 initial release
ItalicAngle: 0
UnderlinePosition: -50
UnderlineWidth: 50
Ascent: 800
Descent: 200
sfntRevision: 0x00010000
LayerCount: 2
Layer: 0 1 "Back"  1
Layer: 1 1 "Fore"  0
XUID: [1021 288 713564382 5146868]
FSType: 0
OS2Version: 3
OS2_WeightWidthSlopeOnly: 0
OS2_UseTypoMetrics: 1
CreationTime: 1307587755
ModificationTime: 1308167930
PfmFamily: 17
TTFWeight: 400
TTFWidth: 5
LineGap: 0
VLineGap: 0
Panose: 2 0 5 3 8 0 0 2 0 4
OS2TypoAscent: 926
OS2TypoAOffset: 0
OS2TypoDescent: -210
OS2TypoDOffset: 0
OS2TypoLinegap: 0
OS2WinAscent: 926
OS2WinAOffset: 0
OS2WinDescent: 210
OS2WinDOffset: 0
HheadAscent: 926
HheadAOffset: 0
HheadDescent: -210
HheadDOffset: 0
OS2SubXSize: 700
OS2SubYSize: 650
OS2SubXOff: 0
OS2SubYOff: 140
OS2SupXSize: 700
OS2SupYSize: 650
OS2SupXOff: 0
OS2SupYOff: 477
OS2StrikeYSize: 50
OS2StrikeYPos: 250
OS2Vendor: 'PYRS'
OS2CodePages: 00000001.00000000
OS2UnicodeRanges: 800000af.0000000a.00000000.00000000
Lookup: 4 0 0 "'frac' Diagonal Fractions in Latin lookup 0"  {"'frac' Diagonal Fractions in Latin lookup 0 subtable"  } ['frac' ('latn' <'dflt' > ) ]
Lookup: 258 0 0 "'kern' Horizontal Kerning in Latin lookup 0"  {"'kern' Horizontal Kerning in Latin lookup 0 per glyph data 0"  "'kern' Horizontal Kerning in Latin lookup 0 kerning class 1"  } ['kern' ('latn' <'dflt' > ) ]
MarkAttachClasses: 1
DEI: 91125
KernClass2: 69+ 58 "'kern' Horizontal Kerning in Latin lookup 0 kerning class 1" 
 8 quotedbl
 9 parenleft
 5 slash
 1 B
 1 F
 1 G
 1 J
 1 K
 1 P
 1 R
 1 S
 1 T
 1 V
 1 W
 1 X
 1 Z
 11 bracketleft
 1 f
 1 s
 1 z
 9 braceleft
 12 questiondown
 5 Thorn
 9 ampersand
 8 asterisk
 28 hyphen uni00AD endash emdash
 6 period
 3 one
 4 four
 3 six
 50 A Agrave Aacute Acircumflex Atilde Adieresis Aring
 10 C Ccedilla
 5 D Eth
 43 E AE Egrave Eacute Ecircumflex Edieresis OE

StartChar: exclam
Encoding: 33 33 4
Width: 268
GlyphClass: 2
Flags: W
LayerCount: 2
Fore
SplineSet
80 40 m 128,-1,1
 80 63 80 63 93.5 76.5 c 128,-1,2
 107 90 107 90 130 90 c 128,-1,3
 153 90 153 90 166.5 76.5 c 128,-1,4
 180 63 180 63 180 40 c 128,-1,5
 180 17 180 17 166.5 3.5 c 128,-1,6
 153 -10 153 -10 130 -10 c 128,-1,7
 107 -10 107 -10 93.5 3.5 c 128,-1,0
 80 17 80 17 80 40 c 128,-1,1
115 185 m 2,8,-1
 115 685 l 2,9,10
 115 700 115 700 130 700 c 128,-1,11
 145 700 145 700 145 685 c 2,12,-1
 145 185 l 2,13,14
 145 170 145 170 130 170 c 128,-1,15
 115 170 115 170 115 185 c 2,8,-1
EndSplineSet
EndChar

StartChar: quotedbl
Encoding: 34 34 5
Width: 314
GlyphClass: 2
Flags: W
LayerCount: 2
Fore
SplineSet
77 475 m 2,0,-1
 77 685 l 2,1,2
 77 700 77 700 92 700 c 128,-1,3
 107 700 107 700 107 685 c 2,4,-1
 107 475 l 2,5,6
 107 460 107 460 92 460 c 128,-1,7
 77 460 77 460 77 475 c 2,0,-1
207 475 m 2,8,-1
 207 685 l 2,9,10
 207 700 207 700 222 700 c 128,-1,11
 237 700 237 700 237 685 c 2,12,-1
 237 475 l 2,13,14
 237 460 237 460 222 460 c 128,-1,15
 207 460 207 460 207 475 c 2,8,-1
EndSplineSet
EndChar

StartChar: numbersign
Encoding: 35 35 6
Width: 760
GlyphClass: 2
Flags: W
LayerCount: 2
Fore
SplineSet
36 206 m 128,-1,1
 36 221 36 221 51 221 c 2,2,-1
 197 221 l 1,3,-1
 262 479 l 1,4,-1
 119 479 l 2,5,6
 104 479 104 479 104 494 c 128,-1,7
 104 509 104 509 119 509 c 2,8,-1
 269 509 l 1,9,-1
 314 688 l 2,10,11
 318 700 318 700 328 700 c 0,12,13
 330 700 330 700 332 699 c 0,14,15
 347 696 347 696 343 681 c 2,16,-1
 300 509 l 1,17,-1
 539 509 l 1,18,-1
 584 688 l 2,19,20
 588 700 588 700 598 700 c 0,21,22
 600 700 600 700 602 699 c 0,23,24
 617 696 617 696 613 681 c 2,25,-1
 570 509 l 1,26,-1
 709 509 l 2,27,28
 724 509 724 509 724 494 c 128,-1,29
 724 479 724 479 709 479 c 2,30,-1
 562 479 l 1,31,-1
 498 221 l 1,32,-1
 641 221 l 2,33,34
 656 221 656 221 656 206 c 128,-1,35
 656 191 656 191 641 191 c 2,36,-1
 490 191 l 1,37,-1
 446 12 l 1,38,39
 442 0 442 0 432 0 c 0,40,41
 430 0 430 0 428 1 c 0,42,43
 413 4 413 4 417 19 c 2,44,-1
 460 191 l 1,45,-1
 220 191 l 1,46,-1
 176 12 l 1,47,48
 172 0 172 0 162 0 c 0,49,50
 160 0 160 0 158 1 c 0,51,52
 143 4 143 4 147 19 c 2,53,-1
 190 191 l 1,54,-1
 51 191 l 2,55,0
 36 191 36 191 36 206 c 128,-1,1
228 221 m 1,56,-1
 467 221 l 1,57,-1
 532 479 l 1,58,-1
 292 479 l 1,59,-1
 228 221 l 1,56,-1
EndSplineSet
EndChar

StartChar: dollar
Encoding: 36 36 7
Width: 624
GlyphClass: 2
Flags: W
LayerCount: 2
Fore
SplineSet
45 110 m 0,0,1
 40 115 40 115 40 120.5 c 128,-1,2
 40 126 40 126 45 131 c 0,3,4
 56 142 56 142 66 131 c 1,5,6
 140 33 140 33 286 21 c 1,7,-1
 286 352 l 1,8,9
 235 363 235 363 200.5 375 c 128,-1,10
 166 387 166 387 131 407.5 c 128,-1,11
 96 428 96 428 78 460 c 128,-1,12
 60 492 60 492 60 535 c 0,13,14
 60 609 60 609 114.5 658.5 c 128,-1,15
 169 708 169 708 286 710 c 1,16,-1
 286 765 l 2,17,18
 286 780 286 780 301 780 c 128,-1,19
 316 780 316 780 316 765 c 2,20,-1
 316 709 l 1,21,22
 416 701 416 701 509 625 c 0,23,24
 525 611 525 611 525 635 c 2,25,-1
 525 685 l 2,26,27
 525 700 525 700 540 700 c 128,-1,28
 555 700 555 700 555 685 c 2,29,-1
 555 495 l 2,30,31
 555 480 555 480 540 480 c 128,-1,32
 525 480 525 480 525 495 c 2,33,-1
 525 565 l 1,34,35
 503 591 503 591 469 617 c 0,36,37
 400 669 400 669 316 678 c 1,38,-1
 316 378 l 1,39,-1
 372 365 l 2,40,41
 389 361 389 361 423 350.5 c 128,-1,42
 457 340 457 340 474 331.5 c 128,-1,43
 491 323 491 323 515 307.5 c 128,-1,44
 539 292 539 292 550.5 275 c 128,-1,45
 562 258 562 258 571 233.5 c 128,-1,46
 580 209 580 209 580 180 c 0,47,48
 580 94 580 94 514.5 42 c 128,-1,49
 449 -10 449 -10 325 -10 c 2,50,-1
 316 -10 l 1,51,-1
 316 -65 l 2,52,53
 316 -80 316 -80 301 -80 c 128,-1,54
 286 -80 286 -80 286 -65 c 2,55,-1
 286 -8 l 1,56,57
 127 3 127 3 45 110 c 0,0,1
90 535 m 0,58,59
 90 471 90 471 141 439 c 128,-1,60
 192 407 192 407 286 385 c 1,61,-1
 286 680 l 1,62,63
 186 678 186 678 138 637 c 128,-1,64
 90 596 90 596 90 535 c 0,58,59
316 20 m 1,65,-1
 325 20 l 2,66,67
 436 20 436 20 493 64.5 c 128,-1,68
 550 109 550 109 550 180 c 0,69,70
 550 212 550 212 535.5 237.5 c 128,-1,71
 521 263 521 263 502.5 278 c 128,-1,72
 484 293 484 293 447.5 307.5 c 128,-1,73
 411 322 411 322 387 328 c 2,74,-1
 316 345 l 1,75,-1
 316 20 l 1,65,-1
EndSplineSet
EndChar

StartChar: percent
Encoding: 37 37 8
Width: 784
GlyphClass: 2
Flags: W
LayerCount: 2
Fore
SplineSet
37 540 m 128,-1,1
 37 612 37 612 84 661 c 128,-1,2
 131 710 131 710 202 710 c 128,-1,3
 273 710 273 710 320 661 c 128,-1,4
 367 612 367 612 367 540 c 128,-1,5
 367 468 367 468 320 419 c 128,-1,6
 273 370 273 370 202 370 c 128,-1,7
 131 370 131 370 84 419 c 128,-1,0
 37 468 37 468 37 540 c 128,-1,1
67 540 m 128,-1,9
 67 480 67 480 106 440 c 128,-1,10
 145 400 145 400 202 400 c 128,-1,11
 259 400 259 400 298 440 c 128,-1,12
 337 480 337 480 337 540 c 128,-1,13
 337 600 337 600 298 640 c 128,-1,14
 259 680 259 680 202 680 c 128,-1,15
 145 680 145 680 106 640 c 128,-1,8
 67 600 67 600 67 540 c 128,-1,9
162 23 m 2,16,-1
 595 692 l 2,17,18
 600 699 600 699 607 699 c 0,19,20
 611 699 611 699 615 697 c 0,21,22
 629 687 629 687 619 677 c 1,23,-1
 187 7 l 2,24,25
 179 -4 179 -4 167 2 c 0,26,27
 158 7 158 7 158 14 c 0,28,29
 158 18 158 18 162 23 c 2,16,-1
417 160 m 128,-1,31
 417 232 417 232 464 281 c 128,-1,32
 511 330 511 330 582 330 c 128,-1,33
 653 330 653 330 700 281 c 128,-1,34
 747 232 747 232 747 160 c 128,-1,35
 747 88 747 88 700 39 c 128,-1,36
 653 -10 653 -10 582 -10 c 128,-1,37
 511 -10 511 -10 464 39 c 128,-1,30
 417 88 417 88 417 160 c 128,-1,31
447 160 m 128,-1,39
 447 100 447 100 486 60 c 128,-1,40
 525 20 525 20 582 20 c 128,-1,41
 639 20 639 20 678 60 c 128,-1,42
 717 100 717 100 717 160 c 128,-1,43
 717 220 717 220 678 260 c 128,-1,44
 639 300 639 300 582 300 c 128,-1,45
 525 300 525 300 486 260 c 128,-1,38
 447 220 447 220 447 160 c 128,-1,39
EndSplineSet
EndChar

StartChar: ampersand
Encoding: 38 38 9
Width: 699
GlyphClass: 2
Flags: W
LayerCount: 2
Fore
SplineSet
45 170 m 0,0,1
 45 246 45 246 96.5 296.5 c 128,-1,2
 148 347 148 347 241 369 c 0,3,4
 254 373 254 373 242 390 c 1,5,-1
 220 417 l 2,6,7
 160 490 160 490 160 560 c 0,8,9
 160 629 160 629 208.5 669.5 c 128,-1,10
 257 710 257 710 340 710 c 0,11,12
 428 710 428 710 481.5 660.5 c 128,-1,13
 535 611 535 611 535 525 c 0,14,15
 535 510 535 510 520 510 c 128,-1,16
 505 510 505 510 505 525 c 0,17,18
 505 596 505 596 459 638 c 128,-1,19
 413 680 413 680 340 680 c 0,20,21
 271 680 271 680 230.5 645.5 c 128,-1,22
 190 611 190 611 190 560 c 0,23,24
 190 545 190 545 193.5 530.5 c 128,-1,25
 197 516 197 516 205 500 c 128,-1,26
 213 484 213 484 218 475 c 1,27,-1
 236 450 l 1,28,-1
 249 430 l 1,29,-1
 478 170 l 2,30,31
 487 160 487 160 494 170 c 2,32,-1
 612 348 l 1,33,34
 622 360 622 360 633 351 c 0,35,36
 645 342 645 342 636 330 c 2,37,-1
 515 149 l 1,38,39
 507 139 507 139 517 127 c 2,40,-1
 589 45 l 2,41,42
 602 30 602 30 614 30 c 2,43,-1
 680 30 l 2,44,45
 695 30 695 30 695 15 c 128,-1,46
 695 0 695 0 680 0 c 2,47,-1
 600 0 l 2,48,49
 587 0 587 0 574 15 c 2,50,-1
 499 100 l 1,51,52
 488 110 488 110 481 100 c 0,53,54
 387 -20 387 -20 240 -20 c 0,55,56
 156 -20 156 -20 100.5 32.5 c 128,-1,57
 45 85 45 85 45 170 c 0,0,1
75 170 m 0,58,59
 75 99 75 99 121.5 54.5 c 128,-1,60
 168 10 168 10 240 10 c 0,61,62
 370 10 370 10 459 121 c 0,63,64
 465 128 465 128 465 134 c 0,65,66
 465 139 465 139 460 144 c 2,67,-1
 286 340 l 2,68,69
 281 347 281 347 271 347 c 0,70,71
 267 347 267 347 261 345 c 0,72,73
 75 295 75 295 75 170 c 0,58,59
EndSplineSet
EndChar

StartChar: quotesingle
Encoding: 39 39 10
Width: 184
GlyphClass: 2
Flags: W
LayerCount: 2
Fore
SplineSet
77 475 m 2,0,-1
 77 685 l 2,1,2
 77 700 77 700 92 700 c 128,-1,3
 107 700 107 700 107 685 c 2,4,-1
 107 475 l 2,5,6
 107 460 107 460 92 460 c 128,-1,7
 77 460 77 460 77 475 c 2,0,-1
EndSplineSet
EndChar

StartChar: parenleft
Encoding: 40 40 11
Width: 281
GlyphClass: 2
Flags: W
LayerCount: 2
Fore
SplineSet
76 260 m 2,0,-1
 76 360 l 2,1,2
 76 487 76 487 113 596 c 128,-1,3
 150 705 150 705 206 772 c 0,4,5
 217 784 217 784 228 776 c 1,6,7
 240 765 240 765 231 756 c 1,8,9
 177 691 177 691 141.5 589 c 128,-1,10
 106 487 106 487 106 360 c 2,11,-1
 106 260 l 2,12,13
 106 133 106 133 141.5 30 c 128,-1,14
 177 -73 177 -73 231 -136 c 0,15,16
 240 -145 240 -145 228 -156 c 1,17,18
 217 -164 217 -164 206 -152 c 0,19,20
 150 -85 150 -85 113 24 c 128,-1,21
 76 133 76 133 76 260 c 2,0,-1
EndSplineSet
EndChar

StartChar: parenright
Encoding: 41 41 12
Width: 281
GlyphClass: 2
Flags: W
LayerCount: 2
Fore
SplineSet
50 -136 m 0,0,1
 104 -73 104 -73 139.5 30 c 128,-1,2
 175 133 175 133 175 260 c 2,3,-1
 175 360 l 2,4,5
 175 487 175 487 139.5 589 c 128,-1,6
 104 691 104 691 50 756 c 0,7,8
 46 760 46 760 46 764 c 0,9,10
 46 770 46 770 53 776 c 0,11,12
 57 779 57 779 62 779 c 1,13,-1
 75 772 l 1,14,15
 131 705 131 705 168 596 c 128,-1,16
 205 487 205 487 205 360 c 2,17,-1
 205 260 l 2,18,19
 205 133 205 133 168 24 c 128,-1,20
 131 -85 131 -85 75 -152 c 0,21,22
 68 -159 68 -159 62 -159 c 1,23,-1
 53 -156 l 1,24,25
 46 -150 46 -150 46 -144 c 0,26,27
 46 -140 46 -140 50 -136 c 0,0,1
EndSplineSet
EndChar

StartChar: asterisk
Encoding: 42 42 13
Width: 448
GlyphClass: 2
Flags: W
LayerCount: 2
Fore
SplineSet
70 449 m 0,0,1
 67 454 67 454 67 458 c 0,2,3
 67 465 67 465 76 470 c 2,4,-1
 183 531 l 2,5,6
 188 533 188 533 188 537.5 c 128,-1,7
 188 542 188 542 183 545 c 2,8,-1
 76 606 l 2,9,10
 67 611 67 611 67 618 c 0,11,12
 67 622 67 622 70 627 c 0,13,14
 77 640 77 640 91 632 c 2,15,-1
 193 572 l 2,16,17
 209 563 209 563 209 580 c 2,18,-1
 209 685 l 2,19,20
 209 700 209 700 224 700 c 128,-1,21
 239 700 239 700 239 685 c 2,22,-1
 239 580 l 2,23,24
 239 563 239 563 255 572 c 2,25,-1
 357 632 l 2,26,27
 371 640 371 640 378 627 c 0,28,29
 381 622 381 622 381 618 c 0,30,31
 381 611 381 611 372 606 c 2,32,-1
 265 545 l 2,33,34
 260 542 260 542 260 537.5 c 128,-1,35
 260 533 260 533 265 531 c 2,36,-1
 372 470 l 2,37,38
 381 465 381 465 381 458 c 0,39,40
 381 454 381 454 378 449 c 0,41,42
 371 436 371 436 357 444 c 2,43,-1
 255 503 l 2,44,45
 239 512 239 512 239 495 c 2,46,-1
 239 395 l 2,47,48
 239 380 239 380 224 380 c 128,-1,49
 209 380 209 380 209 395 c 2,50,-1
 209 495 l 2,51,52
 209 512 209 512 193 503 c 2,53,-1
 91 444 l 2,54,55
 77 436 77 436 70 449 c 0,0,1
EndSplineSet
EndChar

StartChar: plus
Encoding: 43 43 14
Width: 501
GlyphClass: 2
Flags: W
LayerCount: 2
Fore
SplineSet
40 320 m 128,-1,1
 40 335 40 335 55 335 c 2,2,-1
 215 335 l 2,3,4
 230 335 230 335 230 350 c 2,5,-1
 230 515 l 2,6,7
 230 530 230 530 245 530 c 128,-1,8
 260 530 260 530 260 515 c 2,9,-1
 260 350 l 2,10,11
 260 335 260 335 275 335 c 2,12,-1
 445 335 l 2,13,14
 460 335 460 335 460 320 c 128,-1,15
 460 305 460 305 445 305 c 2,16,-1
 275 305 l 2,17,18
 260 305 260 305 260 290 c 2,19,-1
 260 125 l 2,20,21
 260 110 260 110 245 110 c 128,-1,22
 230 110 230 110 230 125 c 2,23,-1
 230 290 l 2,24,25
 230 305 230 305 215 305 c 2,26,-1
 55 305 l 2,27,0
 40 305 40 305 40 320 c 128,-1,1
EndSplineSet
EndChar

StartChar: comma
Encoding: 44 44 15
Width: 242
GlyphClass: 2
Flags: W
LayerCount: 2
Fore
SplineSet
71 40 m 128,-1,1
 71 63 71 63 84.5 76.5 c 128,-1,2
 98 90 98 90 121 90 c 0,3,4
 171 90 171 90 171 30 c 2,5,-1
 171 15 l 2,6,7
 171 -37 171 -37 151 -73.5 c 128,-1,8
 131 -110 131 -110 96 -125 c 0,9,10
 90 -128 90 -128 86 -128 c 0,11,12
 79 -128 79 -128 74 -121 c 1,13,14
 67 -108 67 -108 80 -102 c 0,15,16
 141 -75 141 -75 141 -10 c 2,17,-1
 141 -2 l 1,18,19
 128 -10 128 -10 116 -10 c 0,20,21
 97 -10 97 -10 84 3.5 c 128,-1,0
 71 17 71 17 71 40 c 128,-1,1
EndSplineSet
EndChar

StartChar: hyphen
Encoding: 45 45 16
Width: 572
GlyphClass: 2
Flags: W
LayerCount: 2
Fore
SplineSet
76 320 m 128,-1,1
 76 335 76 335 91 335 c 2,2,-1
 481 335 l 2,3,4
 496 335 496 335 496 320 c 128,-1,5
 496 305 496 305 481 305 c 2,6,-1
 91 305 l 2,7,0
 76 305 76 305 76 320 c 128,-1,1
EndSplineSet
EndChar

StartChar: period
Encoding: 46 46 17
Width: 242
GlyphClass: 2
Flags: W
LayerCount: 2
Fore
SplineSet
71 40 m 128,-1,1
 71 63 71 63 84.5 76.5 c 128,-1,2
 98 90 98 90 121 90 c 128,-1,3
 144 90 144 90 157.5 76.5 c 128,-1,4
 171 63 171 63 171 40 c 128,-1,5
 171 17 171 17 157.5 3.5 c 128,-1,6
 144 -10 144 -10 121 -10 c 128,-1,7
 98 -10 98 -10 84.5 3.5 c 128,-1,0
 71 17 71 17 71 40 c 128,-1,1
EndSplineSet
EndChar

StartChar: slash
Encoding: 47 47 18
Width: 518
GlyphClass: 2
Flags: W
LayerCount: 2
Fore
SplineSet
30 23 m 2,0,-1
 463 692 l 2,1,2
 468 699 468 699 475 699 c 0,3,4
 479 699 479 699 483 697 c 0,5,6
 491 691 491 691 491 685 c 0,7,8
 491 681 491 681 487 677 c 1,9,-1
 55 7 l 2,10,11
 50 0 50 0 43 0 c 0,12,13
 39 0 39 0 35 2 c 0,14,15
 26 7 26 7 26 14 c 0,16,17
 26 18 26 18 30 23 c 2,0,-1
EndSplineSet
EndChar

StartChar: zero
Encoding: 48 48 19
Width: 654
GlyphClass: 2
Flags: W
LayerCount: 2
Fore
SplineSet
62 350 m 128,-1,1
 62 520 62 520 137.5 615 c 128,-1,2
 213 710 213 710 327 710 c 128,-1,3
 441 710 441 710 516.5 615 c 128,-1,4
 592 520 592 520 592 350 c 128,-1,5
 592 180 592 180 516.5 85 c 128,-1,6
 441 -10 441 -10 327 -10 c 128,-1,7
 213 -10 213 -10 137.5 85 c 128,-1,0
 62 180 62 180 62 350 c 128,-1,1
92 350 m 128,-1,9
 92 193 92 193 159.5 106.5 c 128,-1,10
 227 20 227 20 327 20 c 128,-1,11
 427 20 427 20 494.5 106.5 c 128,-1,12
 562 193 562 193 562 350 c 128,-1,13
 562 507 562 507 494.5 593.5 c 128,-1,14
 427 680 427 680 327 680 c 128,-1,15
 227 680 227 680 159.5 593.5 c 128,-1,8
 92 507 92 507 92 350 c 128,-1,9
EndSplineSet
EndChar

StartChar: one
Encoding: 49 49 20
Width: 346
GlyphClass: 2
Flags: W
LayerCount: 2
Fore
SplineSet
31 556 m 0,0,1
 26 562 26 562 26 567 c 0,2,3
 26 573 26 573 33 578 c 2,4,-1
 161 685 l 1,5,6
 182 700 182 700 188 700 c 0,7,8
 208 700 208 700 208 685 c 2,9,-1
 208 45 l 2,10,11
 208 30 208 30 223 30 c 2,12,-1
 293 30 l 2,13,14
 308 30 308 30 308 15 c 128,-1,15
 308 0 308 0 293 0 c 2,16,-1
 93 0 l 2,17,18
 78 0 78 0 78 15 c 128,-1,19
 78 30 78 30 93 30 c 2,20,-1
 163 30 l 2,21,22
 178 30 178 30 178 45 c 2,23,-1
 178 650 l 2,24,25
 178 653 178 653 176 654 c 128,-1,26
 174 655 174 655 171 654 c 128,-1,27
 168 653 168 653 164 650 c 2,28,-1
 53 555 l 1,29,30
 42 544 42 544 31 556 c 0,0,1
EndSplineSet
EndChar

StartChar: two
Encoding: 50 50 21
Width: 595
GlyphClass: 2
Flags: W
LayerCount: 2
Fore
SplineSet
60 15 m 2,0,-1
 60 70 l 2,1,2
 60 129 60 129 105.5 178.5 c 128,-1,3
 151 228 151 228 216 263 c 2,4,-1
 344 334 l 2,5,6
 409 369 409 369 454.5 416.5 c 128,-1,7
 500 464 500 464 500 520 c 0,8,9
 500 584 500 584 446 632 c 128,-1,10
 392 680 392 680 300 680 c 0,11,12
 239 680 239 680 180 651 c 128,-1,13
 121 622 121 622 81 569 c 1,14,15
 70 558 70 558 60 569 c 0,16,17
 55 574 55 574 55 579.5 c 128,-1,18
 55 585 55 585 60 590 c 0,19,20
 155 710 155 710 300 710 c 0,21,22
 406 710 406 710 468 653 c 128,-1,23
 530 596 530 596 530 520 c 0,24,25
 530 457 530 457 484.5 404 c 128,-1,26
 439 351 439 351 374 314 c 1,27,-1
 246 244 l 2,28,29
 181 209 181 209 135.5 165 c 128,-1,30
 90 121 90 121 90 70 c 2,31,-1
 90 45 l 2,32,33
 90 30 90 30 105 30 c 2,34,-1
 485 30 l 2,35,36
 500 30 500 30 500 45 c 2,37,-1
 500 155 l 2,38,39
 500 170 500 170 515 170 c 128,-1,40
 530 170 530 170 530 155 c 2,41,-1
 530 15 l 2,42,43
 530 0 530 0 515 0 c 2,44,-1
 75 0 l 2,45,46
 60 0 60 0 60 15 c 2,0,-1
EndSplineSet
EndChar

StartChar: three
Encoding: 51 51 22
Width: 601
GlyphClass: 2
Flags: W
LayerCount: 2
Fore
SplineSet
52 120 m 1,0,1
 47 126 47 126 47 132 c 256,2,3
 47 138 47 138 54 143 c 1,4,5
 65 153 65 153 73 141 c 1,6,7
 107 81 107 81 170 50.5 c 128,-1,8
 233 20 233 20 300 20 c 0,9,10
 398 20 398 20 454 65.5 c 128,-1,11
 510 111 510 111 510 190 c 0,12,13
 510 264 510 264 463 307 c 128,-1,14
 416 350 416 350 340 350 c 2,15,-1
 235 350 l 2,16,17
 220 350 220 350 220 365 c 128,-1,18
 220 380 220 380 235 380 c 2,19,-1
 320 380 l 2,20,21
 400 380 400 380 445 421 c 128,-1,22
 490 462 490 462 490 525 c 0,23,24
 490 591 490 591 438 635.5 c 128,-1,25
 386 680 386 680 292 680 c 0,26,27
 168 680 168 680 93 579 c 1,28,29
 82 568 82 568 72 579 c 128,-1,30
 62 590 62 590 72 600 c 1,31,32
 158 710 158 710 292 710 c 0,33,34
 400 710 400 710 460 657 c 128,-1,35
 520 604 520 604 520 525 c 0,36,37
 520 404 520 404 395 367 c 1,38,39
 465 355 465 355 502.5 307 c 128,-1,40
 540 259 540 259 540 190 c 0,41,42
 540 99 540 99 475.5 44.5 c 128,-1,43
 411 -10 411 -10 300 -10 c 0,44,45
 222 -10 222 -10 154.5 24 c 128,-1,46
 87 58 87 58 52 120 c 1,0,1
EndSplineSet
EndChar

StartChar: four
Encoding: 52 52 23
Width: 578
GlyphClass: 2
Flags: W
LayerCount: 2
Fore
SplineSet
16 177 m 1,0,1
 14 179 14 179 14 182 c 0,2,3
 14 187 14 187 17 193 c 0,4,5
 106 326 106 326 127 365 c 0,6,7
 194 492 194 492 202 660 c 0,8,9
 203 687 203 687 203 715 c 0,10,11
 203 730 203 730 218 730 c 128,-1,12
 233 730 233 730 233 715 c 0,13,14
 233 626 233 626 221.5 554.5 c 128,-1,15
 210 483 210 483 184.5 422 c 128,-1,16
 159 361 159 361 134 318 c 128,-1,17
 109 275 109 275 66 215 c 1,18,19
 59 200 59 200 77 200 c 2,20,-1
 408 200 l 2,21,22
 423 200 423 200 423 215 c 2,23,-1
 423 501 l 2,24,25
 423 516 423 516 438 516 c 128,-1,26
 453 516 453 516 453 501 c 2,27,-1
 453 215 l 2,28,29
 453 200 453 200 468 200 c 2,30,-1
 548 200 l 2,31,32
 563 200 563 200 563 185 c 128,-1,33
 563 170 563 170 548 170 c 2,34,-1
 468 170 l 2,35,36
 453 170 453 170 453 155 c 2,37,-1
 453 5 l 2,38,39
 453 -10 453 -10 438 -10 c 128,-1,40
 423 -10 423 -10 423 5 c 2,41,-1
 423 155 l 2,42,43
 423 170 423 170 408 170 c 2,44,-1
 28 170 l 2,45,46
 19 170 19 170 16 177 c 1,0,1
EndSplineSet
EndChar

StartChar: five
Encoding: 53 53 24
Width: 572
GlyphClass: 2
Flags: W
LayerCount: 2
Fore
SplineSet
70 375 m 2,0,-1
 70 685 l 2,1,2
 70 700 70 700 85 700 c 2,3,-1
 475 700 l 2,4,5
 490 700 490 700 490 685 c 128,-1,6
 490 670 490 670 475 670 c 2,7,-1
 115 670 l 2,8,9
 100 670 100 670 100 655 c 2,10,-1
 100 420 l 2,11,12
 100 401 100 401 115 408 c 0,13,14
 195 450 195 450 283 450 c 0,15,16
 400 450 400 450 462.5 390.5 c 128,-1,17
 525 331 525 331 525 230 c 0,18,19
 525 104 525 104 404 37 c 128,-1,20
 283 -30 283 -30 90 -30 c 0,21,22
 75 -30 75 -30 75 -15 c 128,-1,23
 75 0 75 0 90 0 c 0,24,25
 200 0 200 0 289 23.5 c 128,-1,26
 378 47 378 47 436.5 100 c 128,-1,27
 495 153 495 153 495 230 c 0,28,29
 495 318 495 318 440.5 369 c 128,-1,30
 386 420 386 420 283 420 c 0,31,32
 178 420 178 420 100 366 c 1,33,34
 86 360 86 360 84 360 c 0,35,36
 70 360 70 360 70 375 c 2,0,-1
EndSplineSet
EndChar

StartChar: six
Encoding: 54 54 25
Width: 597
GlyphClass: 2
Flags: W
LayerCount: 2
Fore
SplineSet
57 300 m 0,0,1
 57 478 57 478 168 604 c 128,-1,2
 279 730 279 730 457 730 c 0,3,4
 472 730 472 730 472 715 c 128,-1,5
 472 700 472 700 457 700 c 0,6,7
 296 700 296 700 191.5 582.5 c 128,-1,8
 87 465 87 465 87 300 c 0,9,10
 87 167 87 167 151 93.5 c 128,-1,11
 215 20 215 20 322 20 c 0,12,13
 418 20 418 20 472.5 76.5 c 128,-1,14
 527 133 527 133 527 225 c 0,15,16
 527 320 527 320 477 375 c 128,-1,17
 427 430 427 430 337 430 c 2,18,-1
 212 430 l 2,19,20
 197 430 197 430 197 445 c 128,-1,21
 197 460 197 460 212 460 c 2,22,-1
 337 460 l 2,23,24
 440 460 440 460 498.5 396 c 128,-1,25
 557 332 557 332 557 225 c 0,26,27
 557 122 557 122 493 56 c 128,-1,28
 429 -10 429 -10 322 -10 c 0,29,30
 203 -10 203 -10 130 71.5 c 128,-1,31
 57 153 57 153 57 300 c 0,0,1
EndSplineSet
EndChar

StartChar: seven
Encoding: 55 55 26
Width: 466
GlyphClass: 2
Flags: W
LayerCount: 2
Fore
SplineSet
0 545 m 2,0,-1
 0 685 l 2,1,2
 0 700 0 700 15 700 c 2,3,-1
 455 700 l 2,4,5
 464 700 464 700 467 694 c 0,6,7
 469 691 469 691 469 688 c 0,8,9
 469 683 469 683 466 677 c 2,10,-1
 392 553 l 2,11,12
 365 506 365 506 325.5 428 c 128,-1,13
 286 350 286 350 264.5 291 c 128,-1,14
 243 232 243 232 226.5 157.5 c 128,-1,15
 210 83 210 83 210 15 c 0,16,17
 210 0 210 0 195 0 c 128,-1,18
 180 0 180 0 180 15 c 0,19,20
 180 275 180 275 421 655 c 1,21,22
 428 670 428 670 410 670 c 2,23,-1
 45 670 l 2,24,25
 30 670 30 670 30 655 c 2,26,-1
 30 545 l 2,27,28
 30 530 30 530 15 530 c 128,-1,29
 0 530 0 530 0 545 c 2,0,-1
EndSplineSet
EndChar

StartChar: eight
Encoding: 56 56 27
Width: 644
GlyphClass: 2
Flags: W
LayerCount: 2
Fore
SplineSet
57 170 m 0,0,1
 57 194 57 194 63.5 215 c 128,-1,2
 70 236 70 236 78 250.5 c 128,-1,3
 86 265 86 265 105 280 c 128,-1,4
 124 295 124 295 135.5 303 c 128,-1,5
 147 311 147 311 174.5 323.5 c 128,-1,6
 202 336 202 336 213.5 340 c 128,-1,7
 225 344 225 344 257 356 c 0,8,9
 269 361 269 361 257 366 c 0,10,11
 225 379 225 379 206 388 c 128,-1,12
 187 397 187 397 161.5 413 c 128,-1,13
 136 429 136 429 122 445.5 c 128,-1,14
 108 462 108 462 97.5 486.5 c 128,-1,15
 87 511 87 511 87 540 c 0,16,17
 87 615 87 615 148.5 662.5 c 128,-1,18
 210 710 210 710 322 710 c 128,-1,19
 434 710 434 710 495.5 662.5 c 128,-1,20
 557 615 557 615 557 540 c 0,21,22
 557 511 557 511 546.5 486.5 c 128,-1,23
 536 462 536 462 522 445.5 c 128,-1,24
 508 429 508 429 482.5 413 c 128,-1,25
 457 397 457 397 438 388 c 128,-1,26
 419 379 419 379 387 366 c 0,27,28
 375 361 375 361 387 356 c 0,29,30
 487 318 487 318 518 296 c 1,31,32
 587 250 587 250 587 170 c 0,33,34
 587 92 587 92 512.5 41 c 128,-1,35
 438 -10 438 -10 322 -10 c 128,-1,36
 206 -10 206 -10 131.5 41 c 128,-1,37
 57 92 57 92 57 170 c 0,0,1
87 170 m 0,38,39
 87 103 87 103 152 61.5 c 128,-1,40
 217 20 217 20 322 20 c 128,-1,41
 427 20 427 20 492 61.5 c 128,-1,42
 557 103 557 103 557 170 c 0,43,44
 557 186 557 186 553 200.5 c 128,-1,45
 549 215 549 215 544 226 c 128,-1,46
 539 237 539 237 527 249 c 2,47,-1
 507 268 l 2,48,49
 499 275 499 275 481 284.5 c 128,-1,50
 463 294 463 294 453.5 298.5 c 128,-1,51
 444 303 444 303 421.5 311.5 c 128,-1,52
 399 320 399 320 390 323 c 2,53,-1
 356 334 l 2,54,55
 330 342 330 342 322 345 c 1,56,57
 314 342 314 342 288 334 c 2,58,-1
 254 323 l 2,59,60
 245 320 245 320 222.5 311.5 c 128,-1,61
 200 303 200 303 190.5 298.5 c 128,-1,62
 181 294 181 294 163 284.5 c 128,-1,63
 145 275 145 275 137 268 c 2,64,-1
 117 249 l 2,65,66
 105 237 105 237 100 226 c 128,-1,67
 95 215 95 215 91 200.5 c 128,-1,68
 87 186 87 186 87 170 c 0,38,39
117 540 m 0,69,70
 117 512 117 512 129.5 489 c 128,-1,71
 142 466 142 466 159 450.5 c 128,-1,72
 176 435 176 435 207 420 c 128,-1,73
 238 405 238 405 260.5 397 c 128,-1,74
 283 389 283 389 322 377 c 1,75,76
 361 389 361 389 383 397 c 128,-1,77
 405 405 405 405 436.5 420.5 c 128,-1,78
 468 436 468 436 484.5 451 c 128,-1,79
 501 466 501 466 514 489 c 128,-1,80
 527 512 527 512 527 540 c 0,81,82
 527 603 527 603 475 641.5 c 128,-1,83
 423 680 423 680 322 680 c 128,-1,84
 221 680 221 680 169 641.5 c 128,-1,85
 117 603 117 603 117 540 c 0,69,70
EndSplineSet
EndChar

StartChar: nine
Encoding: 57 57 28
Width: 597
GlyphClass: 2
Flags: W
LayerCount: 2
Fore
SplineSet
40 475 m 0,0,1
 40 578 40 578 104 644 c 128,-1,2
 168 710 168 710 275 710 c 0,3,4
 394 710 394 710 467 628.5 c 128,-1,5
 540 547 540 547 540 400 c 0,6,7
 540 222 540 222 429 96 c 128,-1,8
 318 -30 318 -30 140 -30 c 0,9,10
 125 -30 125 -30 125 -15 c 128,-1,11
 125 0 125 0 140 0 c 0,12,13
 301 0 301 0 405.5 117.5 c 128,-1,14
 510 235 510 235 510 400 c 0,15,16
 510 533 510 533 446 606.5 c 128,-1,17
 382 680 382 680 275 680 c 0,18,19
 179 680 179 680 124.5 623.5 c 128,-1,20
 70 567 70 567 70 475 c 0,21,22
 70 380 70 380 120 325 c 128,-1,23
 170 270 170 270 260 270 c 2,24,-1
 385 270 l 2,25,26
 400 270 400 270 400 255 c 128,-1,27
 400 240 400 240 385 240 c 2,28,-1
 260 240 l 2,29,30
 157 240 157 240 98.5 304 c 128,-1,31
 40 368 40 368 40 475 c 0,0,1
EndSplineSet
EndChar

StartChar: colon
Encoding: 58 58 29
Width: 252
GlyphClass: 2
Flags: W
LayerCount: 2
Fore
SplineSet
76 40 m 128,-1,1
 76 63 76 63 89.5 76.5 c 128,-1,2
 103 90 103 90 126 90 c 128,-1,3
 149 90 149 90 162.5 76.5 c 128,-1,4
 176 63 176 63 176 40 c 128,-1,5
 176 17 176 17 162.5 3.5 c 128,-1,6
 149 -10 149 -10 126 -10 c 128,-1,7
 103 -10 103 -10 89.5 3.5 c 128,-1,0
 76 17 76 17 76 40 c 128,-1,1
76 460 m 128,-1,9
 76 483 76 483 89.5 496.5 c 128,-1,10
 103 510 103 510 126 510 c 128,-1,11
 149 510 149 510 162.5 496.5 c 128,-1,12
 176 483 176 483 176 460 c 128,-1,13
 176 437 176 437 162.5 423.5 c 128,-1,14
 149 410 149 410 126 410 c 128,-1,15
 103 410 103 410 89.5 423.5 c 128,-1,8
 76 437 76 437 76 460 c 128,-1,9
EndSplineSet
EndChar

StartChar: semicolon
Encoding: 59 59 30
Width: 252
GlyphClass: 2
Flags: W
LayerCount: 2
Fore
SplineSet
76 40 m 128,-1,1
 76 63 76 63 89.5 76.5 c 128,-1,2
 103 90 103 90 126 90 c 0,3,4
 176 90 176 90 176 30 c 2,5,-1
 176 15 l 2,6,7
 176 -37 176 -37 156 -73.5 c 128,-1,8
 136 -110 136 -110 101 -125 c 0,9,10
 95 -128 95 -128 91 -128 c 0,11,12
 84 -128 84 -128 79 -121 c 1,13,14
 72 -108 72 -108 85 -102 c 0,15,16
 146 -75 146 -75 146 -10 c 2,17,-1
 146 -2 l 1,18,19
 133 -10 133 -10 121 -10 c 0,20,21
 102 -10 102 -10 89 3.5 c 128,-1,0
 76 17 76 17 76 40 c 128,-1,1
76 460 m 128,-1,23
 76 483 76 483 89.5 496.5 c 128,-1,24
 103 510 103 510 126 510 c 128,-1,25
 149 510 149 510 162.5 496.5 c 128,-1,26
 176 483 176 483 176 460 c 128,-1,27
 176 437 176 437 162.5 423.5 c 128,-1,28
 149 410 149 410 126 410 c 128,-1,29
 103 410 103 410 89.5 423.5 c 128,-1,22
 76 437 76 437 76 460 c 128,-1,23
EndSplineSet
EndChar

StartChar: less
Encoding: 60 60 31
Width: 499
GlyphClass: 2
Flags: W
LayerCount: 2
Fore
SplineSet
33 249.5 m 128,-1,1
 33 260 33 260 43 266 c 2,2,-1
 419 482 l 2,3,4
 424 486 424 486 428 486 c 0,5,6
 435 486 435 486 440 477 c 0,7,8
 443 472 443 472 443 467 c 0,9,10
 443 460 443 460 435 456 c 2,11,-1
 92 258 l 2,12,13
 78 249 78 249 92 240 c 2,14,-1
 435 43 l 1,15,16
 443 37 443 37 443 31 c 0,17,18
 443 27 443 27 440 22 c 0,19,20
 435 13 435 13 428 13 c 0,21,22
 424 13 424 13 419 17 c 2,23,-1
 44 233 l 2,24,0
 33 239 33 239 33 249.5 c 128,-1,1
EndSplineSet
EndChar

StartChar: equal
Encoding: 61 61 32
Width: 580
GlyphClass: 2
Flags: W
LayerCount: 2
Fore
SplineSet
80 220 m 128,-1,1
 80 235 80 235 95 235 c 2,2,-1
 485 235 l 2,3,4
 500 235 500 235 500 220 c 128,-1,5
 500 205 500 205 485 205 c 2,6,-1
 95 205 l 2,7,0
 80 205 80 205 80 220 c 128,-1,1
80 420 m 128,-1,9
 80 435 80 435 95 435 c 2,10,-1
 485 435 l 2,11,12
 500 435 500 435 500 420 c 128,-1,13
 500 405 500 405 485 405 c 2,14,-1
 95 405 l 2,15,8
 80 405 80 405 80 420 c 128,-1,9
EndSplineSet
EndChar

StartChar: greater
Encoding: 62 62 33
Width: 499
GlyphClass: 2
Flags: W
LayerCount: 2
Fore
SplineSet
59 22 m 0,0,1
 56 27 56 27 56 31 c 0,2,3
 56 37 56 37 64 43 c 1,4,-1
 407 240 l 1,5,6
 420 249 420 249 407 258 c 1,7,-1
 64 456 l 2,8,9
 56 460 56 460 56 467 c 0,10,11
 56 472 56 472 59 477 c 0,12,13
 64 486 64 486 71 486 c 0,14,15
 75 486 75 486 80 482 c 2,16,-1
 456 266 l 2,17,18
 466 260 466 260 466 249.5 c 128,-1,19
 466 239 466 239 455 233 c 2,20,-1
 80 17 l 2,21,22
 75 13 75 13 71 13 c 0,23,24
 64 13 64 13 59 22 c 0,0,1
EndSplineSet
EndChar

StartChar: question
Encoding: 63 63 34
Width: 542
GlyphClass: 2
Flags: W
LayerCount: 2
Fore
SplineSet
35 510 m 0,0,1
 35 601 35 601 96.5 655.5 c 128,-1,2
 158 710 158 710 265 710 c 0,3,4
 371 710 371 710 433 653 c 128,-1,5
 495 596 495 596 495 520 c 0,6,7
 495 467 495 467 473 428 c 128,-1,8
 451 389 451 389 420 365 c 2,9,-1
 356 318 l 2,10,11
 324 295 324 295 302 262 c 128,-1,12
 280 229 280 229 280 185 c 0,13,14
 280 170 280 170 265 170 c 128,-1,15
 250 170 250 170 250 185 c 0,16,17
 250 228 250 228 266 262 c 128,-1,18
 282 296 282 296 306 316 c 2,19,-1
 358 358 l 1,20,-1
 409 399 l 2,21,22
 433 418 433 418 449 449.5 c 128,-1,23
 465 481 465 481 465 520 c 0,24,25
 465 584 465 584 411 632 c 128,-1,26
 357 680 357 680 265 680 c 0,27,28
 172 680 172 680 118.5 634.5 c 128,-1,29
 65 589 65 589 65 510 c 0,30,31
 65 495 65 495 50 495 c 128,-1,32
 35 495 35 495 35 510 c 0,0,1
215 40 m 128,-1,34
 215 63 215 63 228.5 76.5 c 128,-1,35
 242 90 242 90 265 90 c 128,-1,36
 288 90 288 90 301.5 76.5 c 128,-1,37
 315 63 315 63 315 40 c 128,-1,38
 315 17 315 17 301.5 3.5 c 128,-1,39
 288 -10 288 -10 265 -10 c 128,-1,40
 242 -10 242 -10 228.5 3.5 c 128,-1,33
 215 17 215 17 215 40 c 128,-1,34
EndSplineSet
EndChar

StartChar: at
Encoding: 64 64 35
Width: 922
GlyphClass: 2
Flags: W
LayerCount: 2
Fore
SplineSet
51 260 m 128,-1,1
 51 456 51 456 171 583 c 128,-1,2
 291 710 291 710 466 710 c 0,3,4
 640 710 640 710 760.5 583 c 128,-1,5
 881 456 881 456 881 260 c 0,6,7
 881 137 881 137 840 63.5 c 128,-1,8
 799 -10 799 -10 733 -10 c 0,9,10
 653 -10 653 -10 626 70 c 1,11,12
 620 91 620 91 610 80 c 0,13,14
 530 -10 530 -10 441 -10 c 128,-1,15
 352 -10 352 -10 289 58 c 128,-1,16
 226 126 226 126 226 250 c 128,-1,17
 226 374 226 374 289 442 c 128,-1,18
 352 510 352 510 441 510 c 128,-1,19
 530 510 530 510 610 420 c 0,20,21
 618 412 618 412 622 416 c 128,-1,22
 626 420 626 420 626 430 c 2,23,-1
 626 485 l 2,24,25
 626 500 626 500 641 500 c 128,-1,26
 656 500 656 500 656 485 c 2,27,-1
 656 110 l 2,28,29
 656 66 656 66 676.5 43 c 128,-1,30
 697 20 697 20 733 20 c 0,31,32
 785 20 785 20 818 86 c 128,-1,33
 851 152 851 152 851 260 c 0,34,35
 851 445 851 445 740.5 562.5 c 128,-1,36
 630 680 630 680 466 680 c 128,-1,37
 302 680 302 680 191.5 562.5 c 128,-1,38
 81 445 81 445 81 260 c 128,-1,39
 81 75 81 75 191.5 -42.5 c 128,-1,40
 302 -160 302 -160 466 -160 c 0,41,42
 634 -160 634 -160 715 -69 c 0,43,44
 726 -58 726 -58 736 -69 c 128,-1,45
 746 -80 746 -80 736 -90 c 0,46,47
 644 -190 644 -190 466 -190 c 0,48,49
 291 -190 291 -190 171 -63 c 128,-1,0
 51 64 51 64 51 260 c 128,-1,1
256 250 m 128,-1,51
 256 137 256 137 309.5 78.5 c 128,-1,52
 363 20 363 20 441 20 c 0,53,54
 516 20 516 20 578 90 c 0,55,56
 606 122 606 122 626 160 c 1,57,-1
 626 340 l 1,58,59
 606 378 606 378 578 410 c 0,60,61
 516 480 516 480 441 480 c 0,62,63
 363 480 363 480 309.5 421.5 c 128,-1,50
 256 363 256 363 256 250 c 128,-1,51
EndSplineSet
EndChar

StartChar: A
Encoding: 65 65 36
Width: 724
GlyphClass: 2
Flags: W
LayerCount: 2
Fore
SplineSet
-10 15 m 128,-1,1
 -10 30 -10 30 5 30 c 2,2,-1
 70 30 l 2,3,4
 82 30 82 30 90 45 c 1,5,-1
 340 695 l 1,6,7
 344 710 344 710 362 710 c 128,-1,8
 380 710 380 710 384 695 c 1,9,-1
 634 45 l 1,10,11
 642 30 642 30 654 30 c 2,12,-1
 719 30 l 2,13,14
 734 30 734 30 734 15 c 128,-1,15
 734 0 734 0 719 0 c 2,16,-1
 499 0 l 2,17,18
 484 0 484 0 484 15 c 128,-1,19
 484 30 484 30 499 30 c 2,20,-1
 589 30 l 2,21,22
 606 30 606 30 599 45 c 1,23,-1
 368 645 l 2,24,25
 366 651 366 651 362 651 c 128,-1,26
 358 651 358 651 356 645 c 2,27,-1
 219 289 l 1,28,29
 212 274 212 274 230 274 c 2,30,-1
 434 274 l 2,31,32
 449 274 449 274 449 259 c 128,-1,33
 449 244 449 244 434 244 c 2,34,-1
 220 244 l 2,35,36
 202 244 202 244 196 230 c 2,37,-1
 125 45 l 1,38,39
 118 30 118 30 135 30 c 2,40,-1
 225 30 l 2,41,42
 240 30 240 30 240 15 c 128,-1,43
 240 0 240 0 225 0 c 2,44,-1
 5 0 l 2,45,0
 -10 0 -10 0 -10 15 c 128,-1,1
EndSplineSet
EndChar

StartChar: B
Encoding: 66 66 37
Width: 651
GlyphClass: 2
Flags: W
LayerCount: 2
Fore
SplineSet
46 15 m 128,-1,1
 46 30 46 30 61 30 c 2,2,-1
 131 30 l 2,3,4
 146 30 146 30 146 45 c 2,5,-1
 146 655 l 2,6,7
 146 670 146 670 131 670 c 2,8,-1
 61 670 l 2,9,10
 46 670 46 670 46 685 c 128,-1,11
 46 700 46 700 61 700 c 2,12,-1
 366 700 l 2,13,14
 447 700 447 700 496.5 650.5 c 128,-1,15
 546 601 546 601 546 525 c 0,16,17
 546 419 546 419 451 374 c 1,18,19
 522 360 522 360 559 311.5 c 128,-1,20
 596 263 596 263 596 190 c 0,21,22
 596 102 596 102 546 51 c 128,-1,23
 496 0 496 0 406 0 c 2,24,-1
 61 0 l 2,25,0
 46 0 46 0 46 15 c 128,-1,1
176 45 m 2,26,27
 176 30 176 30 191 30 c 2,28,-1
 406 30 l 2,29,30
 481 30 481 30 523.5 72.5 c 128,-1,31
 566 115 566 115 566 190 c 128,-1,32
 566 265 566 265 523.5 307.5 c 128,-1,33
 481 350 481 350 406 350 c 2,34,-1
 251 350 l 2,35,36
 236 350 236 350 236 365 c 128,-1,37
 236 380 236 380 251 380 c 2,38,-1
 371 380 l 2,39,40
 434 380 434 380 475 422 c 128,-1,41
 516 464 516 464 516 525 c 0,42,43
 516 589 516 589 475 629.5 c 128,-1,44
 434 670 434 670 366 670 c 2,45,-1
 191 670 l 2,46,47
 176 670 176 670 176 655 c 2,48,-1
 176 45 l 2,26,27
EndSplineSet
EndChar

StartChar: C
Encoding: 67 67 38
Width: 710
GlyphClass: 2
Flags: W
LayerCount: 2
Fore
SplineSet
58 350 m 0,0,1
 58 505 58 505 146.5 607.5 c 128,-1,2
 235 710 235 710 373 710 c 0,3,4
 493 710 493 710 592 625 c 0,5,6
 608 611 608 611 608 635 c 2,7,-1
 608 685 l 2,8,9
 608 700 608 700 623 700 c 128,-1,10
 638 700 638 700 638 685 c 2,11,-1
 638 495 l 2,12,13
 638 480 638 480 623 480 c 128,-1,14
 608 480 608 480 608 495 c 2,15,-1
 608 565 l 1,16,17
 581 596 581 596 545 622 c 0,18,19
 463 680 463 680 373 680 c 0,20,21
 250 680 250 680 169 586 c 128,-1,22
 88 492 88 492 88 350 c 0,23,24
 88 206 88 206 172 113 c 128,-1,25
 256 20 256 20 393 20 c 0,26,27
 537 20 537 20 622 131 c 1,28,29
 632 142 632 142 643 131 c 0,30,31
 648 126 648 126 648 120.5 c 128,-1,32
 648 115 648 115 643 110 c 0,33,34
 548 -10 548 -10 393 -10 c 0,35,36
 242 -10 242 -10 150 91.5 c 128,-1,37
 58 193 58 193 58 350 c 0,0,1
EndSplineSet
EndChar

StartChar: D
Encoding: 68 68 39
Width: 734
GlyphClass: 2
Flags: W
LayerCount: 2
Fore
SplineSet
46 15 m 128,-1,1
 46 30 46 30 61 30 c 2,2,-1
 131 30 l 2,3,4
 146 30 146 30 146 45 c 2,5,-1
 146 655 l 2,6,7
 146 670 146 670 131 670 c 2,8,-1
 61 670 l 2,9,10
 46 670 46 670 46 685 c 128,-1,11
 46 700 46 700 61 700 c 2,12,-1
 341 700 l 2,13,14
 492 700 492 700 584 600 c 128,-1,15
 676 500 676 500 676 350 c 128,-1,16
 676 200 676 200 584 100 c 128,-1,17
 492 0 492 0 341 0 c 2,18,-1
 61 0 l 2,19,0
 46 0 46 0 46 15 c 128,-1,1
176 45 m 2,20,21
 176 30 176 30 191 30 c 2,22,-1
 341 30 l 2,23,24
 477 30 477 30 561.5 121 c 128,-1,25
 646 212 646 212 646 350 c 128,-1,26
 646 488 646 488 561.5 579 c 128,-1,27
 477 670 477 670 341 670 c 2,28,-1
 191 670 l 2,29,30
 176 670 176 670 176 655 c 2,31,-1
 176 45 l 2,20,21
EndSplineSet
EndChar

StartChar: E
Encoding: 69 69 40
Width: 614
GlyphClass: 2
Flags: W
LayerCount: 2
Fore
SplineSet
46 15 m 128,-1,1
 46 30 46 30 61 30 c 2,2,-1
 131 30 l 2,3,4
 146 30 146 30 146 45 c 2,5,-1
 146 655 l 2,6,7
 146 670 146 670 131 670 c 2,8,-1
 61 670 l 2,9,10
 46 670 46 670 46 685 c 128,-1,11
 46 700 46 700 61 700 c 2,12,-1
 536 700 l 2,13,14
 551 700 551 700 551 685 c 2,15,-1
 551 545 l 2,16,17
 551 530 551 530 536 530 c 128,-1,18
 521 530 521 530 521 545 c 2,19,-1
 521 655 l 2,20,21
 521 670 521 670 506 670 c 2,22,-1
 191 670 l 2,23,24
 176 670 176 670 176 655 c 2,25,-1
 176 385 l 2,26,27
 176 370 176 370 191 370 c 2,28,-1
 416 370 l 2,29,30
 431 370 431 370 431 385 c 2,31,-1
 431 435 l 2,32,33
 431 450 431 450 446 450 c 128,-1,34
 461 450 461 450 461 435 c 2,35,-1
 461 275 l 2,36,37
 461 260 461 260 446 260 c 128,-1,38
 431 260 431 260 431 275 c 2,39,-1
 431 325 l 2,40,41
 431 340 431 340 416 340 c 2,42,-1
 191 340 l 2,43,44
 176 340 176 340 176 325 c 2,45,-1
 176 45 l 2,46,47
 176 30 176 30 191 30 c 2,48,-1
 516 30 l 2,49,50
 531 30 531 30 531 45 c 2,51,-1
 531 155 l 2,52,53
 531 170 531 170 546 170 c 128,-1,54
 561 170 561 170 561 155 c 2,55,-1
 561 15 l 2,56,57
 561 0 561 0 546 0 c 2,58,-1
 61 0 l 2,59,0
 46 0 46 0 46 15 c 128,-1,1
EndSplineSet
EndChar

StartChar: F
Encoding: 70 70 41
Width: 586
GlyphClass: 2
Flags: W
LayerCount: 2
Fore
SplineSet
46 15 m 128,-1,1
 46 30 46 30 61 30 c 2,2,-1
 131 30 l 2,3,4
 146 30 146 30 146 45 c 2,5,-1
 146 655 l 2,6,7
 146 670 146 670 131 670 c 2,8,-1
 61 670 l 2,9,10
 46 670 46 670 46 685 c 128,-1,11
 46 700 46 700 61 700 c 2,12,-1
 536 700 l 2,13,14
 551 700 551 700 551 685 c 2,15,-1
 551 545 l 2,16,17
 551 530 551 530 536 530 c 128,-1,18
 521 530 521 530 521 545 c 2,19,-1
 521 655 l 2,20,21
 521 670 521 670 506 670 c 2,22,-1
 191 670 l 2,23,24
 176 670 176 670 176 655 c 2,25,-1
 176 385 l 2,26,27
 176 370 176 370 191 370 c 2,28,-1
 426 370 l 2,29,30
 441 370 441 370 441 385 c 2,31,-1
 441 435 l 2,32,33
 441 450 441 450 456 450 c 128,-1,34
 471 450 471 450 471 435 c 2,35,-1
 471 275 l 2,36,37
 471 260 471 260 456 260 c 128,-1,38
 441 260 441 260 441 275 c 2,39,-1
 441 325 l 2,40,41
 441 340 441 340 426 340 c 2,42,-1
 191 340 l 2,43,44
 176 340 176 340 176 325 c 2,45,-1
 176 45 l 2,46,47
 176 30 176 30 191 30 c 2,48,-1
 281 30 l 2,49,50
 296 30 296 30 296 15 c 128,-1,51
 296 0 296 0 281 0 c 2,52,-1
 61 0 l 2,53,0
 46 0 46 0 46 15 c 128,-1,1
EndSplineSet
EndChar

StartChar: G
Encoding: 71 71 42
Width: 764
GlyphClass: 2
Flags: W
LayerCount: 2
Fore
SplineSet
58 350 m 0,0,1
 58 505 58 505 146.5 607.5 c 128,-1,2
 235 710 235 710 373 710 c 0,3,4
 493 710 493 710 592 625 c 0,5,6
 608 611 608 611 608 635 c 2,7,-1
 608 685 l 2,8,9
 608 700 608 700 623 700 c 128,-1,10
 638 700 638 700 638 685 c 2,11,-1
 638 495 l 2,12,13
 638 480 638 480 623 480 c 128,-1,14
 608 480 608 480 608 495 c 2,15,-1
 608 565 l 1,16,17
 581 596 581 596 545 622 c 0,18,19
 463 680 463 680 373 680 c 0,20,21
 250 680 250 680 169 586 c 128,-1,22
 88 492 88 492 88 350 c 0,23,24
 88 207 88 207 170.5 113.5 c 128,-1,25
 253 20 253 20 383 20 c 0,26,27
 469 20 469 20 546 77 c 0,28,29
 575 98 575 98 608 135 c 1,30,-1
 608 325 l 2,31,32
 608 340 608 340 593 340 c 2,33,-1
 503 340 l 2,34,35
 488 340 488 340 488 355 c 128,-1,36
 488 370 488 370 503 370 c 2,37,-1
 723 370 l 2,38,39
 738 370 738 370 738 355 c 128,-1,40
 738 340 738 340 723 340 c 2,41,-1
 653 340 l 2,42,43
 638 340 638 340 638 325 c 2,44,-1
 638 15 l 2,45,46
 638 0 638 0 623 0 c 128,-1,47
 608 0 608 0 608 15 c 2,48,-1
 608 65 l 2,49,50
 608 89 608 89 592 75 c 0,51,52
 493 -10 493 -10 383 -10 c 0,53,54
 238 -10 238 -10 148 92 c 128,-1,55
 58 194 58 194 58 350 c 0,0,1
EndSplineSet
EndChar

StartChar: H
Encoding: 72 72 43
Width: 782
GlyphClass: 2
Flags: W
LayerCount: 2
Fore
SplineSet
46 15 m 128,-1,1
 46 30 46 30 61 30 c 2,2,-1
 131 30 l 2,3,4
 146 30 146 30 146 45 c 2,5,-1
 146 655 l 2,6,7
 146 670 146 670 131 670 c 2,8,-1
 61 670 l 2,9,10
 46 670 46 670 46 685 c 128,-1,11
 46 700 46 700 61 700 c 2,12,-1
 281 700 l 2,13,14
 296 700 296 700 296 685 c 128,-1,15
 296 670 296 670 281 670 c 2,16,-1
 191 670 l 2,17,18
 176 670 176 670 176 655 c 2,19,-1
 176 385 l 2,20,21
 176 370 176 370 191 370 c 2,22,-1
 531 370 l 2,23,24
 546 370 546 370 546 355 c 128,-1,25
 546 340 546 340 531 340 c 2,26,-1
 191 340 l 2,27,28
 176 340 176 340 176 325 c 2,29,-1
 176 45 l 2,30,31
 176 30 176 30 191 30 c 2,32,-1
 281 30 l 2,33,34
 296 30 296 30 296 15 c 128,-1,35
 296 0 296 0 281 0 c 2,36,-1
 61 0 l 2,37,0
 46 0 46 0 46 15 c 128,-1,1
486 15 m 128,-1,39
 486 30 486 30 501 30 c 2,40,-1
 591 30 l 2,41,42
 606 30 606 30 606 45 c 2,43,-1
 606 655 l 2,44,45
 606 670 606 670 591 670 c 2,46,-1
 501 670 l 2,47,48
 486 670 486 670 486 685 c 128,-1,49
 486 700 486 700 501 700 c 2,50,-1
 721 700 l 2,51,52
 736 700 736 700 736 685 c 128,-1,53
 736 670 736 670 721 670 c 2,54,-1
 651 670 l 2,55,56
 636 670 636 670 636 655 c 2,57,-1
 636 45 l 2,58,59
 636 30 636 30 651 30 c 2,60,-1
 721 30 l 2,61,62
 736 30 736 30 736 15 c 128,-1,63
 736 0 736 0 721 0 c 2,64,-1
 501 0 l 2,65,38
 486 0 486 0 486 15 c 128,-1,39
EndSplineSet
EndChar

StartChar: I
Encoding: 73 73 44
Width: 322
GlyphClass: 2
Flags: W
LayerCount: 2
Fore
SplineSet
46 15 m 128,-1,1
 46 30 46 30 61 30 c 2,2,-1
 131 30 l 2,3,4
 146 30 146 30 146 45 c 2,5,-1
 146 655 l 2,6,7
 146 670 146 670 131 670 c 2,8,-1
 61 670 l 2,9,10
 46 670 46 670 46 685 c 128,-1,11
 46 700 46 700 61 700 c 2,12,-1
 261 700 l 2,13,14
 276 700 276 700 276 685 c 128,-1,15
 276 670 276 670 261 670 c 2,16,-1
 191 670 l 2,17,18
 176 670 176 670 176 655 c 2,19,-1
 176 45 l 2,20,21
 176 30 176 30 191 30 c 2,22,-1
 261 30 l 2,23,24
 276 30 276 30 276 15 c 128,-1,25
 276 0 276 0 261 0 c 2,26,-1
 61 0 l 2,27,0
 46 0 46 0 46 15 c 128,-1,1
EndSplineSet
EndChar

StartChar: J
Encoding: 74 74 45
Width: 515
GlyphClass: 2
Flags: W
LayerCount: 2
Fore
SplineSet
34 165 m 0,0,1
 34 180 34 180 49 180 c 128,-1,2
 64 180 64 180 64 165 c 0,3,4
 64 97 64 97 102 58.5 c 128,-1,5
 140 20 140 20 204 20 c 0,6,7
 270 20 270 20 312 63 c 128,-1,8
 354 106 354 106 354 185 c 2,9,-1
 354 655 l 2,10,11
 354 670 354 670 339 670 c 2,12,-1
 99 670 l 2,13,14
 84 670 84 670 84 685 c 128,-1,15
 84 700 84 700 99 700 c 2,16,-1
 469 700 l 2,17,18
 484 700 484 700 484 685 c 128,-1,19
 484 670 484 670 469 670 c 2,20,-1
 399 670 l 2,21,22
 384 670 384 670 384 655 c 2,23,-1
 384 185 l 2,24,25
 384 93 384 93 334 41.5 c 128,-1,26
 284 -10 284 -10 204 -10 c 0,27,28
 126 -10 126 -10 80 38 c 128,-1,29
 34 86 34 86 34 165 c 0,0,1
EndSplineSet
EndChar

StartChar: K
Encoding: 75 75 46
Width: 696
GlyphClass: 2
Flags: W
LayerCount: 2
Fore
SplineSet
46 15 m 128,-1,1
 46 30 46 30 61 30 c 2,2,-1
 131 30 l 2,3,4
 146 30 146 30 146 45 c 2,5,-1
 146 655 l 2,6,7
 146 670 146 670 131 670 c 2,8,-1
 61 670 l 2,9,10
 46 670 46 670 46 685 c 128,-1,11
 46 700 46 700 61 700 c 2,12,-1
 281 700 l 2,13,14
 296 700 296 700 296 685 c 128,-1,15
 296 670 296 670 281 670 c 2,16,-1
 191 670 l 2,17,18
 176 670 176 670 176 655 c 2,19,-1
 176 285 l 1,20,-1
 516 655 l 1,21,22
 522 660 522 660 520.5 665 c 128,-1,23
 519 670 519 670 511 670 c 2,24,-1
 416 670 l 2,25,26
 401 670 401 670 401 685 c 128,-1,27
 401 700 401 700 416 700 c 2,28,-1
 651 700 l 2,29,30
 666 700 666 700 666 685 c 128,-1,31
 666 670 666 670 651 670 c 2,32,-1
 587 670 l 2,33,34
 576 670 576 670 561 655 c 2,35,-1
 330 404 l 1,36,-1
 591 45 l 1,37,38
 604 30 604 30 616 30 c 2,39,-1
 681 30 l 2,40,41
 696 30 696 30 696 15 c 128,-1,42
 696 0 696 0 681 0 c 2,43,-1
 451 0 l 2,44,45
 436 0 436 0 436 15 c 128,-1,46
 436 30 436 30 451 30 c 2,47,-1
 546 30 l 2,48,49
 564 30 564 30 551 45 c 1,50,-1
 308 380 l 1,51,-1
 176 236 l 1,52,-1
 176 45 l 2,53,54
 176 30 176 30 191 30 c 2,55,-1
 281 30 l 2,56,57
 296 30 296 30 296 15 c 128,-1,58
 296 0 296 0 281 0 c 2,59,-1
 61 0 l 2,60,0
 46 0 46 0 46 15 c 128,-1,1
EndSplineSet
EndChar

StartChar: L
Encoding: 76 76 47
Width: 578
GlyphClass: 2
Flags: W
LayerCount: 2
Fore
SplineSet
46 15 m 128,-1,1
 46 30 46 30 61 30 c 2,2,-1
 131 30 l 2,3,4
 146 30 146 30 146 45 c 2,5,-1
 146 655 l 2,6,7
 146 670 146 670 131 670 c 2,8,-1
 61 670 l 2,9,10
 46 670 46 670 46 685 c 128,-1,11
 46 700 46 700 61 700 c 2,12,-1
 281 700 l 2,13,14
 296 700 296 700 296 685 c 128,-1,15
 296 670 296 670 281 670 c 2,16,-1
 191 670 l 2,17,18
 176 670 176 670 176 655 c 2,19,-1
 176 45 l 2,20,21
 176 30 176 30 191 30 c 2,22,-1
 511 30 l 2,23,24
 526 30 526 30 526 45 c 2,25,-1
 526 155 l 2,26,27
 526 170 526 170 541 170 c 128,-1,28
 556 170 556 170 556 155 c 2,29,-1
 556 15 l 2,30,31
 556 0 556 0 541 0 c 2,32,-1
 61 0 l 2,33,0
 46 0 46 0 46 15 c 128,-1,1
EndSplineSet
EndChar

StartChar: M
Encoding: 77 77 48
Width: 972
GlyphClass: 2
Flags: W
LayerCount: 2
Fore
SplineSet
46 15 m 128,-1,1
 46 30 46 30 61 30 c 2,2,-1
 131 30 l 2,3,4
 146 30 146 30 146 45 c 2,5,-1
 146 655 l 2,6,7
 146 670 146 670 131 670 c 2,8,-1
 61 670 l 2,9,10
 46 670 46 670 46 685 c 128,-1,11
 46 700 46 700 61 700 c 2,12,-1
 171 700 l 2,13,14
 189 700 189 700 196 685 c 2,15,-1
 476 65 l 2,16,17
 486 45 486 45 496 65 c 2,18,-1
 776 685 l 2,19,20
 783 700 783 700 801 700 c 2,21,-1
 911 700 l 2,22,23
 926 700 926 700 926 685 c 128,-1,24
 926 670 926 670 911 670 c 2,25,-1
 841 670 l 2,26,27
 826 670 826 670 826 655 c 2,28,-1
 826 45 l 2,29,30
 826 30 826 30 841 30 c 2,31,-1
 911 30 l 2,32,33
 926 30 926 30 926 15 c 128,-1,34
 926 0 926 0 911 0 c 2,35,-1
 691 0 l 2,36,37
 676 0 676 0 676 15 c 128,-1,38
 676 30 676 30 691 30 c 2,39,-1
 781 30 l 2,40,41
 796 30 796 30 796 45 c 2,42,-1
 796 630 l 2,43,44
 796 635 796 635 794.5 637 c 128,-1,45
 793 639 793 639 791.5 638.5 c 128,-1,46
 790 638 790 638 788 635 c 2,47,-1
 508 15 l 1,48,49
 500 0 500 0 486 0 c 128,-1,50
 472 0 472 0 464 15 c 1,51,-1
 184 635 l 2,52,53
 182 638 182 638 180.5 638.5 c 128,-1,54
 179 639 179 639 177.5 637 c 128,-1,55
 176 635 176 635 176 630 c 2,56,-1
 176 45 l 2,57,58
 176 30 176 30 191 30 c 2,59,-1
 281 30 l 2,60,61
 296 30 296 30 296 15 c 128,-1,62
 296 0 296 0 281 0 c 2,63,-1
 61 0 l 2,64,0
 46 0 46 0 46 15 c 128,-1,1
EndSplineSet
EndChar

StartChar: N
Encoding: 78 78 49
Width: 785
GlyphClass: 2
Flags: W
LayerCount: 2
Fore
SplineSet
46 15 m 128,-1,1
 46 30 46 30 61 30 c 2,2,-1
 131 30 l 2,3,4
 146 30 146 30 146 45 c 2,5,-1
 146 655 l 2,6,7
 146 670 146 670 131 670 c 2,8,-1
 61 670 l 2,9,10
 46 670 46 670 46 685 c 128,-1,11
 46 700 46 700 61 700 c 2,12,-1
 171 700 l 2,13,14
 187 700 187 700 196 685 c 2,15,-1
 606 60 l 2,16,17
 608 56 608 56 612 56.5 c 128,-1,18
 616 57 616 57 616 65 c 2,19,-1
 616 655 l 2,20,21
 616 670 616 670 601 670 c 2,22,-1
 511 670 l 2,23,24
 496 670 496 670 496 685 c 128,-1,25
 496 700 496 700 511 700 c 2,26,-1
 731 700 l 2,27,28
 746 700 746 700 746 685 c 128,-1,29
 746 670 746 670 731 670 c 2,30,-1
 661 670 l 2,31,32
 646 670 646 670 646 655 c 2,33,-1
 646 45 l 2,34,35
 646 30 646 30 661 30 c 2,36,-1
 731 30 l 2,37,38
 746 30 746 30 746 15 c 128,-1,39
 746 0 746 0 731 0 c 2,40,-1
 621 0 l 2,41,42
 605 0 605 0 596 15 c 2,43,-1
 186 640 l 2,44,45
 184 644 184 644 180 643.5 c 128,-1,46
 176 643 176 643 176 635 c 2,47,-1
 176 45 l 2,48,49
 176 30 176 30 191 30 c 2,50,-1
 281 30 l 2,51,52
 296 30 296 30 296 15 c 128,-1,53
 296 0 296 0 281 0 c 2,54,-1
 61 0 l 2,55,0
 46 0 46 0 46 15 c 128,-1,1
EndSplineSet
EndChar

StartChar: O
Encoding: 79 79 50
Width: 786
GlyphClass: 2
Flags: W
LayerCount: 2
Fore
SplineSet
58 350 m 128,-1,1
 58 507 58 507 150 608.5 c 128,-1,2
 242 710 242 710 393 710 c 128,-1,3
 544 710 544 710 636 608.5 c 128,-1,4
 728 507 728 507 728 350 c 128,-1,5
 728 193 728 193 636 91.5 c 128,-1,6
 544 -10 544 -10 393 -10 c 128,-1,7
 242 -10 242 -10 150 91.5 c 128,-1,0
 58 193 58 193 58 350 c 128,-1,1
88 350 m 128,-1,9
 88 206 88 206 172 113 c 128,-1,10
 256 20 256 20 393 20 c 128,-1,11
 530 20 530 20 614 113 c 128,-1,12
 698 206 698 206 698 350 c 128,-1,13
 698 494 698 494 614 587 c 128,-1,14
 530 680 530 680 393 680 c 128,-1,15
 256 680 256 680 172 587 c 128,-1,8
 88 494 88 494 88 350 c 128,-1,9
EndSplineSet
EndChar

StartChar: P
Encoding: 80 80 51
Width: 633
GlyphClass: 2
Flags: W
LayerCount: 2
Fore
SplineSet
46 15 m 128,-1,1
 46 30 46 30 61 30 c 2,2,-1
 131 30 l 2,3,4
 146 30 146 30 146 45 c 2,5,-1
 146 655 l 2,6,7
 146 670 146 670 131 670 c 2,8,-1
 61 670 l 2,9,10
 46 670 46 670 46 685 c 128,-1,11
 46 700 46 700 61 700 c 2,12,-1
 396 700 l 2,13,14
 494 700 494 700 545 646 c 128,-1,15
 596 592 596 592 596 490 c 128,-1,16
 596 388 596 388 545 334 c 128,-1,17
 494 280 494 280 396 280 c 2,18,-1
 251 280 l 2,19,20
 236 280 236 280 236 295 c 128,-1,21
 236 310 236 310 251 310 c 2,22,-1
 396 310 l 2,23,24
 566 310 566 310 566 490 c 128,-1,25
 566 670 566 670 396 670 c 2,26,-1
 191 670 l 2,27,28
 176 670 176 670 176 655 c 2,29,-1
 176 45 l 2,30,31
 176 30 176 30 191 30 c 2,32,-1
 281 30 l 2,33,34
 296 30 296 30 296 15 c 128,-1,35
 296 0 296 0 281 0 c 2,36,-1
 61 0 l 2,37,0
 46 0 46 0 46 15 c 128,-1,1
EndSplineSet
EndChar

StartChar: Q
Encoding: 81 81 52
Width: 787
GlyphClass: 2
Flags: W
LayerCount: 2
Fore
SplineSet
58 350 m 128,-1,1
 58 507 58 507 150 608.5 c 128,-1,2
 242 710 242 710 393 710 c 128,-1,3
 544 710 544 710 636 608.5 c 128,-1,4
 728 507 728 507 728 350 c 0,5,6
 728 221 728 221 665 127 c 128,-1,7
 602 33 602 33 492 3 c 1,8,9
 500 -28 500 -28 511 -44 c 128,-1,10
 522 -60 522 -60 543 -60 c 0,11,12
 593 -60 593 -60 593 0 c 0,13,14
 593 15 593 15 608 15 c 128,-1,15
 623 15 623 15 623 0 c 0,16,17
 623 -90 623 -90 543 -90 c 0,18,19
 506 -90 506 -90 487.5 -67 c 128,-1,20
 469 -44 469 -44 459 -4 c 1,21,22
 428 -10 428 -10 393 -10 c 0,23,24
 242 -10 242 -10 150 91.5 c 128,-1,0
 58 193 58 193 58 350 c 128,-1,1
88 350 m 0,25,26
 88 226 88 226 151.5 138.5 c 128,-1,27
 215 51 215 51 323 27 c 1,28,29
 327 110 327 110 403 110 c 0,30,31
 438 110 438 110 455 90 c 128,-1,32
 472 70 472 70 484 32 c 1,33,34
 583 60 583 60 640.5 146 c 128,-1,35
 698 232 698 232 698 350 c 0,36,37
 698 494 698 494 614 587 c 128,-1,38
 530 680 530 680 393 680 c 128,-1,39
 256 680 256 680 172 587 c 128,-1,40
 88 494 88 494 88 350 c 0,25,26
353 22 m 1,41,42
 379 20 379 20 393 20 c 0,43,44
 428 20 428 20 452 25 c 1,45,46
 436 80 436 80 403 80 c 0,47,48
 354 80 354 80 353 22 c 1,41,42
EndSplineSet
EndChar

StartChar: R
Encoding: 82 82 53
Width: 688
GlyphClass: 2
Flags: W
LayerCount: 2
Fore
SplineSet
46 15 m 128,-1,1
 46 30 46 30 61 30 c 2,2,-1
 131 30 l 2,3,4
 146 30 146 30 146 45 c 2,5,-1
 146 655 l 2,6,7
 146 670 146 670 131 670 c 2,8,-1
 61 670 l 2,9,10
 46 670 46 670 46 685 c 128,-1,11
 46 700 46 700 61 700 c 2,12,-1
 396 700 l 2,13,14
 493 700 493 700 544.5 649.5 c 128,-1,15
 596 599 596 599 596 510 c 128,-1,16
 596 421 596 421 544.5 370.5 c 128,-1,17
 493 320 493 320 396 320 c 2,18,-1
 391 320 l 2,19,20
 383 320 383 320 379.5 315.5 c 128,-1,21
 376 311 376 311 381 305 c 2,22,-1
 571 45 l 1,23,24
 584 30 584 30 596 30 c 2,25,-1
 661 30 l 2,26,27
 676 30 676 30 676 15 c 128,-1,28
 676 0 676 0 661 0 c 2,29,-1
 431 0 l 2,30,31
 416 0 416 0 416 15 c 128,-1,32
 416 30 416 30 431 30 c 2,33,-1
 526 30 l 2,34,35
 544 30 544 30 531 45 c 1,36,-1
 331 320 l 1,37,-1
 251 320 l 2,38,39
 236 320 236 320 236 335 c 128,-1,40
 236 350 236 350 251 350 c 2,41,-1
 396 350 l 2,42,43
 478 350 478 350 522 392 c 128,-1,44
 566 434 566 434 566 510 c 128,-1,45
 566 586 566 586 522 628 c 128,-1,46
 478 670 478 670 396 670 c 2,47,-1
 191 670 l 2,48,49
 176 670 176 670 176 655 c 2,50,-1
 176 45 l 2,51,52
 176 30 176 30 191 30 c 2,53,-1
 281 30 l 2,54,55
 296 30 296 30 296 15 c 128,-1,56
 296 0 296 0 281 0 c 2,57,-1
 61 0 l 2,58,0
 46 0 46 0 46 15 c 128,-1,1
EndSplineSet
EndChar

StartChar: S
Encoding: 83 83 54
Width: 645
GlyphClass: 2
Flags: W
LayerCount: 2
Fore
SplineSet
55 110 m 0,0,1
 50 115 50 115 50 120.5 c 128,-1,2
 50 126 50 126 55 131 c 0,3,4
 66 142 66 142 76 131 c 1,5,6
 161 20 161 20 335 20 c 0,7,8
 446 20 446 20 503 64.5 c 128,-1,9
 560 109 560 109 560 180 c 0,10,11
 560 227 560 227 533 259 c 128,-1,12
 506 291 506 291 463 307.5 c 128,-1,13
 420 324 420 324 368 336 c 2,14,-1
 263 361 l 2,15,16
 211 374 211 374 167.5 393 c 128,-1,17
 124 412 124 412 97 447.5 c 128,-1,18
 70 483 70 483 70 535 c 0,19,20
 70 611 70 611 125 660.5 c 128,-1,21
 180 710 180 710 300 710 c 128,-1,22
 420 710 420 710 519 625 c 0,23,24
 535 611 535 611 535 635 c 2,25,-1
 535 685 l 2,26,27
 535 700 535 700 550 700 c 128,-1,28
 565 700 565 700 565 685 c 2,29,-1
 565 495 l 2,30,31
 565 480 565 480 550 480 c 128,-1,32
 535 480 535 480 535 495 c 2,33,-1
 535 565 l 1,34,35
 508 596 508 596 472 622 c 0,36,37
 390 680 390 680 300 680 c 0,38,39
 199 680 199 680 149.5 638.5 c 128,-1,40
 100 597 100 597 100 535 c 0,41,42
 100 491 100 491 127 460.5 c 128,-1,43
 154 430 154 430 197 414.5 c 128,-1,44
 240 399 240 399 292.5 387 c 128,-1,45
 345 375 345 375 397.5 361.5 c 128,-1,46
 450 348 450 348 493 328.5 c 128,-1,47
 536 309 536 309 563 271.5 c 128,-1,48
 590 234 590 234 590 180 c 0,49,50
 590 94 590 94 524.5 42 c 128,-1,51
 459 -10 459 -10 335 -10 c 0,52,53
 148 -10 148 -10 55 110 c 0,0,1
EndSplineSet
EndChar

StartChar: T
Encoding: 84 84 55
Width: 618
GlyphClass: 2
Flags: W
LayerCount: 2
Fore
SplineSet
26 540 m 2,0,-1
 26 685 l 2,1,2
 26 700 26 700 41 700 c 2,3,-1
 581 700 l 2,4,5
 596 700 596 700 596 685 c 2,6,-1
 596 540 l 2,7,8
 596 525 596 525 581 525 c 128,-1,9
 566 525 566 525 566 540 c 2,10,-1
 566 655 l 2,11,12
 566 670 566 670 551 670 c 2,13,-1
 341 670 l 2,14,15
 326 670 326 670 326 655 c 2,16,-1
 326 45 l 2,17,18
 326 30 326 30 341 30 c 2,19,-1
 411 30 l 2,20,21
 426 30 426 30 426 15 c 128,-1,22
 426 0 426 0 411 0 c 2,23,-1
 211 0 l 2,24,25
 196 0 196 0 196 15 c 128,-1,26
 196 30 196 30 211 30 c 2,27,-1
 281 30 l 2,28,29
 296 30 296 30 296 45 c 2,30,-1
 296 655 l 2,31,32
 296 670 296 670 281 670 c 2,33,-1
 71 670 l 2,34,35
 56 670 56 670 56 655 c 2,36,-1
 56 540 l 2,37,38
 56 525 56 525 41 525 c 128,-1,39
 26 525 26 525 26 540 c 2,0,-1
EndSplineSet
EndChar

StartChar: U
Encoding: 85 85 56
Width: 776
GlyphClass: 2
Flags: W
LayerCount: 2
Fore
SplineSet
28 685 m 128,-1,1
 28 700 28 700 43 700 c 2,2,-1
 263 700 l 2,3,4
 278 700 278 700 278 685 c 128,-1,5
 278 670 278 670 263 670 c 2,6,-1
 173 670 l 2,7,8
 158 670 158 670 158 655 c 2,9,-1
 158 250 l 2,10,11
 158 146 158 146 223 83 c 128,-1,12
 288 20 288 20 388 20 c 128,-1,13
 488 20 488 20 553 83 c 128,-1,14
 618 146 618 146 618 250 c 2,15,-1
 618 655 l 2,16,17
 618 670 618 670 603 670 c 2,18,-1
 513 670 l 2,19,20
 498 670 498 670 498 685 c 128,-1,21
 498 700 498 700 513 700 c 2,22,-1
 733 700 l 2,23,24
 748 700 748 700 748 685 c 128,-1,25
 748 670 748 670 733 670 c 2,26,-1
 663 670 l 2,27,28
 648 670 648 670 648 655 c 2,29,-1
 648 250 l 2,30,31
 648 135 648 135 574.5 62.5 c 128,-1,32
 501 -10 501 -10 388 -10 c 128,-1,33
 275 -10 275 -10 201.5 62.5 c 128,-1,34
 128 135 128 135 128 250 c 2,35,-1
 128 655 l 2,36,37
 128 670 128 670 113 670 c 2,38,-1
 43 670 l 2,39,0
 28 670 28 670 28 685 c 128,-1,1
EndSplineSet
EndChar

StartChar: V
Encoding: 86 86 57
Width: 724
GlyphClass: 2
Flags: W
LayerCount: 2
Fore
SplineSet
-10 685 m 128,-1,1
 -10 700 -10 700 5 700 c 2,2,-1
 225 700 l 2,3,4
 240 700 240 700 240 685 c 128,-1,5
 240 670 240 670 225 670 c 2,6,-1
 135 670 l 2,7,8
 118 670 118 670 125 655 c 1,9,-1
 356 55 l 2,10,11
 358 49 358 49 362 49 c 128,-1,12
 366 49 366 49 368 55 c 2,13,-1
 599 655 l 1,14,15
 606 670 606 670 589 670 c 2,16,-1
 499 670 l 2,17,18
 484 670 484 670 484 685 c 128,-1,19
 484 700 484 700 499 700 c 2,20,-1
 719 700 l 2,21,22
 734 700 734 700 734 685 c 128,-1,23
 734 670 734 670 719 670 c 2,24,-1
 654 670 l 2,25,26
 642 670 642 670 634 655 c 1,27,-1
 384 5 l 1,28,29
 380 -10 380 -10 362 -10 c 128,-1,30
 344 -10 344 -10 340 5 c 1,31,-1
 90 655 l 1,32,33
 82 670 82 670 70 670 c 2,34,-1
 5 670 l 2,35,0
 -10 670 -10 670 -10 685 c 128,-1,1
EndSplineSet
EndChar

StartChar: W
Encoding: 87 87 58
Width: 1013
GlyphClass: 2
Flags: W
LayerCount: 2
Fore
SplineSet
-10 685 m 128,-1,1
 -10 700 -10 700 5 700 c 2,2,-1
 225 700 l 2,3,4
 240 700 240 700 240 685 c 128,-1,5
 240 670 240 670 225 670 c 2,6,-1
 135 670 l 2,7,8
 118 670 118 670 125 655 c 1,9,-1
 304 77 l 2,10,11
 306 71 306 71 310 71 c 128,-1,12
 314 71 314 71 316 77 c 2,13,-1
 487 685 l 2,14,15
 492 700 492 700 507 700 c 128,-1,16
 522 700 522 700 527 685 c 2,17,-1
 697 77 l 2,18,19
 699 71 699 71 703 71 c 128,-1,20
 707 71 707 71 709 77 c 2,21,-1
 888 655 l 1,22,23
 896 670 896 670 878 670 c 2,24,-1
 788 670 l 2,25,26
 773 670 773 670 773 685 c 128,-1,27
 773 700 773 700 788 700 c 2,28,-1
 1008 700 l 2,29,30
 1023 700 1023 700 1023 685 c 128,-1,31
 1023 670 1023 670 1008 670 c 2,32,-1
 943 670 l 2,33,34
 928 670 928 670 923 655 c 2,35,-1
 722 5 l 2,36,37
 718 -10 718 -10 703 -10 c 128,-1,38
 688 -10 688 -10 684 5 c 2,39,-1
 513 615 l 2,40,41
 511 621 511 621 506 621 c 128,-1,42
 501 621 501 621 499 615 c 2,43,-1
 329 5 l 2,44,45
 324 -10 324 -10 310 -10 c 128,-1,46
 296 -10 296 -10 291 5 c 2,47,-1
 90 655 l 2,48,49
 86 670 86 670 70 670 c 2,50,-1
 5 670 l 2,51,0
 -10 670 -10 670 -10 685 c 128,-1,1
EndSplineSet
EndChar

StartChar: X
Encoding: 88 88 59
Width: 661
GlyphClass: 2
Flags: W
LayerCount: 2
Fore
SplineSet
7 15 m 128,-1,1
 7 30 7 30 22 30 c 2,2,-1
 82 30 l 2,3,4
 98 30 98 30 107 45 c 2,5,-1
 307 348 l 2,6,7
 313 357 313 357 307 366 c 2,8,-1
 117 655 l 2,9,10
 108 670 108 670 92 670 c 2,11,-1
 32 670 l 2,12,13
 17 670 17 670 17 685 c 128,-1,14
 17 700 17 700 32 700 c 2,15,-1
 252 700 l 2,16,17
 267 700 267 700 267 685 c 128,-1,18
 267 670 267 670 252 670 c 2,19,-1
 162 670 l 2,20,21
 154 670 154 670 151 665.5 c 128,-1,22
 148 661 148 661 152 655 c 2,23,-1
 323 395 l 2,24,25
 330 385 330 385 337 395 c 2,26,-1
 509 655 l 2,27,28
 513 661 513 661 510 665.5 c 128,-1,29
 507 670 507 670 499 670 c 2,30,-1
 409 670 l 2,31,32
 394 670 394 670 394 685 c 128,-1,33
 394 700 394 700 409 700 c 2,34,-1
 629 700 l 2,35,36
 644 700 644 700 644 685 c 128,-1,37
 644 670 644 670 629 670 c 2,38,-1
 569 670 l 2,39,40
 553 670 553 670 544 655 c 2,41,-1
 354 366 l 2,42,43
 348 357 348 357 354 348 c 2,44,-1
 554 45 l 2,45,46
 563 30 563 30 579 30 c 2,47,-1
 639 30 l 2,48,49
 654 30 654 30 654 15 c 128,-1,50
 654 0 654 0 639 0 c 2,51,-1
 419 0 l 2,52,53
 404 0 404 0 404 15 c 128,-1,54
 404 30 404 30 419 30 c 2,55,-1
 509 30 l 2,56,57
 517 30 517 30 520 34.5 c 128,-1,58
 523 39 523 39 519 45 c 2,59,-1
 337 320 l 2,60,61
 330 330 330 330 323 320 c 2,62,-1
 142 45 l 2,63,64
 138 39 138 39 141 34.5 c 128,-1,65
 144 30 144 30 152 30 c 2,66,-1
 242 30 l 2,67,68
 257 30 257 30 257 15 c 128,-1,69
 257 0 257 0 242 0 c 2,70,-1
 22 0 l 2,71,0
 7 0 7 0 7 15 c 128,-1,1
EndSplineSet
EndChar

StartChar: Y
Encoding: 89 89 60
Width: 627
GlyphClass: 2
Flags: W
LayerCount: 2
Fore
SplineSet
-10 685 m 128,-1,1
 -10 700 -10 700 5 700 c 2,2,-1
 225 700 l 2,3,4
 240 700 240 700 240 685 c 128,-1,5
 240 670 240 670 225 670 c 2,6,-1
 135 670 l 2,7,8
 127 670 127 670 124 665.5 c 128,-1,9
 121 661 121 661 125 655 c 2,10,-1
 306 339 l 1,11,12
 313 329 313 329 320 339 c 1,13,-1
 502 655 l 2,14,15
 506 661 506 661 503 665.5 c 128,-1,16
 500 670 500 670 492 670 c 2,17,-1
 402 670 l 2,18,19
 387 670 387 670 387 685 c 128,-1,20
 387 700 387 700 402 700 c 2,21,-1
 622 700 l 2,22,23
 637 700 637 700 637 685 c 128,-1,24
 637 670 637 670 622 670 c 2,25,-1
 562 670 l 2,26,27
 546 670 546 670 537 655 c 2,28,-1
 329 294 l 1,29,-1
 329 45 l 2,30,31
 329 30 329 30 344 30 c 2,32,-1
 414 30 l 2,33,34
 429 30 429 30 429 15 c 128,-1,35
 429 0 429 0 414 0 c 2,36,-1
 214 0 l 2,37,38
 199 0 199 0 199 15 c 128,-1,39
 199 30 199 30 214 30 c 2,40,-1
 284 30 l 2,41,42
 299 30 299 30 299 45 c 2,43,-1
 299 292 l 1,44,-1
 90 655 l 2,45,46
 81 670 81 670 65 670 c 2,47,-1
 5 670 l 2,48,0
 -10 670 -10 670 -10 685 c 128,-1,1
EndSplineSet
EndChar

StartChar: Z
Encoding: 90 90 61
Width: 615
GlyphClass: 2
Flags: W
LayerCount: 2
Fore
SplineSet
50 17 m 0,0,1
 50 21 50 21 62 40 c 1,2,-1
 511 654 l 1,3,4
 517 660 517 660 514 665 c 128,-1,5
 511 670 511 670 500 670 c 2,6,-1
 100 670 l 2,7,8
 85 670 85 670 85 655 c 2,9,-1
 85 545 l 2,10,11
 85 530 85 530 70 530 c 128,-1,12
 55 530 55 530 55 545 c 2,13,-1
 55 685 l 2,14,15
 55 700 55 700 70 700 c 2,16,-1
 550 700 l 2,17,18
 565 700 565 700 565 683 c 0,19,20
 565 679 565 679 553 660 c 1,21,-1
 104 46 l 1,22,23
 98 40 98 40 101 35 c 128,-1,24
 104 30 104 30 115 30 c 2,25,-1
 515 30 l 2,26,27
 530 30 530 30 530 45 c 2,28,-1
 530 155 l 2,29,30
 530 170 530 170 545 170 c 128,-1,31
 560 170 560 170 560 155 c 2,32,-1
 560 15 l 2,33,34
 560 0 560 0 545 0 c 2,35,-1
 65 0 l 2,36,37
 50 0 50 0 50 17 c 0,0,1
EndSplineSet
EndChar

StartChar: bracketleft
Encoding: 91 91 62
Width: 290
GlyphClass: 2
Flags: W
LayerCount: 2
Fore
SplineSet
107 -145 m 2,0,-1
 107 765 l 2,1,2
 107 780 107 780 122 780 c 2,3,-1
 252 780 l 2,4,5
 267 780 267 780 267 765 c 128,-1,6
 267 750 267 750 252 750 c 2,7,-1
 152 750 l 2,8,9
 137 750 137 750 137 735 c 2,10,-1
 137 -115 l 2,11,12
 137 -130 137 -130 152 -130 c 2,13,-1
 252 -130 l 2,14,15
 267 -130 267 -130 267 -145 c 128,-1,16
 267 -160 267 -160 252 -160 c 2,17,-1
 122 -160 l 2,18,19
 107 -160 107 -160 107 -145 c 2,0,-1
EndSplineSet
EndChar

StartChar: backslash
Encoding: 92 92 63
Width: 519
GlyphClass: 2
Flags: W
LayerCount: 2
Fore
SplineSet
31 677 m 1,0,1
 27 681 27 681 27 685 c 0,2,3
 27 691 27 691 35 697 c 0,4,5
 39 699 39 699 43 699 c 0,6,7
 50 699 50 699 55 692 c 2,8,-1
 488 23 l 2,9,10
 492 18 492 18 492 14 c 0,11,12
 492 7 492 7 483 2 c 0,13,14
 479 0 479 0 475 0 c 0,15,16
 468 0 468 0 463 7 c 2,17,-1
 31 677 l 1,0,1
EndSplineSet
EndChar

StartChar: bracketright
Encoding: 93 93 64
Width: 290
GlyphClass: 2
Flags: W
LayerCount: 2
Fore
SplineSet
23 -145 m 128,-1,1
 23 -130 23 -130 38 -130 c 2,2,-1
 138 -130 l 2,3,4
 153 -130 153 -130 153 -115 c 2,5,-1
 153 735 l 2,6,7
 153 750 153 750 138 750 c 2,8,-1
 38 750 l 2,9,10
 23 750 23 750 23 765 c 128,-1,11
 23 780 23 780 38 780 c 2,12,-1
 168 780 l 2,13,14
 183 780 183 780 183 765 c 2,15,-1
 183 -145 l 2,16,17
 183 -160 183 -160 168 -160 c 2,18,-1
 38 -160 l 2,19,0
 23 -160 23 -160 23 -145 c 128,-1,1
EndSplineSet
EndChar

StartChar: asciicircum
Encoding: 94 94 65
Width: 467
GlyphClass: 2
Flags: W
LayerCount: 2
Fore
SplineSet
24 466 m 2,0,-1
 217 729 l 1,1,2
 223 739 223 739 234 740 c 0,3,4
 244 740 244 740 250 729 c 1,5,-1
 443 466 l 2,6,7
 446 462 446 462 446 458 c 0,8,9
 446 451 446 451 439 446 c 0,10,11
 434 442 434 442 429 442 c 0,12,13
 422 442 422 442 417 450 c 2,14,-1
 243 687 l 2,15,16
 239 693 239 693 233.5 693 c 128,-1,17
 228 693 228 693 224 687 c 2,18,-1
 50 450 l 2,19,20
 45 442 45 442 38 442 c 0,21,22
 33 442 33 442 28 446 c 0,23,24
 21 451 21 451 21 458 c 0,25,26
 21 462 21 462 24 466 c 2,0,-1
EndSplineSet
EndChar

StartChar: underscore
Encoding: 95 95 66
Width: 708
GlyphClass: 2
Flags: W
LayerCount: 2
Fore
SplineSet
189 -65 m 128,-1,1
 189 -50 189 -50 204 -50 c 2,2,-1
 504 -50 l 2,3,4
 519 -50 519 -50 519 -65 c 128,-1,5
 519 -80 519 -80 504 -80 c 2,6,-1
 204 -80 l 2,7,0
 189 -80 189 -80 189 -65 c 128,-1,1
EndSplineSet
EndChar

StartChar: grave
Encoding: 96 96 67
Width: 242
GlyphClass: 2
Flags: W
LayerCount: 2
Fore
SplineSet
64 695 m 2,0,1
 60 700 60 700 60 705 c 0,2,3
 60 711 60 711 68 715 c 1,4,5
 73 720 73 720 78 720 c 0,6,7
 84 720 84 720 89 711 c 1,8,-1
 178 584 l 2,9,10
 182 579 182 579 182 574 c 256,11,12
 182 569 182 569 175 564 c 0,13,14
 170 561 170 561 165 561 c 0,15,16
 159 561 159 561 154 567 c 2,17,-1
 64 695 l 2,0,1
EndSplineSet
EndChar

StartChar: a
Encoding: 97 97 68
Width: 572
GlyphClass: 2
Flags: W
LayerCount: 2
Fore
SplineSet
41 150 m 0,0,1
 41 220 41 220 94 265 c 128,-1,2
 147 310 147 310 241 310 c 2,3,-1
 346 310 l 2,4,5
 361 310 361 310 361 295 c 128,-1,6
 361 280 361 280 346 280 c 2,7,-1
 241 280 l 2,8,9
 155 280 155 280 113 244.5 c 128,-1,10
 71 209 71 209 71 150 c 128,-1,11
 71 91 71 91 109.5 55.5 c 128,-1,12
 148 20 148 20 221 20 c 0,13,14
 303 20 303 20 370 87 c 0,15,16
 399 116 399 116 421 155 c 1,17,-1
 421 345 l 2,18,19
 421 403 421 403 378 441.5 c 128,-1,20
 335 480 335 480 265 480 c 0,21,22
 162 480 162 480 106 405 c 0,23,24
 97 393 97 393 85 402 c 128,-1,25
 73 411 73 411 82 423 c 0,26,27
 109 457 109 457 157 483.5 c 128,-1,28
 205 510 205 510 265 510 c 0,29,30
 349 510 349 510 400 462.5 c 128,-1,31
 451 415 451 415 451 345 c 2,32,-1
 451 45 l 2,33,34
 451 30 451 30 466 30 c 2,35,-1
 536 30 l 2,36,37
 551 30 551 30 551 15 c 128,-1,38
 551 0 551 0 536 0 c 2,39,-1
 436 0 l 2,40,41
 421 0 421 0 421 15 c 2,42,-1
 421 71 l 2,43,44
 421 81 421 81 417 85 c 128,-1,45
 413 89 413 89 405 81 c 1,46,47
 381 49 381 49 332.5 19.5 c 128,-1,48
 284 -10 284 -10 221 -10 c 0,49,50
 134 -10 134 -10 87.5 34.5 c 128,-1,51
 41 79 41 79 41 150 c 0,0,1
EndSplineSet
EndChar

StartChar: b
Encoding: 98 98 69
Width: 599
GlyphClass: 2
Flags: W
LayerCount: 2
Fore
SplineSet
-4 685 m 128,-1,1
 -4 700 -4 700 11 700 c 2,2,-1
 111 700 l 2,3,4
 126 700 126 700 126 685 c 2,5,-1
 126 155 l 1,6,7
 148 116 148 116 177 87 c 0,8,9
 244 20 244 20 326 20 c 0,10,11
 411 20 411 20 463.5 81 c 128,-1,12
 516 142 516 142 516 255 c 0,13,14
 516 357 516 357 466.5 413.5 c 128,-1,15
 417 470 417 470 326 470 c 2,16,-1
 201 470 l 2,17,18
 186 470 186 470 186 485 c 128,-1,19
 186 500 186 500 201 500 c 2,20,-1
 326 500 l 2,21,22
 431 500 431 500 488.5 434.5 c 128,-1,23
 546 369 546 369 546 255 c 0,24,25
 546 129 546 129 486 59.5 c 128,-1,26
 426 -10 426 -10 326 -10 c 0,27,28
 263 -10 263 -10 214.5 19.5 c 128,-1,29
 166 49 166 49 142 81 c 1,30,31
 134 89 134 89 130 85 c 128,-1,32
 126 81 126 81 126 71 c 2,33,-1
 126 15 l 2,34,35
 126 0 126 0 111 0 c 128,-1,36
 96 0 96 0 96 15 c 2,37,-1
 96 655 l 2,38,39
 96 670 96 670 81 670 c 2,40,-1
 11 670 l 2,41,0
 -4 670 -4 670 -4 685 c 128,-1,1
EndSplineSet
EndChar

StartChar: c
Encoding: 99 99 70
Width: 549
GlyphClass: 2
Flags: W
LayerCount: 2
Fore
SplineSet
51 250 m 0,0,1
 51 365 51 365 114 437.5 c 128,-1,2
 177 510 177 510 271 510 c 0,3,4
 370 510 370 510 445 435 c 0,5,6
 454 427 454 427 457.5 431 c 128,-1,7
 461 435 461 435 461 445 c 2,8,-1
 461 485 l 2,9,10
 461 500 461 500 476 500 c 128,-1,11
 491 500 491 500 491 485 c 2,12,-1
 491 325 l 2,13,14
 491 310 491 310 476 310 c 128,-1,15
 461 310 461 310 461 325 c 2,16,-1
 461 375 l 1,17,18
 435 408 435 408 411 427 c 0,19,20
 346 480 346 480 271 480 c 0,21,22
 190 480 190 480 135.5 416 c 128,-1,23
 81 352 81 352 81 250 c 0,24,25
 81 145 81 145 138 82.5 c 128,-1,26
 195 20 195 20 286 20 c 0,27,28
 413 20 413 20 475 121 c 1,29,30
 483 132 483 132 494 123 c 1,31,32
 501 119 501 119 501 113 c 0,33,34
 501 108 501 108 496 100 c 0,35,36
 426 -10 426 -10 286 -10 c 0,37,38
 181 -10 181 -10 116 62 c 128,-1,39
 51 134 51 134 51 250 c 0,0,1
EndSplineSet
EndChar

StartChar: d
Encoding: 100 100 71
Width: 631
GlyphClass: 2
Flags: W
LayerCount: 2
Fore
SplineSet
50 255 m 0,0,1
 50 369 50 369 107.5 434.5 c 128,-1,2
 165 500 165 500 270 500 c 2,3,-1
 395 500 l 2,4,5
 410 500 410 500 410 485 c 128,-1,6
 410 470 410 470 395 470 c 2,7,-1
 270 470 l 2,8,9
 179 470 179 470 129.5 413.5 c 128,-1,10
 80 357 80 357 80 255 c 0,11,12
 80 142 80 142 132.5 81 c 128,-1,13
 185 20 185 20 270 20 c 0,14,15
 352 20 352 20 419 87 c 0,16,17
 448 116 448 116 470 155 c 1,18,-1
 470 655 l 2,19,20
 470 670 470 670 455 670 c 2,21,-1
 375 670 l 2,22,23
 360 670 360 670 360 685 c 128,-1,24
 360 700 360 700 375 700 c 2,25,-1
 485 700 l 2,26,27
 500 700 500 700 500 685 c 2,28,-1
 500 45 l 2,29,30
 500 30 500 30 515 30 c 2,31,-1
 585 30 l 2,32,33
 600 30 600 30 600 15 c 128,-1,34
 600 0 600 0 585 0 c 2,35,-1
 485 0 l 2,36,37
 470 0 470 0 470 15 c 2,38,-1
 470 71 l 2,39,40
 470 81 470 81 466 85 c 128,-1,41
 462 89 462 89 454 81 c 1,42,43
 430 49 430 49 381.5 19.5 c 128,-1,44
 333 -10 333 -10 270 -10 c 0,45,46
 170 -10 170 -10 110 59.5 c 128,-1,47
 50 129 50 129 50 255 c 0,0,1
EndSplineSet
EndChar

StartChar: e
Encoding: 101 101 72
Width: 567
GlyphClass: 2
Flags: W
LayerCount: 2
Fore
SplineSet
52 250 m 128,-1,1
 52 366 52 366 117 438 c 128,-1,2
 182 510 182 510 287 510 c 0,3,4
 390 510 390 510 456 444 c 128,-1,5
 522 378 522 378 522 285 c 2,6,-1
 522 270 l 2,7,8
 522 240 522 240 492 240 c 2,9,-1
 167 240 l 2,10,11
 152 240 152 240 152 255 c 128,-1,12
 152 270 152 270 167 270 c 2,13,-1
 477 270 l 2,14,15
 492 270 492 270 492 285 c 0,16,17
 492 365 492 365 433.5 422.5 c 128,-1,18
 375 480 375 480 287 480 c 0,19,20
 196 480 196 480 139 416.5 c 128,-1,21
 82 353 82 353 82 250 c 0,22,23
 82 145 82 145 139 82.5 c 128,-1,24
 196 20 196 20 287 20 c 0,25,26
 340 20 340 20 392 45.5 c 128,-1,27
 444 71 444 71 476 121 c 0,28,29
 484 132 484 132 495 123 c 1,30,31
 507 116 507 116 497 100 c 0,32,33
 464 48 464 48 408 19 c 128,-1,34
 352 -10 352 -10 287 -10 c 0,35,36
 182 -10 182 -10 117 62 c 128,-1,0
 52 134 52 134 52 250 c 128,-1,1
EndSplineSet
EndChar

StartChar: f
Encoding: 102 102 73
Width: 424
GlyphClass: 2
Flags: W
LayerCount: 2
Fore
SplineSet
36 15 m 128,-1,1
 36 30 36 30 51 30 c 2,2,-1
 121 30 l 2,3,4
 136 30 136 30 136 45 c 2,5,-1
 136 455 l 2,6,7
 136 470 136 470 121 470 c 2,8,-1
 51 470 l 2,9,10
 36 470 36 470 36 485 c 128,-1,11
 36 500 36 500 51 500 c 2,12,-1
 121 500 l 2,13,14
 136 500 136 500 136 515 c 2,15,-1
 136 525 l 2,16,17
 136 614 136 614 176 662 c 128,-1,18
 216 710 216 710 286 710 c 0,19,20
 353 710 353 710 394.5 667 c 128,-1,21
 436 624 436 624 436 555 c 0,22,23
 436 540 436 540 421 540 c 128,-1,24
 406 540 406 540 406 555 c 0,25,26
 406 612 406 612 373 646 c 128,-1,27
 340 680 340 680 286 680 c 0,28,29
 231 680 231 680 198.5 640.5 c 128,-1,30
 166 601 166 601 166 525 c 2,31,-1
 166 515 l 2,32,33
 166 500 166 500 181 500 c 2,34,-1
 301 500 l 2,35,36
 316 500 316 500 316 485 c 128,-1,37
 316 470 316 470 301 470 c 2,38,-1
 181 470 l 2,39,40
 166 470 166 470 166 455 c 2,41,-1
 166 45 l 2,42,43
 166 30 166 30 181 30 c 2,44,-1
 261 30 l 2,45,46
 276 30 276 30 276 15 c 128,-1,47
 276 0 276 0 261 0 c 2,48,-1
 51 0 l 2,49,0
 36 0 36 0 36 15 c 128,-1,1
EndSplineSet
EndChar

StartChar: g
Encoding: 103 103 74
Width: 612
GlyphClass: 2
Flags: W
LayerCount: 2
Fore
SplineSet
53 265 m 0,0,1
 53 377 53 377 113.5 443.5 c 128,-1,2
 174 510 174 510 273 510 c 0,3,4
 336 510 336 510 384.5 480.5 c 128,-1,5
 433 451 433 451 457 419 c 1,6,7
 465 411 465 411 469 415 c 128,-1,8
 473 419 473 419 473 429 c 2,9,-1
 473 485 l 2,10,11
 473 500 473 500 488 500 c 128,-1,12
 503 500 503 500 503 485 c 2,13,-1
 503 40 l 2,14,15
 503 -77 503 -77 443.5 -143.5 c 128,-1,16
 384 -210 384 -210 278 -210 c 0,17,18
 138 -210 138 -210 68 -100 c 0,19,20
 58 -84 58 -84 70 -77 c 1,21,22
 81 -68 81 -68 89 -79 c 1,23,24
 151 -180 151 -180 278 -180 c 0,25,26
 369 -180 369 -180 421 -122.5 c 128,-1,27
 473 -65 473 -65 473 40 c 2,28,-1
 473 345 l 1,29,30
 453 381 453 381 422 412 c 0,31,32
 354 480 354 480 273 480 c 0,33,34
 189 480 189 480 136 422 c 128,-1,35
 83 364 83 364 83 265 c 0,36,37
 83 177 83 177 133.5 123.5 c 128,-1,38
 184 70 184 70 273 70 c 2,39,-1
 398 70 l 2,40,41
 413 70 413 70 413 55 c 128,-1,42
 413 40 413 40 398 40 c 2,43,-1
 273 40 l 2,44,45
 170 40 170 40 111.5 102.5 c 128,-1,46
 53 165 53 165 53 265 c 0,0,1
EndSplineSet
EndChar

StartChar: h
Encoding: 104 104 75
Width: 651
GlyphClass: 2
Flags: W
LayerCount: 2
Fore
SplineSet
19 15 m 128,-1,1
 19 30 19 30 34 30 c 2,2,-1
 104 30 l 2,3,4
 119 30 119 30 119 45 c 2,5,-1
 119 655 l 2,6,7
 119 670 119 670 104 670 c 2,8,-1
 34 670 l 2,9,10
 19 670 19 670 19 685 c 128,-1,11
 19 700 19 700 34 700 c 2,12,-1
 134 700 l 2,13,14
 149 700 149 700 149 685 c 2,15,-1
 149 429 l 2,16,17
 149 419 149 419 153 415 c 128,-1,18
 157 411 157 411 165 419 c 0,19,20
 246 510 246 510 344 510 c 0,21,22
 436 510 436 510 487.5 458.5 c 128,-1,23
 539 407 539 407 539 310 c 2,24,-1
 539 45 l 2,25,26
 539 30 539 30 554 30 c 2,27,-1
 624 30 l 2,28,29
 639 30 639 30 639 15 c 128,-1,30
 639 0 639 0 624 0 c 2,31,-1
 414 0 l 2,32,33
 399 0 399 0 399 15 c 128,-1,34
 399 30 399 30 414 30 c 2,35,-1
 494 30 l 2,36,37
 509 30 509 30 509 45 c 2,38,-1
 509 310 l 2,39,40
 509 395 509 395 465 437.5 c 128,-1,41
 421 480 421 480 344 480 c 0,42,43
 269 480 269 480 201 412 c 0,44,45
 172 382 172 382 149 345 c 1,46,-1
 149 45 l 2,47,48
 149 30 149 30 164 30 c 2,49,-1
 244 30 l 2,50,51
 259 30 259 30 259 15 c 128,-1,52
 259 0 259 0 244 0 c 2,53,-1
 34 0 l 2,54,0
 19 0 19 0 19 15 c 128,-1,1
EndSplineSet
EndChar

StartChar: i
Encoding: 105 105 76
Width: 286
GlyphClass: 2
Flags: W
LayerCount: 2
Fore
SplineSet
37 15 m 128,-1,1
 37 30 37 30 52 30 c 2,2,-1
 122 30 l 2,3,4
 137 30 137 30 137 45 c 2,5,-1
 137 455 l 2,6,7
 137 470 137 470 122 470 c 2,8,-1
 52 470 l 2,9,10
 37 470 37 470 37 485 c 128,-1,11
 37 500 37 500 52 500 c 2,12,-1
 152 500 l 2,13,14
 167 500 167 500 167 485 c 2,15,-1
 167 45 l 2,16,17
 167 30 167 30 182 30 c 2,18,-1
 252 30 l 2,19,20
 267 30 267 30 267 15 c 128,-1,21
 267 0 267 0 252 0 c 2,22,-1
 52 0 l 2,23,0
 37 0 37 0 37 15 c 128,-1,1
107 620 m 128,-1,25
 107 637 107 637 118.5 648.5 c 128,-1,26
 130 660 130 660 147 660 c 128,-1,27
 164 660 164 660 175.5 648.5 c 128,-1,28
 187 637 187 637 187 620 c 128,-1,29
 187 603 187 603 175.5 591.5 c 128,-1,30
 164 580 164 580 147 580 c 128,-1,31
 130 580 130 580 118.5 591.5 c 128,-1,24
 107 603 107 603 107 620 c 128,-1,25
EndSplineSet
EndChar

StartChar: j
Encoding: 106 106 77
Width: 245
GlyphClass: 2
Flags: W
LayerCount: 2
Fore
SplineSet
-131 -65 m 0,0,1
 -131 -50 -131 -50 -116 -50 c 128,-1,2
 -101 -50 -101 -50 -101 -65 c 0,3,4
 -101 -116 -101 -116 -69.5 -148 c 128,-1,5
 -38 -180 -38 -180 9 -180 c 0,6,7
 57 -180 57 -180 88 -143 c 128,-1,8
 119 -106 119 -106 119 -35 c 2,9,-1
 119 455 l 2,10,11
 119 470 119 470 104 470 c 2,12,-1
 34 470 l 2,13,14
 19 470 19 470 19 485 c 128,-1,15
 19 500 19 500 34 500 c 2,16,-1
 134 500 l 2,17,18
 149 500 149 500 149 485 c 2,19,-1
 149 -35 l 2,20,21
 149 -119 149 -119 110 -164.5 c 128,-1,22
 71 -210 71 -210 9 -210 c 0,23,24
 -51 -210 -51 -210 -91 -169 c 128,-1,25
 -131 -128 -131 -128 -131 -65 c 0,0,1
89 620 m 128,-1,27
 89 637 89 637 100.5 648.5 c 128,-1,28
 112 660 112 660 129 660 c 128,-1,29
 146 660 146 660 157.5 648.5 c 128,-1,30
 169 637 169 637 169 620 c 128,-1,31
 169 603 169 603 157.5 591.5 c 128,-1,32
 146 580 146 580 129 580 c 128,-1,33
 112 580 112 580 100.5 591.5 c 128,-1,26
 89 603 89 603 89 620 c 128,-1,27
EndSplineSet
EndChar

StartChar: k
Encoding: 107 107 78
Width: 581
GlyphClass: 2
Flags: W
LayerCount: 2
Fore
SplineSet
19 15 m 128,-1,1
 19 30 19 30 34 30 c 2,2,-1
 104 30 l 2,3,4
 119 30 119 30 119 45 c 2,5,-1
 119 655 l 2,6,7
 119 670 119 670 104 670 c 2,8,-1
 34 670 l 2,9,10
 19 670 19 670 19 685 c 128,-1,11
 19 700 19 700 34 700 c 2,12,-1
 134 700 l 2,13,14
 149 700 149 700 149 685 c 2,15,-1
 149 193 l 1,16,-1
 389 455 l 1,17,18
 395 460 395 460 393.5 465 c 128,-1,19
 392 470 392 470 384 470 c 2,20,-1
 299 470 l 2,21,22
 284 470 284 470 284 485 c 128,-1,23
 284 500 284 500 299 500 c 2,24,-1
 524 500 l 2,25,26
 539 500 539 500 539 485 c 128,-1,27
 539 470 539 470 524 470 c 2,28,-1
 460 470 l 2,29,30
 449 470 449 470 434 455 c 2,31,-1
 284 292 l 1,32,-1
 464 45 l 1,33,34
 477 30 477 30 489 30 c 2,35,-1
 554 30 l 2,36,37
 569 30 569 30 569 15 c 128,-1,38
 569 0 569 0 554 0 c 2,39,-1
 334 0 l 2,40,41
 319 0 319 0 319 15 c 128,-1,42
 319 30 319 30 334 30 c 2,43,-1
 419 30 l 2,44,45
 437 30 437 30 424 45 c 1,46,-1
 262 268 l 1,47,-1
 149 144 l 1,48,-1
 149 45 l 2,49,50
 149 30 149 30 164 30 c 2,51,-1
 244 30 l 2,52,53
 259 30 259 30 259 15 c 128,-1,54
 259 0 259 0 244 0 c 2,55,-1
 34 0 l 2,56,0
 19 0 19 0 19 15 c 128,-1,1
EndSplineSet
EndChar

StartChar: l
Encoding: 108 108 79
Width: 268
GlyphClass: 2
Flags: W
LayerCount: 2
Fore
SplineSet
19 15 m 128,-1,1
 19 30 19 30 34 30 c 2,2,-1
 104 30 l 2,3,4
 119 30 119 30 119 45 c 2,5,-1
 119 655 l 2,6,7
 119 670 119 670 104 670 c 2,8,-1
 34 670 l 2,9,10
 19 670 19 670 19 685 c 128,-1,11
 19 700 19 700 34 700 c 2,12,-1
 134 700 l 2,13,14
 149 700 149 700 149 685 c 2,15,-1
 149 45 l 2,16,17
 149 30 149 30 164 30 c 2,18,-1
 234 30 l 2,19,20
 249 30 249 30 249 15 c 128,-1,21
 249 0 249 0 234 0 c 2,22,-1
 34 0 l 2,23,0
 19 0 19 0 19 15 c 128,-1,1
EndSplineSet
EndChar

StartChar: m
Encoding: 109 109 80
Width: 959
GlyphClass: 2
Flags: W
LayerCount: 2
Fore
SplineSet
36 15 m 128,-1,1
 36 30 36 30 51 30 c 2,2,-1
 121 30 l 2,3,4
 136 30 136 30 136 45 c 2,5,-1
 136 455 l 2,6,7
 136 470 136 470 121 470 c 2,8,-1
 51 470 l 2,9,10
 36 470 36 470 36 485 c 128,-1,11
 36 500 36 500 51 500 c 2,12,-1
 151 500 l 2,13,14
 166 500 166 500 166 485 c 2,15,-1
 166 429 l 2,16,17
 166 418 166 418 169.5 414 c 128,-1,18
 173 410 173 410 182 419 c 0,19,20
 260 510 260 510 336 510 c 0,21,22
 394 510 394 510 437 477 c 128,-1,23
 480 444 480 444 497 382 c 1,24,25
 517 417 517 417 545 446 c 0,26,27
 607 510 607 510 676 510 c 0,28,29
 751 510 751 510 798.5 457.5 c 128,-1,30
 846 405 846 405 846 310 c 2,31,-1
 846 45 l 2,32,33
 846 30 846 30 861 30 c 2,34,-1
 931 30 l 2,35,36
 946 30 946 30 946 15 c 128,-1,37
 946 0 946 0 931 0 c 2,38,-1
 711 0 l 2,39,40
 696 0 696 0 696 15 c 128,-1,41
 696 30 696 30 711 30 c 2,42,-1
 801 30 l 2,43,44
 816 30 816 30 816 45 c 2,45,-1
 816 310 l 2,46,47
 816 392 816 392 776 436 c 128,-1,48
 736 480 736 480 676 480 c 0,49,50
 614 480 614 480 552 410 c 0,51,52
 524 378 524 378 504 340 c 1,53,54
 506 318 506 318 506 310 c 2,55,-1
 506 45 l 2,56,57
 506 30 506 30 521 30 c 2,58,-1
 611 30 l 2,59,60
 626 30 626 30 626 15 c 128,-1,61
 626 0 626 0 611 0 c 2,62,-1
 371 0 l 2,63,64
 356 0 356 0 356 15 c 128,-1,65
 356 30 356 30 371 30 c 2,66,-1
 461 30 l 2,67,68
 476 30 476 30 476 45 c 2,69,-1
 476 310 l 2,70,71
 476 392 476 392 436 436 c 128,-1,72
 396 480 396 480 336 480 c 0,73,74
 275 480 275 480 215 412 c 0,75,76
 189 383 189 383 166 345 c 1,77,-1
 166 45 l 2,78,79
 166 30 166 30 181 30 c 2,80,-1
 271 30 l 2,81,82
 286 30 286 30 286 15 c 128,-1,83
 286 0 286 0 271 0 c 2,84,-1
 51 0 l 2,85,0
 36 0 36 0 36 15 c 128,-1,1
EndSplineSet
EndChar

StartChar: n
Encoding: 110 110 81
Width: 668
GlyphClass: 2
Flags: W
LayerCount: 2
Fore
SplineSet
36 15 m 128,-1,1
 36 30 36 30 51 30 c 2,2,-1
 121 30 l 2,3,4
 136 30 136 30 136 45 c 2,5,-1
 136 455 l 2,6,7
 136 470 136 470 121 470 c 2,8,-1
 51 470 l 2,9,10
 36 470 36 470 36 485 c 128,-1,11
 36 500 36 500 51 500 c 2,12,-1
 151 500 l 2,13,14
 166 500 166 500 166 485 c 2,15,-1
 166 429 l 2,16,17
 166 419 166 419 170 415 c 128,-1,18
 174 411 174 411 182 419 c 0,19,20
 263 510 263 510 361 510 c 0,21,22
 453 510 453 510 504.5 458.5 c 128,-1,23
 556 407 556 407 556 310 c 2,24,-1
 556 45 l 2,25,26
 556 30 556 30 571 30 c 2,27,-1
 641 30 l 2,28,29
 656 30 656 30 656 15 c 128,-1,30
 656 0 656 0 641 0 c 2,31,-1
 431 0 l 2,32,33
 416 0 416 0 416 15 c 128,-1,34
 416 30 416 30 431 30 c 2,35,-1
 511 30 l 2,36,37
 526 30 526 30 526 45 c 2,38,-1
 526 310 l 2,39,40
 526 395 526 395 482 437.5 c 128,-1,41
 438 480 438 480 361 480 c 0,42,43
 286 480 286 480 218 412 c 0,44,45
 188 382 188 382 166 345 c 1,46,-1
 166 45 l 2,47,48
 166 30 166 30 181 30 c 2,49,-1
 261 30 l 2,50,51
 276 30 276 30 276 15 c 128,-1,52
 276 0 276 0 261 0 c 2,53,-1
 51 0 l 2,54,0
 36 0 36 0 36 15 c 128,-1,1
EndSplineSet
EndChar

StartChar: o
Encoding: 111 111 82
Width: 592
GlyphClass: 2
Flags: W
LayerCount: 2
Fore
SplineSet
51 250 m 128,-1,1
 51 366 51 366 119 438 c 128,-1,2
 187 510 187 510 296 510 c 128,-1,3
 405 510 405 510 473 438 c 128,-1,4
 541 366 541 366 541 250 c 128,-1,5
 541 134 541 134 473 62 c 128,-1,6
 405 -10 405 -10 296 -10 c 128,-1,7
 187 -10 187 -10 119 62 c 128,-1,0
 51 134 51 134 51 250 c 128,-1,1
81 250 m 0,8,9
 81 145 81 145 139.5 82.5 c 128,-1,10
 198 20 198 20 296 20 c 128,-1,11
 394 20 394 20 452.5 82.5 c 128,-1,12
 511 145 511 145 511 250 c 0,13,14
 511 354 511 354 452 417 c 128,-1,15
 393 480 393 480 296 480 c 128,-1,16
 199 480 199 480 140 417 c 128,-1,17
 81 354 81 354 81 250 c 0,8,9
EndSplineSet
EndChar

StartChar: p
Encoding: 112 112 83
Width: 622
GlyphClass: 2
Flags: W
LayerCount: 2
Fore
SplineSet
19 -185 m 128,-1,1
 19 -170 19 -170 34 -170 c 2,2,-1
 104 -170 l 2,3,4
 119 -170 119 -170 119 -155 c 2,5,-1
 119 455 l 2,6,7
 119 470 119 470 104 470 c 2,8,-1
 34 470 l 2,9,10
 19 470 19 470 19 485 c 128,-1,11
 19 500 19 500 34 500 c 2,12,-1
 134 500 l 2,13,14
 149 500 149 500 149 485 c 2,15,-1
 149 429 l 2,16,17
 149 419 149 419 153 415 c 128,-1,18
 157 411 157 411 165 419 c 1,19,20
 189 451 189 451 237.5 480.5 c 128,-1,21
 286 510 286 510 349 510 c 0,22,23
 449 510 449 510 509 440 c 128,-1,24
 569 370 569 370 569 245 c 0,25,26
 569 131 569 131 511.5 65.5 c 128,-1,27
 454 0 454 0 349 0 c 2,28,-1
 224 0 l 2,29,30
 209 0 209 0 209 15 c 128,-1,31
 209 30 209 30 224 30 c 2,32,-1
 349 30 l 2,33,34
 440 30 440 30 489.5 86.5 c 128,-1,35
 539 143 539 143 539 245 c 0,36,37
 539 358 539 358 486.5 419 c 128,-1,38
 434 480 434 480 349 480 c 0,39,40
 268 480 268 480 200 412 c 0,41,42
 169 381 169 381 149 345 c 1,43,-1
 149 -155 l 2,44,45
 149 -170 149 -170 164 -170 c 2,46,-1
 244 -170 l 2,47,48
 259 -170 259 -170 259 -185 c 128,-1,49
 259 -200 259 -200 244 -200 c 2,50,-1
 34 -200 l 2,51,0
 19 -200 19 -200 19 -185 c 128,-1,1
EndSplineSet
EndChar

StartChar: q
Encoding: 113 113 84
Width: 612
GlyphClass: 2
Flags: W
LayerCount: 2
Fore
SplineSet
53 245 m 0,0,1
 53 370 53 370 113 440 c 128,-1,2
 173 510 173 510 273 510 c 0,3,4
 336 510 336 510 384.5 480.5 c 128,-1,5
 433 451 433 451 457 419 c 1,6,7
 465 411 465 411 469 415 c 128,-1,8
 473 419 473 419 473 429 c 2,9,-1
 473 485 l 2,10,11
 473 500 473 500 488 500 c 128,-1,12
 503 500 503 500 503 485 c 2,13,-1
 503 -155 l 2,14,15
 503 -170 503 -170 518 -170 c 2,16,-1
 588 -170 l 2,17,18
 603 -170 603 -170 603 -185 c 128,-1,19
 603 -200 603 -200 588 -200 c 2,20,-1
 378 -200 l 2,21,22
 363 -200 363 -200 363 -185 c 128,-1,23
 363 -170 363 -170 378 -170 c 2,24,-1
 458 -170 l 2,25,26
 473 -170 473 -170 473 -155 c 2,27,-1
 473 345 l 1,28,29
 453 381 453 381 422 412 c 0,30,31
 354 480 354 480 273 480 c 0,32,33
 188 480 188 480 135.5 419 c 128,-1,34
 83 358 83 358 83 245 c 0,35,36
 83 143 83 143 132.5 86.5 c 128,-1,37
 182 30 182 30 273 30 c 2,38,-1
 398 30 l 2,39,40
 413 30 413 30 413 15 c 128,-1,41
 413 0 413 0 398 0 c 2,42,-1
 273 0 l 2,43,44
 168 0 168 0 110.5 65.5 c 128,-1,45
 53 131 53 131 53 245 c 0,0,1
EndSplineSet
EndChar

StartChar: r
Encoding: 114 114 85
Width: 517
GlyphClass: 2
Flags: W
LayerCount: 2
Fore
SplineSet
36 15 m 128,-1,1
 36 30 36 30 51 30 c 2,2,-1
 121 30 l 2,3,4
 136 30 136 30 136 45 c 2,5,-1
 136 455 l 2,6,7
 136 470 136 470 121 470 c 2,8,-1
 51 470 l 2,9,10
 36 470 36 470 36 485 c 128,-1,11
 36 500 36 500 51 500 c 2,12,-1
 151 500 l 2,13,14
 166 500 166 500 166 485 c 2,15,-1
 166 429 l 2,16,17
 166 419 166 419 170 415 c 128,-1,18
 174 411 174 411 182 419 c 1,19,20
 206 452 206 452 249.5 481 c 128,-1,21
 293 510 293 510 346 510 c 0,22,23
 415 510 415 510 455.5 471.5 c 128,-1,24
 496 433 496 433 496 375 c 0,25,26
 496 360 496 360 481 360 c 128,-1,27
 466 360 466 360 466 375 c 0,28,29
 466 421 466 421 434 450.5 c 128,-1,30
 402 480 402 480 346 480 c 0,31,32
 275 480 275 480 215 412 c 0,33,34
 189 383 189 383 166 345 c 1,35,-1
 166 45 l 2,36,37
 166 30 166 30 181 30 c 2,38,-1
 261 30 l 2,39,40
 276 30 276 30 276 15 c 128,-1,41
 276 0 276 0 261 0 c 2,42,-1
 51 0 l 2,43,0
 36 0 36 0 36 15 c 128,-1,1
EndSplineSet
EndChar

StartChar: s
Encoding: 115 115 86
Width: 534
GlyphClass: 2
Flags: W
LayerCount: 2
Fore
SplineSet
50 100 m 0,0,1
 45 107 45 107 45 113 c 128,-1,2
 45 119 45 119 52 123 c 1,3,4
 63 132 63 132 71 121 c 1,5,6
 101 71 101 71 155.5 45.5 c 128,-1,7
 210 20 210 20 270 20 c 0,8,9
 450 20 450 20 450 130 c 0,10,11
 450 174 450 174 410 197.5 c 128,-1,12
 370 221 370 221 312.5 230.5 c 128,-1,13
 255 240 255 240 197.5 251 c 128,-1,14
 140 262 140 262 100 293.5 c 128,-1,15
 60 325 60 325 60 380 c 0,16,17
 60 433 60 433 107 471.5 c 128,-1,18
 154 510 154 510 240 510 c 0,19,20
 339 510 339 510 414 435 c 0,21,22
 423 427 423 427 426.5 431 c 128,-1,23
 430 435 430 435 430 445 c 2,24,-1
 430 485 l 2,25,26
 430 500 430 500 445 500 c 128,-1,27
 460 500 460 500 460 485 c 2,28,-1
 460 325 l 2,29,30
 460 310 460 310 445 310 c 128,-1,31
 430 310 430 310 430 325 c 2,32,-1
 430 375 l 1,33,34
 404 408 404 408 380 427 c 0,35,36
 315 480 315 480 240 480 c 0,37,38
 169 480 169 480 129.5 450.5 c 128,-1,39
 90 421 90 421 90 380 c 0,40,41
 90 335 90 335 130 310 c 128,-1,42
 170 285 170 285 227.5 275 c 128,-1,43
 285 265 285 265 342.5 253.5 c 128,-1,44
 400 242 400 242 440 212 c 128,-1,45
 480 182 480 182 480 130 c 0,46,47
 480 66 480 66 428.5 28 c 128,-1,48
 377 -10 377 -10 270 -10 c 0,49,50
 120 -10 120 -10 50 100 c 0,0,1
EndSplineSet
EndChar

StartChar: t
Encoding: 116 116 87
Width: 413
GlyphClass: 2
Flags: W
LayerCount: 2
Fore
SplineSet
15 485 m 128,-1,1
 15 500 15 500 30 500 c 2,2,-1
 100 500 l 2,3,4
 115 500 115 500 115 515 c 2,5,-1
 115 685 l 2,6,7
 115 700 115 700 130 700 c 128,-1,8
 145 700 145 700 145 685 c 2,9,-1
 145 515 l 2,10,11
 145 500 145 500 160 500 c 2,12,-1
 310 500 l 2,13,14
 325 500 325 500 325 485 c 128,-1,15
 325 470 325 470 310 470 c 2,16,-1
 160 470 l 2,17,18
 145 470 145 470 145 455 c 2,19,-1
 145 175 l 2,20,21
 145 104 145 104 176 67 c 128,-1,22
 207 30 207 30 255 30 c 0,23,24
 301 30 301 30 333 62 c 128,-1,25
 365 94 365 94 365 145 c 0,26,27
 365 160 365 160 380 160 c 128,-1,28
 395 160 395 160 395 145 c 0,29,30
 395 82 395 82 355 41 c 128,-1,31
 315 0 315 0 255 0 c 0,32,33
 193 0 193 0 154 45.5 c 128,-1,34
 115 91 115 91 115 175 c 2,35,-1
 115 455 l 2,36,37
 115 470 115 470 100 470 c 2,38,-1
 30 470 l 2,39,0
 15 470 15 470 15 485 c 128,-1,1
EndSplineSet
EndChar

StartChar: u
Encoding: 117 117 88
Width: 650
GlyphClass: 2
Flags: W
LayerCount: 2
Fore
SplineSet
11 485 m 128,-1,1
 11 500 11 500 26 500 c 2,2,-1
 126 500 l 2,3,4
 141 500 141 500 141 485 c 2,5,-1
 141 190 l 2,6,7
 141 105 141 105 185 62.5 c 128,-1,8
 229 20 229 20 306 20 c 0,9,10
 381 20 381 20 448 87 c 0,11,12
 478 118 478 118 501 155 c 1,13,-1
 501 455 l 2,14,15
 501 470 501 470 486 470 c 2,16,-1
 406 470 l 2,17,18
 391 470 391 470 391 485 c 128,-1,19
 391 500 391 500 406 500 c 2,20,-1
 516 500 l 2,21,22
 531 500 531 500 531 485 c 2,23,-1
 531 45 l 2,24,25
 531 30 531 30 546 30 c 2,26,-1
 616 30 l 2,27,28
 631 30 631 30 631 15 c 128,-1,29
 631 0 631 0 616 0 c 2,30,-1
 516 0 l 2,31,32
 501 0 501 0 501 15 c 2,33,-1
 501 71 l 2,34,35
 501 81 501 81 497 85 c 128,-1,36
 493 89 493 89 485 81 c 0,37,38
 404 -10 404 -10 306 -10 c 0,39,40
 214 -10 214 -10 162.5 41.5 c 128,-1,41
 111 93 111 93 111 190 c 2,42,-1
 111 455 l 2,43,44
 111 470 111 470 96 470 c 2,45,-1
 26 470 l 2,46,0
 11 470 11 470 11 485 c 128,-1,1
EndSplineSet
EndChar

StartChar: v
Encoding: 118 118 89
Width: 624
GlyphClass: 2
Flags: W
LayerCount: 2
Fore
SplineSet
-1 485 m 128,-1,1
 -1 500 -1 500 14 500 c 2,2,-1
 224 500 l 2,3,4
 239 500 239 500 239 485 c 128,-1,5
 239 470 239 470 224 470 c 2,6,-1
 142 470 l 2,7,8
 124 470 124 470 132 455 c 1,9,-1
 306 48 l 2,10,11
 308 42 308 42 312 42 c 128,-1,12
 316 42 316 42 318 48 c 2,13,-1
 492 455 l 1,14,15
 500 470 500 470 482 470 c 2,16,-1
 400 470 l 2,17,18
 385 470 385 470 385 485 c 128,-1,19
 385 500 385 500 400 500 c 2,20,-1
 610 500 l 2,21,22
 625 500 625 500 625 485 c 128,-1,23
 625 470 625 470 610 470 c 2,24,-1
 545 470 l 2,25,26
 532 470 532 470 525 455 c 2,27,-1
 332 5 l 1,28,29
 324 -10 324 -10 312 -10 c 128,-1,30
 300 -10 300 -10 292 5 c 1,31,-1
 99 455 l 2,32,33
 92 470 92 470 79 470 c 2,34,-1
 14 470 l 2,35,0
 -1 470 -1 470 -1 485 c 128,-1,1
EndSplineSet
EndChar

StartChar: w
Encoding: 119 119 90
Width: 864
GlyphClass: 2
Flags: W
LayerCount: 2
Fore
SplineSet
-1 485 m 128,-1,1
 -1 500 -1 500 14 500 c 2,2,-1
 224 500 l 2,3,4
 239 500 239 500 239 485 c 128,-1,5
 239 470 239 470 224 470 c 2,6,-1
 144 470 l 2,7,8
 126 470 126 470 134 455 c 1,9,-1
 269 72 l 2,10,11
 271 66 271 66 275 66 c 128,-1,12
 279 66 279 66 281 72 c 2,13,-1
 412 485 l 2,14,15
 416 500 416 500 432 500 c 128,-1,16
 448 500 448 500 452 485 c 2,17,-1
 583 72 l 2,18,19
 585 66 585 66 589 66 c 128,-1,20
 593 66 593 66 595 72 c 2,21,-1
 730 455 l 1,22,23
 738 470 738 470 720 470 c 2,24,-1
 640 470 l 2,25,26
 625 470 625 470 625 485 c 128,-1,27
 625 500 625 500 640 500 c 2,28,-1
 850 500 l 2,29,30
 865 500 865 500 865 485 c 128,-1,31
 865 470 865 470 850 470 c 2,32,-1
 785 470 l 2,33,34
 770 470 770 470 765 455 c 2,35,-1
 606 5 l 1,36,37
 602 -10 602 -10 589 -10 c 128,-1,38
 576 -10 576 -10 572 5 c 2,39,-1
 442 415 l 2,40,41
 440 423 440 423 432 423 c 128,-1,42
 424 423 424 423 422 415 c 2,43,-1
 292 5 l 2,44,45
 288 -10 288 -10 275 -10 c 128,-1,46
 262 -10 262 -10 258 5 c 1,47,-1
 99 455 l 2,48,49
 94 470 94 470 79 470 c 2,50,-1
 14 470 l 2,51,0
 -1 470 -1 470 -1 485 c 128,-1,1
EndSplineSet
EndChar

StartChar: x
Encoding: 120 120 91
Width: 579
GlyphClass: 2
Flags: W
LayerCount: 2
Fore
SplineSet
22 15 m 128,-1,1
 22 30 22 30 37 30 c 2,2,-1
 97 30 l 2,3,4
 109 30 109 30 122 45 c 1,5,-1
 265 244 l 2,6,7
 271 253 271 253 265 262 c 2,8,-1
 127 455 l 1,9,10
 118 470 118 470 102 470 c 2,11,-1
 42 470 l 2,12,13
 27 470 27 470 27 485 c 128,-1,14
 27 500 27 500 42 500 c 2,15,-1
 252 500 l 2,16,17
 267 500 267 500 267 485 c 128,-1,18
 267 470 267 470 252 470 c 2,19,-1
 172 470 l 2,20,21
 164 470 164 470 160.5 465.5 c 128,-1,22
 157 461 157 461 162 455 c 2,23,-1
 282 288 l 2,24,25
 289 278 289 278 296 288 c 2,26,-1
 417 455 l 2,27,28
 422 461 422 461 418.5 465.5 c 128,-1,29
 415 470 415 470 407 470 c 2,30,-1
 327 470 l 2,31,32
 312 470 312 470 312 485 c 128,-1,33
 312 500 312 500 327 500 c 2,34,-1
 537 500 l 2,35,36
 552 500 552 500 552 485 c 128,-1,37
 552 470 552 470 537 470 c 2,38,-1
 477 470 l 2,39,40
 461 470 461 470 452 455 c 1,41,-1
 314 262 l 2,42,43
 308 253 308 253 314 244 c 2,44,-1
 457 45 l 1,45,46
 470 30 470 30 482 30 c 2,47,-1
 542 30 l 2,48,49
 557 30 557 30 557 15 c 128,-1,50
 557 0 557 0 542 0 c 2,51,-1
 332 0 l 2,52,53
 317 0 317 0 317 15 c 128,-1,54
 317 30 317 30 332 30 c 2,55,-1
 412 30 l 2,56,57
 420 30 420 30 423.5 34.5 c 128,-1,58
 427 39 427 39 422 45 c 2,59,-1
 296 219 l 2,60,61
 289 229 289 229 282 219 c 2,62,-1
 157 45 l 2,63,64
 152 39 152 39 155.5 34.5 c 128,-1,65
 159 30 159 30 167 30 c 2,66,-1
 247 30 l 2,67,68
 262 30 262 30 262 15 c 128,-1,69
 262 0 262 0 247 0 c 2,70,-1
 37 0 l 2,71,0
 22 0 22 0 22 15 c 128,-1,1
EndSplineSet
EndChar

StartChar: y
Encoding: 121 121 92
Width: 617
GlyphClass: 2
Flags: W
LayerCount: 2
Fore
SplineSet
-1 485 m 128,-1,1
 -1 500 -1 500 14 500 c 2,2,-1
 214 500 l 2,3,4
 229 500 229 500 229 485 c 128,-1,5
 229 470 229 470 214 470 c 2,6,-1
 142 470 l 2,7,8
 124 470 124 470 132 455 c 2,9,-1
 321 60 l 1,10,11
 326 47 326 47 332 60 c 2,12,-1
 485 455 l 1,13,14
 492 470 492 470 475 470 c 2,15,-1
 403 470 l 2,16,17
 388 470 388 470 388 485 c 128,-1,18
 388 500 388 500 403 500 c 2,19,-1
 603 500 l 2,20,21
 618 500 618 500 618 485 c 128,-1,22
 618 470 618 470 603 470 c 2,23,-1
 538 470 l 2,24,25
 526 470 526 470 518 455 c 1,26,-1
 328 -35 l 1,27,28
 292 -125 292 -125 256 -167.5 c 128,-1,29
 220 -210 220 -210 164 -210 c 0,30,31
 114 -210 114 -210 81.5 -178 c 128,-1,32
 49 -146 49 -146 49 -90 c 0,33,34
 49 -75 49 -75 64 -75 c 128,-1,35
 79 -75 79 -75 79 -90 c 0,36,37
 79 -131 79 -131 104 -155.5 c 128,-1,38
 129 -180 129 -180 164 -180 c 0,39,40
 207 -180 207 -180 237 -145.5 c 128,-1,41
 267 -111 267 -111 296 -35 c 2,42,-1
 306 -9 l 2,43,44
 310 4 310 4 306 15 c 1,45,-1
 99 455 l 2,46,47
 92 470 92 470 79 470 c 2,48,-1
 14 470 l 2,49,0
 -1 470 -1 470 -1 485 c 128,-1,1
EndSplineSet
EndChar

StartChar: z
Encoding: 122 122 93
Width: 538
GlyphClass: 2
Flags: W
LayerCount: 2
Fore
SplineSet
49 17 m 0,0,1
 49 26 49 26 61 40 c 2,2,-1
 429 454 l 1,3,4
 435 459 435 459 432 464.5 c 128,-1,5
 429 470 429 470 418 470 c 2,6,-1
 100 470 l 2,7,8
 85 470 85 470 85 455 c 2,9,-1
 85 360 l 2,10,11
 85 345 85 345 70 345 c 128,-1,12
 55 345 55 345 55 360 c 2,13,-1
 55 485 l 2,14,15
 55 500 55 500 70 500 c 2,16,-1
 473 500 l 2,17,18
 488 500 488 500 488 483 c 0,19,20
 488 474 488 474 476 460 c 2,21,-1
 108 46 l 1,22,23
 102 41 102 41 105 35.5 c 128,-1,24
 108 30 108 30 119 30 c 2,25,-1
 438 30 l 2,26,27
 453 30 453 30 453 45 c 2,28,-1
 453 140 l 2,29,30
 453 155 453 155 468 155 c 128,-1,31
 483 155 483 155 483 140 c 2,32,-1
 483 15 l 2,33,34
 483 0 483 0 468 0 c 2,35,-1
 64 0 l 2,36,37
 49 0 49 0 49 17 c 0,0,1
EndSplineSet
EndChar

StartChar: braceleft
Encoding: 123 123 94
Width: 324
GlyphClass: 2
Flags: W
LayerCount: 2
Fore
SplineSet
21 310 m 128,-1,1
 21 325 21 325 36 325 c 2,2,-1
 46 325 l 1,3,4
 141 327 141 327 141 425 c 2,5,-1
 141 650 l 2,6,7
 141 710 141 710 176 745 c 128,-1,8
 211 780 211 780 271 780 c 2,9,-1
 286 780 l 2,10,11
 301 780 301 780 301 765 c 128,-1,12
 301 750 301 750 286 750 c 2,13,-1
 271 750 l 2,14,15
 171 750 171 750 171 650 c 2,16,-1
 171 425 l 2,17,18
 171 337 171 337 101 310 c 1,19,20
 171 283 171 283 171 195 c 2,21,-1
 171 -30 l 2,22,23
 171 -130 171 -130 271 -130 c 2,24,-1
 286 -130 l 2,25,26
 301 -130 301 -130 301 -145 c 128,-1,27
 301 -160 301 -160 286 -160 c 2,28,-1
 271 -160 l 2,29,30
 211 -160 211 -160 176 -125 c 128,-1,31
 141 -90 141 -90 141 -30 c 2,32,-1
 141 195 l 2,33,34
 141 292 141 292 46 295 c 1,35,-1
 36 295 l 2,36,0
 21 295 21 295 21 310 c 128,-1,1
EndSplineSet
EndChar

StartChar: bar
Encoding: 124 124 95
Width: 246
GlyphClass: 2
Flags: W
LayerCount: 2
Fore
SplineSet
108 -185 m 2,0,-1
 108 685 l 2,1,2
 108 700 108 700 123 700 c 128,-1,3
 138 700 138 700 138 685 c 2,4,-1
 138 -185 l 2,5,6
 138 -200 138 -200 123 -200 c 128,-1,7
 108 -200 108 -200 108 -185 c 2,0,-1
EndSplineSet
EndChar

StartChar: braceright
Encoding: 125 125 96
Width: 324
GlyphClass: 2
Flags: W
LayerCount: 2
Fore
SplineSet
23 -145 m 128,-1,1
 23 -130 23 -130 38 -130 c 2,2,-1
 53 -130 l 2,3,4
 153 -130 153 -130 153 -30 c 2,5,-1
 153 195 l 2,6,7
 153 283 153 283 223 310 c 1,8,9
 153 337 153 337 153 425 c 2,10,-1
 153 650 l 2,11,12
 153 750 153 750 53 750 c 2,13,-1
 38 750 l 2,14,15
 23 750 23 750 23 765 c 128,-1,16
 23 780 23 780 38 780 c 2,17,-1
 53 780 l 2,18,19
 113 780 113 780 148 745 c 128,-1,20
 183 710 183 710 183 650 c 2,21,-1
 183 425 l 2,22,23
 183 327 183 327 278 325 c 1,24,-1
 288 325 l 2,25,26
 303 325 303 325 303 310 c 128,-1,27
 303 295 303 295 288 295 c 2,28,-1
 278 295 l 1,29,30
 183 292 183 292 183 195 c 2,31,-1
 183 -30 l 2,32,33
 183 -90 183 -90 148 -125 c 128,-1,34
 113 -160 113 -160 53 -160 c 2,35,-1
 38 -160 l 2,36,0
 23 -160 23 -160 23 -145 c 128,-1,1
EndSplineSet
EndChar

StartChar: asciitilde
Encoding: 126 126 97
Width: 524
GlyphClass: 2
Flags: W
LayerCount: 2
Fore
SplineSet
78 280 m 0,0,1
 78 380 78 380 178 380 c 0,2,3
 204 380 204 380 228.5 365 c 128,-1,4
 253 350 253 350 268.5 332.5 c 128,-1,5
 284 315 284 315 305.5 300 c 128,-1,6
 327 285 327 285 348 285 c 0,7,8
 418 285 418 285 418 355 c 0,9,10
 418 370 418 370 433 370 c 128,-1,11
 448 370 448 370 448 355 c 0,12,13
 448 255 448 255 348 255 c 0,14,15
 322 255 322 255 297.5 270 c 128,-1,16
 273 285 273 285 257.5 302.5 c 128,-1,17
 242 320 242 320 220.5 335 c 128,-1,18
 199 350 199 350 178 350 c 0,19,20
 108 350 108 350 108 280 c 0,21,22
 108 265 108 265 93 265 c 128,-1,23
 78 265 78 265 78 280 c 0,0,1
EndSplineSet
EndChar

StartChar: uni00A0
Encoding: 160 160 98
Width: 572
GlyphClass: 2
Flags: W
LayerCount: 2
Fore
SplineSet
41 150 m 0,0,1
 41 220 41 220 94 265 c 128,-1,2
 147 310 147 310 241 310 c 2,3,-1
 346 310 l 2,4,5
 361 310 361 310 361 295 c 128,-1,6
 361 280 361 280 346 280 c 2,7,-1
 241 280 l 2,8,9
 155 280 155 280 113 244.5 c 128,-1,10
 71 209 71 209 71 150 c 128,-1,11
 71 91 71 91 109.5 55.5 c 128,-1,12
 148 20 148 20 221 20 c 0,13,14
 303 20 303 20 370 87 c 0,15,16
 399 116 399 116 421 155 c 1,17,-1
 421 345 l 2,18,19
 421 403 421 403 378 441.5 c 128,-1,20
 335 480 335 480 265 480 c 0,21,22
 162 480 162 480 106 405 c 0,23,24
 97 393 97 393 85 402 c 128,-1,25
 73 411 73 411 82 423 c 0,26,27
 109 457 109 457 157 483.5 c 128,-1,28
 205 510 205 510 265 510 c 0,29,30
 349 510 349 510 400 462.5 c 128,-1,31
 451 415 451 415 451 345 c 2,32,-1
 451 45 l 2,33,34
 451 30 451 30 466 30 c 2,35,-1
 536 30 l 2,36,37
 551 30 551 30 551 15 c 128,-1,38
 551 0 551 0 536 0 c 2,39,-1
 436 0 l 2,40,41
 421 0 421 0 421 15 c 2,42,-1
 421 71 l 2,43,44
 421 81 421 81 417 85 c 128,-1,45
 413 89 413 89 405 81 c 1,46,47
 381 49 381 49 332.5 19.5 c 128,-1,48
 284 -10 284 -10 221 -10 c 0,49,50
 134 -10 134 -10 87.5 34.5 c 128,-1,51
 41 79 41 79 41 150 c 0,0,1
181 640 m 128,-1,53
 181 674 181 674 203.5 697 c 128,-1,54
 226 720 226 720 261 720 c 128,-1,55
 296 720 296 720 318.5 697 c 128,-1,56
 341 674 341 674 341 640 c 128,-1,57
 341 606 341 606 318.5 583 c 128,-1,58
 296 560 296 560 261 560 c 128,-1,59
 226 560 226 560 203.5 583 c 128,-1,52
 181 606 181 606 181 640 c 128,-1,53
211 640 m 128,-1,61
 211 617 211 617 224.5 603.5 c 128,-1,62
 238 590 238 590 261 590 c 128,-1,63
 284 590 284 590 297.5 603.5 c 128,-1,64
 311 617 311 617 311 640 c 128,-1,65
 311 663 311 663 297.5 676.5 c 128,-1,66
 284 690 284 690 261 690 c 128,-1,67
 238 690 238 690 224.5 676.5 c 128,-1,60
 211 663 211 663 211 640 c 128,-1,61
EndSplineSet
EndChar

StartChar: exclamdown
Encoding: 161 161 99
Width: 240
GlyphClass: 2
Flags: W
LayerCount: 2
Fore
SplineSet
70 460 m 128,-1,1
 70 483 70 483 83.5 496.5 c 128,-1,2
 97 510 97 510 120 510 c 128,-1,3
 143 510 143 510 156.5 496.5 c 128,-1,4
 170 483 170 483 170 460 c 128,-1,5
 170 437 170 437 156.5 423.5 c 128,-1,6
 143 410 143 410 120 410 c 128,-1,7
 97 410 97 410 83.5 423.5 c 128,-1,0
 70 437 70 437 70 460 c 128,-1,1
105 -185 m 2,8,-1
 105 315 l 2,9,10
 105 330 105 330 120 330 c 128,-1,11
 135 330 135 330 135 315 c 2,12,-1
 135 -185 l 2,13,14
 135 -200 135 -200 120 -200 c 128,-1,15
 105 -200 105 -200 105 -185 c 2,8,-1
EndSplineSet
EndChar

StartChar: cent
Encoding: 162 162 100
Width: 578
GlyphClass: 2
Flags: W
LayerCount: 2
Fore
SplineSet
57 250 m 0,0,1
 57 363 57 363 118 435.5 c 128,-1,2
 179 508 179 508 272 510 c 1,3,-1
 272 565 l 2,4,5
 272 580 272 580 287 580 c 128,-1,6
 302 580 302 580 302 565 c 2,7,-1
 302 508 l 1,8,9
 388 498 388 498 451 435 c 0,10,11
 460 427 460 427 463.5 431 c 128,-1,12
 467 435 467 435 467 445 c 2,13,-1
 467 485 l 2,14,15
 467 500 467 500 482 500 c 128,-1,16
 497 500 497 500 497 485 c 2,17,-1
 497 325 l 2,18,19
 497 310 497 310 482 310 c 128,-1,20
 467 310 467 310 467 325 c 2,21,-1
 467 375 l 1,22,23
 445 404 445 404 423 422 c 0,24,25
 368 469 368 469 302 478 c 1,26,-1
 302 20 l 1,27,28
 420 25 420 25 481 121 c 0,29,30
 489 132 489 132 500 123 c 1,31,32
 507 119 507 119 507 113 c 256,33,34
 507 107 507 107 502 100 c 0,35,36
 434 -6 434 -6 302 -10 c 1,37,-1
 302 -65 l 2,38,39
 302 -80 302 -80 287 -80 c 128,-1,40
 272 -80 272 -80 272 -65 c 2,41,-1
 272 -9 l 1,42,43
 175 -3 175 -3 116 68 c 128,-1,44
 57 139 57 139 57 250 c 0,0,1
87 250 m 0,45,46
 87 152 87 152 138.5 89.5 c 128,-1,47
 190 27 190 27 272 21 c 1,48,-1
 272 480 l 1,49,50
 193 478 193 478 140 415 c 128,-1,51
 87 352 87 352 87 250 c 0,45,46
EndSplineSet
EndChar

StartChar: sterling
Encoding: 163 163 101
Width: 578
GlyphClass: 2
Flags: W
LayerCount: 2
Fore
SplineSet
36 15 m 128,-1,1
 36 30 36 30 51 30 c 0,2,3
 99 30 99 30 130 67 c 128,-1,4
 161 104 161 104 161 175 c 2,5,-1
 161 325 l 2,6,7
 161 340 161 340 146 340 c 2,8,-1
 76 340 l 2,9,10
 61 340 61 340 61 355 c 128,-1,11
 61 370 61 370 76 370 c 2,12,-1
 146 370 l 2,13,14
 161 370 161 370 161 385 c 2,15,-1
 161 525 l 2,16,17
 161 614 161 614 201 662 c 128,-1,18
 241 710 241 710 311 710 c 0,19,20
 378 710 378 710 419.5 667 c 128,-1,21
 461 624 461 624 461 555 c 0,22,23
 461 540 461 540 446 540 c 128,-1,24
 431 540 431 540 431 555 c 0,25,26
 431 612 431 612 398 646 c 128,-1,27
 365 680 365 680 311 680 c 0,28,29
 256 680 256 680 223.5 640.5 c 128,-1,30
 191 601 191 601 191 525 c 2,31,-1
 191 385 l 2,32,33
 191 370 191 370 206 370 c 2,34,-1
 326 370 l 2,35,36
 341 370 341 370 341 355 c 128,-1,37
 341 340 341 340 326 340 c 2,38,-1
 206 340 l 2,39,40
 191 340 191 340 191 325 c 2,41,-1
 191 175 l 2,42,43
 191 74 191 74 136 30 c 1,44,-1
 401 30 l 2,45,46
 447 30 447 30 479 62 c 128,-1,47
 511 94 511 94 511 145 c 0,48,49
 511 160 511 160 526 160 c 128,-1,50
 541 160 541 160 541 145 c 0,51,52
 541 82 541 82 501 41 c 128,-1,53
 461 0 461 0 401 0 c 2,54,-1
 51 0 l 2,55,0
 36 0 36 0 36 15 c 128,-1,1
EndSplineSet
EndChar

StartChar: currency
Encoding: 164 164 102
Width: 653
GlyphClass: 2
Flags: W
LayerCount: 2
Fore
SplineSet
65 15 m 128,-1,1
 65 30 65 30 80 30 c 2,2,-1
 150 30 l 2,3,4
 165 30 165 30 165 45 c 2,5,-1
 165 180 l 2,6,7
 165 195 165 195 150 195 c 2,8,-1
 80 195 l 2,9,10
 65 195 65 195 65 210 c 128,-1,11
 65 225 65 225 80 225 c 2,12,-1
 150 225 l 2,13,14
 165 225 165 225 165 240 c 2,15,-1
 165 285 l 2,16,17
 165 300 165 300 150 300 c 2,18,-1
 80 300 l 2,19,20
 65 300 65 300 65 315 c 128,-1,21
 65 330 65 330 80 330 c 2,22,-1
 150 330 l 2,23,24
 165 330 165 330 165 345 c 2,25,-1
 165 655 l 2,26,27
 165 670 165 670 150 670 c 2,28,-1
 80 670 l 2,29,30
 65 670 65 670 65 685 c 128,-1,31
 65 700 65 700 80 700 c 2,32,-1
 415 700 l 2,33,34
 512 700 512 700 563.5 647.5 c 128,-1,35
 615 595 615 595 615 500 c 128,-1,36
 615 405 615 405 563.5 352.5 c 128,-1,37
 512 300 512 300 415 300 c 2,38,-1
 210 300 l 2,39,40
 195 300 195 300 195 285 c 2,41,-1
 195 240 l 2,42,43
 195 225 195 225 210 225 c 2,44,-1
 490 225 l 2,45,46
 505 225 505 225 505 210 c 128,-1,47
 505 195 505 195 490 195 c 2,48,-1
 210 195 l 2,49,50
 195 195 195 195 195 180 c 2,51,-1
 195 45 l 2,52,53
 195 30 195 30 210 30 c 2,54,-1
 280 30 l 2,55,56
 295 30 295 30 295 15 c 128,-1,57
 295 0 295 0 280 0 c 2,58,-1
 80 0 l 2,59,0
 65 0 65 0 65 15 c 128,-1,1
195 345 m 2,60,61
 195 330 195 330 210 330 c 2,62,-1
 415 330 l 2,63,64
 498 330 498 330 541.5 373.5 c 128,-1,65
 585 417 585 417 585 500 c 128,-1,66
 585 583 585 583 541.5 626.5 c 128,-1,67
 498 670 498 670 415 670 c 2,68,-1
 210 670 l 2,69,70
 195 670 195 670 195 655 c 2,71,-1
 195 345 l 2,60,61
EndSplineSet
EndChar

StartChar: yen
Encoding: 165 165 103
Width: 703
GlyphClass: 2
Flags: W
LayerCount: 2
Fore
SplineSet
28 685 m 128,-1,1
 28 700 28 700 43 700 c 2,2,-1
 243 700 l 2,3,4
 258 700 258 700 258 685 c 128,-1,5
 258 670 258 670 243 670 c 2,6,-1
 173 670 l 2,7,8
 165 670 165 670 162 665.5 c 128,-1,9
 159 661 159 661 163 655 c 2,10,-1
 344 339 l 1,11,12
 351 329 351 329 358 339 c 1,13,-1
 540 655 l 2,14,15
 544 661 544 661 541 665.5 c 128,-1,16
 538 670 538 670 530 670 c 2,17,-1
 460 670 l 2,18,19
 445 670 445 670 445 685 c 128,-1,20
 445 700 445 700 460 700 c 2,21,-1
 660 700 l 2,22,23
 675 700 675 700 675 685 c 128,-1,24
 675 670 675 670 660 670 c 2,25,-1
 600 670 l 2,26,27
 584 670 584 670 575 655 c 2,28,-1
 382 320 l 2,29,30
 374 305 374 305 392 305 c 2,31,-1
 507 305 l 2,32,33
 522 305 522 305 522 290 c 128,-1,34
 522 275 522 275 507 275 c 2,35,-1
 382 275 l 2,36,37
 367 275 367 275 367 260 c 2,38,-1
 367 200 l 2,39,40
 367 185 367 185 382 185 c 2,41,-1
 507 185 l 2,42,43
 522 185 522 185 522 170 c 128,-1,44
 522 155 522 155 507 155 c 2,45,-1
 382 155 l 2,46,47
 367 155 367 155 367 140 c 2,48,-1
 367 45 l 2,49,50
 367 30 367 30 382 30 c 2,51,-1
 452 30 l 2,52,53
 467 30 467 30 467 15 c 128,-1,54
 467 0 467 0 452 0 c 2,55,-1
 252 0 l 2,56,57
 237 0 237 0 237 15 c 128,-1,58
 237 30 237 30 252 30 c 2,59,-1
 322 30 l 2,60,61
 337 30 337 30 337 45 c 2,62,-1
 337 140 l 2,63,64
 337 155 337 155 322 155 c 2,65,-1
 197 155 l 2,66,67
 182 155 182 155 182 170 c 128,-1,68
 182 185 182 185 197 185 c 2,69,-1
 322 185 l 2,70,71
 337 185 337 185 337 200 c 2,72,-1
 337 260 l 2,73,74
 337 275 337 275 322 275 c 2,75,-1
 197 275 l 2,76,77
 182 275 182 275 182 290 c 128,-1,78
 182 305 182 305 197 305 c 2,79,-1
 312 305 l 2,80,81
 328 305 328 305 321 320 c 1,82,-1
 128 655 l 2,83,84
 119 670 119 670 103 670 c 2,85,-1
 43 670 l 2,86,0
 28 670 28 670 28 685 c 128,-1,1
EndSplineSet
EndChar

StartChar: brokenbar
Encoding: 166 166 104
Width: 256
GlyphClass: 2
Flags: W
LayerCount: 2
Fore
SplineSet
113 165 m 2,0,1
 113 180 113 180 128 180 c 128,-1,2
 143 180 143 180 143 165 c 2,3,-1
 143 -185 l 2,4,5
 143 -200 143 -200 128 -200 c 128,-1,6
 113 -200 113 -200 113 -185 c 2,7,-1
 113 165 l 2,0,1
113 335 m 2,8,-1
 113 685 l 2,9,10
 113 700 113 700 128 700 c 128,-1,11
 143 700 143 700 143 685 c 2,12,-1
 143 335 l 2,13,14
 143 320 143 320 128 320 c 128,-1,15
 113 320 113 320 113 335 c 2,8,-1
EndSplineSet
EndChar

StartChar: section
Encoding: 167 167 105
Width: 582
GlyphClass: 2
Flags: W
LayerCount: 2
Fore
SplineSet
63 260 m 0,0,1
 63 371 63 371 169 399 c 1,2,3
 181 404 181 404 169 409 c 0,4,5
 120 429 120 429 94.5 459 c 128,-1,6
 69 489 69 489 69 540 c 0,7,8
 69 617 69 617 123.5 658.5 c 128,-1,9
 178 700 178 700 289 700 c 0,10,11
 439 700 439 700 509 590 c 0,12,13
 519 574 519 574 507 567 c 1,14,15
 496 558 496 558 488 569 c 0,16,17
 456 620 456 620 402.5 645 c 128,-1,18
 349 670 349 670 289 670 c 0,19,20
 99 670 99 670 99 540 c 0,21,22
 99 491 99 491 142.5 460.5 c 128,-1,23
 186 430 186 430 248 415 c 1,24,-1
 371 383 l 2,25,26
 432 367 432 367 475.5 331.5 c 128,-1,27
 519 296 519 296 519 240 c 0,28,29
 519 129 519 129 413 101 c 1,30,31
 401 96 401 96 413 91 c 0,32,33
 462 71 462 71 487.5 41 c 128,-1,34
 513 11 513 11 513 -40 c 0,35,36
 513 -117 513 -117 458.5 -158.5 c 128,-1,37
 404 -200 404 -200 293 -200 c 0,38,39
 143 -200 143 -200 73 -90 c 0,40,41
 63 -74 63 -74 75 -67 c 1,42,43
 86 -58 86 -58 94 -69 c 1,44,45
 124 -119 124 -119 178.5 -144.5 c 128,-1,46
 233 -170 233 -170 293 -170 c 0,47,48
 483 -170 483 -170 483 -40 c 0,49,50
 483 9 483 9 439.5 39.5 c 128,-1,51
 396 70 396 70 335 85 c 2,52,-1
 212 117 l 2,53,54
 150 133 150 133 106.5 168.5 c 128,-1,55
 63 204 63 204 63 260 c 0,0,1
93 260 m 0,56,57
 93 241 93 241 99 225 c 128,-1,58
 105 209 105 209 121 196.5 c 128,-1,59
 137 184 137 184 149.5 176 c 128,-1,60
 162 168 162 168 189.5 158.5 c 128,-1,61
 217 149 217 149 231.5 145 c 128,-1,62
 246 141 246 141 281 132 c 128,-1,63
 316 123 316 123 329 120 c 1,64,65
 409 120 409 120 449 152 c 128,-1,66
 489 184 489 184 489 240 c 0,67,68
 489 259 489 259 482.5 275 c 128,-1,69
 476 291 476 291 461.5 303 c 128,-1,70
 447 315 447 315 432.5 324 c 128,-1,71
 418 333 418 333 393 341 c 128,-1,72
 368 349 368 349 350 354 c 2,73,-1
 301 367 l 2,74,75
 270 375 270 375 253 380 c 1,76,77
 173 380 173 380 133 348 c 128,-1,78
 93 316 93 316 93 260 c 0,56,57
EndSplineSet
EndChar

StartChar: dieresis
Encoding: 168 168 106
Width: 240
GlyphClass: 2
Flags: W
LayerCount: 2
Fore
SplineSet
0 600 m 128,-1,1
 0 617 0 617 11.5 628.5 c 128,-1,2
 23 640 23 640 40 640 c 128,-1,3
 57 640 57 640 68.5 628.5 c 128,-1,4
 80 617 80 617 80 600 c 128,-1,5
 80 583 80 583 68.5 571.5 c 128,-1,6
 57 560 57 560 40 560 c 128,-1,7
 23 560 23 560 11.5 571.5 c 128,-1,0
 0 583 0 583 0 600 c 128,-1,1
160 600 m 128,-1,9
 160 617 160 617 171.5 628.5 c 128,-1,10
 183 640 183 640 200 640 c 128,-1,11
 217 640 217 640 228.5 628.5 c 128,-1,12
 240 617 240 617 240 600 c 128,-1,13
 240 583 240 583 228.5 571.5 c 128,-1,14
 217 560 217 560 200 560 c 128,-1,15
 183 560 183 560 171.5 571.5 c 128,-1,8
 160 583 160 583 160 600 c 128,-1,9
EndSplineSet
EndChar

StartChar: copyright
Encoding: 169 169 107
Width: 878
GlyphClass: 2
Flags: W
LayerCount: 2
Fore
SplineSet
54 350 m 128,-1,1
 54 517 54 517 165.5 628.5 c 128,-1,2
 277 740 277 740 439 740 c 128,-1,3
 601 740 601 740 712.5 628.5 c 128,-1,4
 824 517 824 517 824 350 c 128,-1,5
 824 183 824 183 712.5 71.5 c 128,-1,6
 601 -40 601 -40 439 -40 c 128,-1,7
 277 -40 277 -40 165.5 71.5 c 128,-1,0
 54 183 54 183 54 350 c 128,-1,1
84 350 m 128,-1,9
 84 192 84 192 184.5 91 c 128,-1,10
 285 -10 285 -10 439 -10 c 128,-1,11
 593 -10 593 -10 693.5 91 c 128,-1,12
 794 192 794 192 794 350 c 128,-1,13
 794 508 794 508 693.5 609 c 128,-1,14
 593 710 593 710 439 710 c 128,-1,15
 285 710 285 710 184.5 609 c 128,-1,8
 84 508 84 508 84 350 c 128,-1,9
229 350 m 0,16,17
 229 458 229 458 285.5 524 c 128,-1,18
 342 590 342 590 429 590 c 2,19,-1
 424 590 l 2,20,21
 508 590 508 590 578 520 c 1,22,23
 587 513 587 513 590.5 516.5 c 128,-1,24
 594 520 594 520 594 530 c 2,25,-1
 594 570 l 2,26,27
 594 585 594 585 609 585 c 128,-1,28
 624 585 624 585 624 570 c 2,29,-1
 624 420 l 2,30,31
 624 405 624 405 609 405 c 128,-1,32
 594 405 594 405 594 420 c 2,33,-1
 594 460 l 1,34,35
 576 482 576 482 545 510 c 1,36,37
 483 560 483 560 429 560 c 0,38,39
 355 560 355 560 307 503 c 128,-1,40
 259 446 259 446 259 350 c 0,41,42
 259 253 259 253 310 196.5 c 128,-1,43
 361 140 361 140 444 140 c 0,44,45
 551 140 551 140 613 241 c 1,46,47
 621 252 621 252 632 243 c 1,48,49
 639 239 639 239 639 233 c 256,50,51
 639 227 639 227 634 220 c 0,52,53
 564 110 564 110 444 110 c 0,54,55
 347 110 347 110 288 175.5 c 128,-1,56
 229 241 229 241 229 350 c 0,16,17
EndSplineSet
EndChar

StartChar: ordfeminine
Encoding: 170 170 108
Width: 420
GlyphClass: 2
Flags: W
LayerCount: 2
Fore
SplineSet
60 480 m 0,0,1
 60 526 60 526 90.5 553 c 128,-1,2
 121 580 121 580 180 580 c 2,3,-1
 220 580 l 2,4,5
 235 580 235 580 235 565 c 128,-1,6
 235 550 235 550 220 550 c 2,7,-1
 180 550 l 2,8,9
 136 550 136 550 113 530.5 c 128,-1,10
 90 511 90 511 90 480 c 0,11,12
 90 452 90 452 112.5 433.5 c 128,-1,13
 135 415 135 415 175 415 c 0,14,15
 207 415 207 415 241 442 c 0,16,17
 259 456 259 456 270 470 c 1,18,-1
 270 599 l 2,19,20
 270 675 270 675 190 675 c 0,21,22
 137 675 137 675 102 638 c 0,23,24
 92 628 92 628 81 638 c 128,-1,25
 70 648 70 648 81 659 c 1,26,27
 97 679 97 679 127 692 c 128,-1,28
 157 705 157 705 190 705 c 0,29,30
 242 705 242 705 271 675.5 c 128,-1,31
 300 646 300 646 300 599 c 2,32,-1
 300 435 l 2,33,34
 300 420 300 420 315 420 c 2,35,-1
 335 420 l 2,36,37
 350 420 350 420 350 405 c 128,-1,38
 350 390 350 390 335 390 c 2,39,-1
 285 390 l 2,40,41
 270 390 270 390 270 405 c 2,42,-1
 270 430 l 1,43,44
 259 419 259 419 242 407 c 1,45,46
 204 385 204 385 170 385 c 0,47,48
 121 385 121 385 90.5 410.5 c 128,-1,49
 60 436 60 436 60 480 c 0,0,1
EndSplineSet
EndChar

StartChar: guillemotleft
Encoding: 171 171 109
Width: 499
GlyphClass: 2
Flags: W
LayerCount: 2
Fore
SplineSet
47 265 m 2,0,-1
 278 495 l 2,1,2
 283 500 283 500 288 500 c 128,-1,3
 293 500 293 500 299 495 c 0,4,5
 310 484 310 484 299 474 c 2,6,-1
 83 258 l 2,7,8
 74 249 74 249 83 240 c 2,9,-1
 297 26 l 2,10,11
 308 16 308 16 297 5 c 0,12,13
 291 0 291 0 286 0 c 128,-1,14
 281 0 281 0 276 5 c 2,15,-1
 48 232 l 2,16,17
 39 241 39 241 39 249 c 256,18,19
 39 257 39 257 47 265 c 2,0,-1
217 265 m 2,20,-1
 403 450 l 2,21,22
 408 455 408 455 413.5 455 c 128,-1,23
 419 455 419 455 424 450 c 128,-1,24
 429 445 429 445 429 439.5 c 128,-1,25
 429 434 429 434 424 429 c 2,26,-1
 253 258 l 2,27,28
 244 249 244 249 253 240 c 2,29,-1
 422 71 l 2,30,31
 427 66 427 66 427 60.5 c 128,-1,32
 427 55 427 55 422 50 c 128,-1,33
 417 45 417 45 411.5 45 c 128,-1,34
 406 45 406 45 401 50 c 2,35,-1
 218 232 l 2,36,37
 209 241 209 241 209 249 c 256,38,39
 209 257 209 257 217 265 c 2,20,-1
EndSplineSet
EndChar

StartChar: logicalnot
Encoding: 172 172 110
Width: 592
GlyphClass: 2
Flags: W
LayerCount: 2
Fore
SplineSet
92 330 m 128,-1,1
 92 345 92 345 107 345 c 2,2,-1
 497 345 l 2,3,4
 512 345 512 345 512 330 c 2,5,-1
 512 225 l 2,6,7
 512 210 512 210 497 210 c 128,-1,8
 482 210 482 210 482 225 c 2,9,-1
 482 300 l 2,10,11
 482 315 482 315 467 315 c 2,12,-1
 107 315 l 2,13,0
 92 315 92 315 92 330 c 128,-1,1
EndSplineSet
EndChar

StartChar: uni00AD
Encoding: 173 173 111
Width: 572
GlyphClass: 2
Flags: W
LayerCount: 2
Fore
SplineSet
76 320 m 128,-1,1
 76 335 76 335 91 335 c 2,2,-1
 481 335 l 2,3,4
 496 335 496 335 496 320 c 128,-1,5
 496 305 496 305 481 305 c 2,6,-1
 91 305 l 2,7,0
 76 305 76 305 76 320 c 128,-1,1
EndSplineSet
EndChar

StartChar: registered
Encoding: 174 174 112
Width: 878
GlyphClass: 2
Flags: W
LayerCount: 2
Fore
SplineSet
54 350 m 128,-1,1
 54 517 54 517 165.5 628.5 c 128,-1,2
 277 740 277 740 439 740 c 128,-1,3
 601 740 601 740 712.5 628.5 c 128,-1,4
 824 517 824 517 824 350 c 128,-1,5
 824 183 824 183 712.5 71.5 c 128,-1,6
 601 -40 601 -40 439 -40 c 128,-1,7
 277 -40 277 -40 165.5 71.5 c 128,-1,0
 54 183 54 183 54 350 c 128,-1,1
84 350 m 128,-1,9
 84 192 84 192 184.5 91 c 128,-1,10
 285 -10 285 -10 439 -10 c 128,-1,11
 593 -10 593 -10 693.5 91 c 128,-1,12
 794 192 794 192 794 350 c 128,-1,13
 794 508 794 508 693.5 609 c 128,-1,14
 593 710 593 710 439 710 c 128,-1,15
 285 710 285 710 184.5 609 c 128,-1,8
 84 508 84 508 84 350 c 128,-1,9
229 125 m 128,-1,17
 229 140 229 140 244 140 c 2,18,-1
 294 140 l 2,19,20
 309 140 309 140 309 155 c 2,21,-1
 309 535 l 2,22,23
 309 550 309 550 294 550 c 2,24,-1
 244 550 l 2,25,26
 229 550 229 550 229 565 c 128,-1,27
 229 580 229 580 244 580 c 2,28,-1
 484 580 l 2,29,30
 551 580 551 580 590 545 c 128,-1,31
 629 510 629 510 629 455 c 128,-1,32
 629 400 629 400 590 365 c 128,-1,33
 551 330 551 330 484 330 c 0,34,35
 476 330 476 330 472.5 325.5 c 128,-1,36
 469 321 469 321 474 315 c 2,37,-1
 578 155 l 1,38,39
 591 140 591 140 603 140 c 2,40,-1
 648 140 l 2,41,42
 663 140 663 140 663 125 c 128,-1,43
 663 110 663 110 648 110 c 2,44,-1
 483 110 l 2,45,46
 468 110 468 110 468 125 c 128,-1,47
 468 140 468 140 483 140 c 2,48,-1
 536 140 l 2,49,50
 554 140 554 140 541 155 c 1,51,-1
 427 330 l 1,52,-1
 394 330 l 2,53,54
 379 330 379 330 379 345 c 128,-1,55
 379 360 379 360 394 360 c 2,56,-1
 484 360 l 2,57,58
 538 360 538 360 568.5 387.5 c 128,-1,59
 599 415 599 415 599 455 c 128,-1,60
 599 495 599 495 568.5 522.5 c 128,-1,61
 538 550 538 550 484 550 c 2,62,-1
 354 550 l 2,63,64
 339 550 339 550 339 535 c 2,65,-1
 339 155 l 2,66,67
 339 140 339 140 354 140 c 2,68,-1
 404 140 l 2,69,70
 419 140 419 140 419 125 c 128,-1,71
 419 110 419 110 404 110 c 2,72,-1
 244 110 l 2,73,16
 229 110 229 110 229 125 c 128,-1,17
EndSplineSet
EndChar

StartChar: degree
Encoding: 176 176 113
Width: 440
GlyphClass: 2
Flags: W
LayerCount: 2
Fore
SplineSet
55 540 m 128,-1,1
 55 612 55 612 102 661 c 128,-1,2
 149 710 149 710 220 710 c 128,-1,3
 291 710 291 710 338 661 c 128,-1,4
 385 612 385 612 385 540 c 128,-1,5
 385 468 385 468 338 419 c 128,-1,6
 291 370 291 370 220 370 c 128,-1,7
 149 370 149 370 102 419 c 128,-1,0
 55 468 55 468 55 540 c 128,-1,1
85 540 m 128,-1,9
 85 480 85 480 124 440 c 128,-1,10
 163 400 163 400 220 400 c 128,-1,11
 277 400 277 400 316 440 c 128,-1,12
 355 480 355 480 355 540 c 128,-1,13
 355 600 355 600 316 640 c 128,-1,14
 277 680 277 680 220 680 c 128,-1,15
 163 680 163 680 124 640 c 128,-1,8
 85 600 85 600 85 540 c 128,-1,9
EndSplineSet
EndChar

StartChar: plusminus
Encoding: 177 177 114
Width: 511
GlyphClass: 2
Flags: W
LayerCount: 2
Fore
SplineSet
45 100 m 128,-1,1
 45 115 45 115 60 115 c 2,2,-1
 450 115 l 2,3,4
 465 115 465 115 465 100 c 128,-1,5
 465 85 465 85 450 85 c 2,6,-1
 60 85 l 2,7,0
 45 85 45 85 45 100 c 128,-1,1
45 320 m 128,-1,9
 45 335 45 335 60 335 c 2,10,-1
 220 335 l 2,11,12
 235 335 235 335 235 350 c 2,13,-1
 235 515 l 2,14,15
 235 530 235 530 250 530 c 128,-1,16
 265 530 265 530 265 515 c 2,17,-1
 265 350 l 2,18,19
 265 335 265 335 280 335 c 2,20,-1
 450 335 l 2,21,22
 465 335 465 335 465 320 c 128,-1,23
 465 305 465 305 450 305 c 2,24,-1
 280 305 l 2,25,26
 265 305 265 305 265 290 c 2,27,-1
 265 165 l 2,28,29
 265 150 265 150 250 150 c 128,-1,30
 235 150 235 150 235 165 c 2,31,-1
 235 290 l 2,32,33
 235 305 235 305 220 305 c 2,34,-1
 60 305 l 2,35,8
 45 305 45 305 45 320 c 128,-1,9
EndSplineSet
EndChar

StartChar: uni00B2
Encoding: 178 178 115
Width: 401
GlyphClass: 2
Flags: W
LayerCount: 2
Fore
SplineSet
75 405 m 2,0,-1
 75 435 l 2,1,2
 75 477 75 477 109.5 504 c 128,-1,3
 144 531 144 531 185 540.5 c 128,-1,4
 226 550 226 550 260.5 568.5 c 128,-1,5
 295 587 295 587 295 615 c 0,6,7
 295 675 295 675 195 675 c 0,8,9
 133 675 133 675 96 634 c 1,10,11
 88 621 88 621 75 634 c 0,12,13
 70 639 70 639 70 644 c 128,-1,14
 70 649 70 649 75 655 c 0,15,16
 125 705 125 705 195 705 c 0,17,18
 325 705 325 705 325 615 c 0,19,20
 325 583 325 583 302.5 562.5 c 128,-1,21
 280 542 280 542 248 531 c 1,22,-1
 182 511 l 2,23,24
 150 501 150 501 127.5 482.5 c 128,-1,25
 105 464 105 464 105 435 c 0,26,27
 105 420 105 420 120 420 c 2,28,-1
 280 420 l 2,29,30
 295 420 295 420 295 435 c 2,31,-1
 295 460 l 2,32,33
 295 475 295 475 310 475 c 128,-1,34
 325 475 325 475 325 460 c 2,35,-1
 325 405 l 2,36,37
 325 390 325 390 310 390 c 2,38,-1
 90 390 l 2,39,40
 75 390 75 390 75 405 c 2,0,-1
EndSplineSet
EndChar

StartChar: uni00B3
Encoding: 179 179 116
Width: 381
GlyphClass: 2
Flags: W
LayerCount: 2
Fore
SplineSet
71 435 m 0,0,1
 66 440 66 440 66 445.5 c 128,-1,2
 66 451 66 451 71 456 c 0,3,4
 82 466 82 466 92 456 c 0,5,6
 108 439 108 439 135.5 427 c 128,-1,7
 163 415 163 415 192 415 c 0,8,9
 287 415 287 415 287 470 c 0,10,11
 287 500 287 500 266 517.5 c 128,-1,12
 245 535 245 535 207 535 c 2,13,-1
 142 535 l 2,14,15
 127 535 127 535 127 550 c 0,16,17
 127 564 127 564 142 564 c 2,18,-1
 207 564 l 2,19,20
 277 564 277 564 277 620 c 0,21,22
 277 675 277 675 187 675 c 0,23,24
 129 675 129 675 94 638 c 0,25,26
 84 628 84 628 73 638 c 0,27,28
 67 643 67 643 67 648.5 c 128,-1,29
 67 654 67 654 73 659 c 1,30,31
 89 678 89 678 121.5 691.5 c 128,-1,32
 154 705 154 705 187 705 c 0,33,34
 246 705 246 705 276.5 682 c 128,-1,35
 307 659 307 659 307 620 c 0,36,37
 307 571 307 571 257 550 c 1,38,39
 317 528 317 528 317 470 c 0,40,41
 317 430 317 430 285.5 407.5 c 128,-1,42
 254 385 254 385 192 385 c 0,43,44
 156 385 156 385 122 400 c 128,-1,45
 88 415 88 415 71 435 c 0,0,1
EndSplineSet
EndChar

StartChar: acute
Encoding: 180 180 117
Width: 122
GlyphClass: 2
Flags: W
LayerCount: 2
Fore
SplineSet
4 584 m 2,0,-1
 93 711 l 1,1,2
 102 726 102 726 114 715 c 1,3,4
 127 708 127 708 118 695 c 2,5,-1
 28 567 l 1,6,7
 19 556 19 556 7 564 c 128,-1,8
 -5 572 -5 572 4 584 c 2,0,-1
EndSplineSet
EndChar

StartChar: uni00B5
Encoding: 181 181 118
Width: 688
GlyphClass: 2
Flags: W
LayerCount: 2
Fore
SplineSet
37 485 m 128,-1,1
 37 500 37 500 52 500 c 2,2,-1
 152 500 l 2,3,4
 167 500 167 500 167 485 c 2,5,-1
 167 181 l 2,6,7
 167 101 167 101 212 60.5 c 128,-1,8
 257 20 257 20 337 20 c 0,9,10
 411 20 411 20 477 90 c 0,11,12
 504 119 504 119 527 160 c 1,13,-1
 527 455 l 2,14,15
 527 470 527 470 512 470 c 2,16,-1
 442 470 l 2,17,18
 427 470 427 470 427 485 c 128,-1,19
 427 500 427 500 442 500 c 2,20,-1
 542 500 l 2,21,22
 557 500 557 500 557 485 c 2,23,-1
 557 45 l 2,24,25
 557 30 557 30 572 30 c 2,26,-1
 642 30 l 2,27,28
 657 30 657 30 657 15 c 128,-1,29
 657 0 657 0 642 0 c 2,30,-1
 542 0 l 2,31,32
 527 0 527 0 527 15 c 2,33,-1
 527 71 l 2,34,35
 527 81 527 81 523.5 85 c 128,-1,36
 520 89 520 89 511 81 c 1,37,38
 430 -10 430 -10 337 -10 c 0,39,40
 217 -10 217 -10 167 70 c 1,41,-1
 167 -185 l 2,42,43
 167 -200 167 -200 152 -200 c 128,-1,44
 137 -200 137 -200 137 -185 c 2,45,-1
 137 455 l 2,46,47
 137 470 137 470 122 470 c 2,48,-1
 52 470 l 2,49,0
 37 470 37 470 37 485 c 128,-1,1
EndSplineSet
EndChar

StartChar: paragraph
Encoding: 182 182 119
Width: 735
GlyphClass: 2
Flags: W
LayerCount: 2
Fore
SplineSet
37 460 m 128,-1,1
 37 575 37 575 104 637.5 c 128,-1,2
 171 700 171 700 282 700 c 2,3,-1
 687 700 l 2,4,5
 702 700 702 700 702 685 c 128,-1,6
 702 670 702 670 687 670 c 2,7,-1
 572 670 l 1,8,-1
 572 -185 l 2,9,10
 572 -200 572 -200 557 -200 c 128,-1,11
 542 -200 542 -200 542 -185 c 2,12,-1
 542 670 l 1,13,-1
 372 670 l 1,14,-1
 372 -185 l 2,15,16
 372 -200 372 -200 357 -200 c 128,-1,17
 342 -200 342 -200 342 -185 c 2,18,-1
 342 670 l 1,19,-1
 282 670 l 2,20,21
 181 670 181 670 124 616.5 c 128,-1,22
 67 563 67 563 67 460 c 128,-1,23
 67 357 67 357 124 303.5 c 128,-1,24
 181 250 181 250 282 250 c 0,25,26
 297 250 297 250 297 235 c 128,-1,27
 297 220 297 220 282 220 c 0,28,29
 171 220 171 220 104 282.5 c 128,-1,0
 37 345 37 345 37 460 c 128,-1,1
EndSplineSet
EndChar

StartChar: periodcentered
Encoding: 183 183 120
Width: 252
GlyphClass: 2
Flags: W
LayerCount: 2
Fore
SplineSet
76 350 m 128,-1,1
 76 373 76 373 89.5 386.5 c 128,-1,2
 103 400 103 400 126 400 c 128,-1,3
 149 400 149 400 162.5 386.5 c 128,-1,4
 176 373 176 373 176 350 c 128,-1,5
 176 327 176 327 162.5 313.5 c 128,-1,6
 149 300 149 300 126 300 c 128,-1,7
 103 300 103 300 89.5 313.5 c 128,-1,0
 76 327 76 327 76 350 c 128,-1,1
EndSplineSet
EndChar

StartChar: cedilla
Encoding: 184 184 121
Width: 115
GlyphClass: 2
Flags: W
LayerCount: 2
Fore
SplineSet
0 -165 m 128,-1,1
 0 -150 0 -150 15 -150 c 0,2,3
 85 -150 85 -150 85 -110 c 0,4,5
 85 -93 85 -93 72.5 -81.5 c 128,-1,6
 60 -70 60 -70 35 -70 c 2,7,-1
 20 -70 l 2,8,9
 5 -70 5 -70 5 -55 c 2,10,-1
 5 0 l 2,11,12
 5 15 5 15 20 15 c 128,-1,13
 35 15 35 15 35 0 c 2,14,-1
 35 -40 l 1,15,16
 72 -40 72 -40 93.5 -59.5 c 128,-1,17
 115 -79 115 -79 115 -110 c 0,18,19
 115 -142 115 -142 90.5 -161 c 128,-1,20
 66 -180 66 -180 15 -180 c 0,21,0
 0 -180 0 -180 0 -165 c 128,-1,1
EndSplineSet
EndChar

StartChar: uni00B9
Encoding: 185 185 122
Width: 309
GlyphClass: 2
Flags: W
LayerCount: 2
Fore
SplineSet
63 607 m 0,0,1
 58 613 58 613 58 618 c 0,2,3
 58 624 58 624 65 629 c 2,4,-1
 139 690 l 1,5,6
 160 705 160 705 166 705 c 0,7,8
 186 705 186 705 186 690 c 2,9,-1
 186 435 l 2,10,11
 186 420 186 420 201 420 c 2,12,-1
 241 420 l 2,13,14
 256 420 256 420 256 405 c 128,-1,15
 256 390 256 390 241 390 c 2,16,-1
 101 390 l 2,17,18
 86 390 86 390 86 405 c 128,-1,19
 86 420 86 420 101 420 c 2,20,-1
 141 420 l 2,21,22
 156 420 156 420 156 435 c 2,23,-1
 156 655 l 2,24,25
 156 658 156 658 154 659 c 128,-1,26
 152 660 152 660 149 659 c 128,-1,27
 146 658 146 658 142 655 c 2,28,-1
 85 606 l 2,29,30
 74 596 74 596 63 607 c 0,0,1
EndSplineSet
EndChar

StartChar: ordmasculine
Encoding: 186 186 123
Width: 396
GlyphClass: 2
Flags: W
LayerCount: 2
Fore
SplineSet
58 545 m 128,-1,1
 58 618 58 618 97.5 661.5 c 128,-1,2
 137 705 137 705 198 705 c 128,-1,3
 259 705 259 705 298.5 661.5 c 128,-1,4
 338 618 338 618 338 545 c 128,-1,5
 338 472 338 472 298.5 428.5 c 128,-1,6
 259 385 259 385 198 385 c 128,-1,7
 137 385 137 385 97.5 428.5 c 128,-1,0
 58 472 58 472 58 545 c 128,-1,1
88 545 m 128,-1,9
 88 483 88 483 118 449 c 128,-1,10
 148 415 148 415 198 415 c 128,-1,11
 248 415 248 415 278 449 c 128,-1,12
 308 483 308 483 308 545 c 128,-1,13
 308 607 308 607 278 641 c 128,-1,14
 248 675 248 675 198 675 c 128,-1,15
 148 675 148 675 118 641 c 128,-1,8
 88 607 88 607 88 545 c 128,-1,9
EndSplineSet
EndChar

StartChar: guillemotright
Encoding: 187 187 124
Width: 499
GlyphClass: 2
Flags: W
LayerCount: 2
Fore
SplineSet
75 429 m 2,0,1
 69 434 69 434 69 439.5 c 128,-1,2
 69 445 69 445 75 450 c 0,3,4
 86 460 86 460 96 450 c 2,5,-1
 282 265 l 2,6,7
 290 257 290 257 290 249 c 256,8,9
 290 241 290 241 281 232 c 2,10,-1
 98 50 l 2,11,12
 88 40 88 40 77 50 c 0,13,14
 71 55 71 55 71 60.5 c 128,-1,15
 71 66 71 66 77 71 c 2,16,-1
 246 240 l 2,17,18
 255 249 255 249 246 258 c 2,19,-1
 75 429 l 2,0,1
200 474 m 2,20,21
 195 479 195 479 195 484.5 c 128,-1,22
 195 490 195 490 200 495 c 128,-1,23
 205 500 205 500 210 500 c 128,-1,24
 215 500 215 500 221 495 c 2,25,-1
 452 265 l 2,26,27
 460 257 460 257 460 249 c 256,28,29
 460 241 460 241 451 232 c 2,30,-1
 223 5 l 2,31,32
 218 0 218 0 212.5 0 c 128,-1,33
 207 0 207 0 202 5 c 128,-1,34
 197 10 197 10 197 15.5 c 128,-1,35
 197 21 197 21 202 26 c 2,36,-1
 416 240 l 2,37,38
 425 249 425 249 416 258 c 2,39,-1
 200 474 l 2,20,21
EndSplineSet
EndChar

StartChar: onequarter
Encoding: 188 188 125
Width: 672
GlyphClass: 2
Flags: W
LayerCount: 2
Fore
SplineSet
49 608 m 0,0,1
 44 614 44 614 44 619 c 0,2,3
 44 625 44 625 51 630 c 2,4,-1
 125 691 l 1,5,6
 146 706 146 706 152 706 c 0,7,8
 172 706 172 706 172 691 c 2,9,-1
 172 436 l 2,10,11
 172 421 172 421 187 421 c 2,12,-1
 227 421 l 2,13,14
 242 421 242 421 242 406 c 128,-1,15
 242 391 242 391 227 391 c 2,16,-1
 87 391 l 2,17,18
 72 391 72 391 72 406 c 128,-1,19
 72 421 72 421 87 421 c 2,20,-1
 127 421 l 2,21,22
 142 421 142 421 142 436 c 2,23,-1
 142 656 l 2,24,25
 142 659 142 659 140 660 c 128,-1,26
 138 661 138 661 135 660 c 128,-1,27
 132 659 132 659 128 656 c 2,28,-1
 71 607 l 1,29,30
 60 596 60 596 49 608 c 0,0,1
104 23 m 2,31,-1
 537 692 l 2,32,33
 542 699 542 699 549 699 c 0,34,35
 553 699 553 699 557 697 c 0,36,37
 571 687 571 687 561 677 c 1,38,-1
 129 7 l 2,39,40
 121 -4 121 -4 109 2 c 0,41,42
 100 7 100 7 100 14 c 0,43,44
 100 18 100 18 104 23 c 2,31,-1
344 88 m 1,45,46
 344 91 344 91 344 93 c 0,47,48
 344 97 344 97 347 100 c 0,49,50
 397 143 397 143 422 188.5 c 128,-1,51
 447 234 447 234 447 305 c 0,52,53
 447 320 447 320 462 320 c 128,-1,54
 477 320 477 320 477 305 c 0,55,56
 477 240 477 240 455.5 189 c 128,-1,57
 434 138 434 138 402 110 c 1,58,-1
 532 110 l 2,59,60
 547 110 547 110 547 125 c 2,61,-1
 547 231 l 2,62,63
 547 246 547 246 562 246 c 128,-1,64
 577 246 577 246 577 231 c 2,65,-1
 577 125 l 2,66,67
 577 110 577 110 592 110 c 2,68,-1
 622 110 l 2,69,70
 637 110 637 110 637 95 c 128,-1,71
 637 80 637 80 622 80 c 2,72,-1
 592 80 l 2,73,74
 577 80 577 80 577 65 c 2,75,-1
 577 10 l 2,76,77
 577 -5 577 -5 562 -5 c 128,-1,78
 547 -5 547 -5 547 10 c 2,79,-1
 547 65 l 2,80,81
 547 80 547 80 532 80 c 2,82,-1
 357 80 l 2,83,84
 347 80 347 80 344 88 c 1,45,46
EndSplineSet
Ligature2: "'frac' Diagonal Fractions in Latin lookup 0 subtable" one slash four
EndChar

StartChar: onehalf
Encoding: 189 189 126
Width: 674
GlyphClass: 2
Flags: W
LayerCount: 2
Fore
SplineSet
44 608 m 0,0,1
 39 614 39 614 39 619 c 0,2,3
 39 625 39 625 46 630 c 2,4,-1
 120 691 l 1,5,6
 141 706 141 706 147 706 c 0,7,8
 167 706 167 706 167 691 c 2,9,-1
 167 436 l 2,10,11
 167 421 167 421 182 421 c 2,12,-1
 222 421 l 2,13,14
 237 421 237 421 237 406 c 128,-1,15
 237 391 237 391 222 391 c 2,16,-1
 82 391 l 2,17,18
 67 391 67 391 67 406 c 128,-1,19
 67 421 67 421 82 421 c 2,20,-1
 122 421 l 2,21,22
 137 421 137 421 137 436 c 2,23,-1
 137 656 l 2,24,25
 137 659 137 659 135 660 c 128,-1,26
 133 661 133 661 130 660 c 128,-1,27
 127 659 127 659 123 656 c 2,28,-1
 66 607 l 1,29,30
 56 596 56 596 44 608 c 0,0,1
99 23 m 2,31,-1
 532 692 l 2,32,33
 537 699 537 699 544 699 c 0,34,35
 548 699 548 699 552 697 c 0,36,37
 566 687 566 687 556 677 c 1,38,-1
 124 7 l 2,39,40
 119 0 119 0 112 0 c 0,41,42
 108 0 108 0 104 2 c 0,43,44
 95 7 95 7 95 14 c 0,45,46
 95 18 95 18 99 23 c 2,31,-1
375 15 m 2,47,-1
 375 45 l 2,48,49
 375 87 375 87 409.5 114 c 128,-1,50
 444 141 444 141 485 150.5 c 128,-1,51
 526 160 526 160 560.5 178.5 c 128,-1,52
 595 197 595 197 595 225 c 0,53,54
 595 285 595 285 495 285 c 0,55,56
 433 285 433 285 396 244 c 1,57,58
 388 231 388 231 375 244 c 0,59,60
 370 249 370 249 370 254.5 c 128,-1,61
 370 260 370 260 375 265 c 0,62,63
 425 315 425 315 495 315 c 0,64,65
 625 315 625 315 625 225 c 0,66,67
 625 193 625 193 602.5 172.5 c 128,-1,68
 580 152 580 152 548 142 c 2,69,-1
 483 121 l 2,70,71
 450 111 450 111 427.5 92.5 c 128,-1,72
 405 74 405 74 405 45 c 0,73,74
 405 30 405 30 420 30 c 2,75,-1
 580 30 l 2,76,77
 595 30 595 30 595 45 c 2,78,-1
 595 70 l 2,79,80
 595 85 595 85 610 85 c 128,-1,81
 625 85 625 85 625 70 c 2,82,-1
 625 15 l 2,83,84
 625 0 625 0 610 0 c 2,85,-1
 390 0 l 2,86,87
 375 0 375 0 375 15 c 2,47,-1
EndSplineSet
Ligature2: "'frac' Diagonal Fractions in Latin lookup 0 subtable" one slash two
EndChar

StartChar: threequarters
Encoding: 190 190 127
Width: 706
GlyphClass: 2
Flags: W
LayerCount: 2
Fore
SplineSet
54 435 m 0,0,1
 49 441 49 441 49 446 c 128,-1,2
 49 451 49 451 54 456 c 0,3,4
 64 466 64 466 75 456 c 1,5,6
 91 439 91 439 118.5 427 c 128,-1,7
 146 415 146 415 175 415 c 0,8,9
 270 415 270 415 270 470 c 0,10,11
 270 500 270 500 249 517.5 c 128,-1,12
 228 535 228 535 190 535 c 2,13,-1
 125 535 l 2,14,15
 110 535 110 535 110 550 c 0,16,17
 110 564 110 564 125 564 c 2,18,-1
 190 564 l 2,19,20
 260 564 260 564 260 620 c 0,21,22
 260 675 260 675 170 675 c 0,23,24
 112 675 112 675 77 638 c 1,25,26
 66 628 66 628 56 638 c 0,27,28
 51 643 51 643 51 648.5 c 128,-1,29
 51 654 51 654 56 659 c 0,30,31
 72 678 72 678 104.5 691.5 c 128,-1,32
 137 705 137 705 170 705 c 0,33,34
 229 705 229 705 259.5 682 c 128,-1,35
 290 659 290 659 290 620 c 0,36,37
 290 571 290 571 240 550 c 1,38,39
 300 528 300 528 300 470 c 0,40,41
 300 430 300 430 268.5 407.5 c 128,-1,42
 237 385 237 385 175 385 c 0,43,44
 139 385 139 385 105 400 c 128,-1,45
 71 415 71 415 54 435 c 0,0,1
138 23 m 2,46,-1
 571 692 l 2,47,48
 576 699 576 699 583 699 c 0,49,50
 587 699 587 699 591 697 c 0,51,52
 605 687 605 687 595 677 c 1,53,-1
 163 7 l 2,54,55
 155 -4 155 -4 143 2 c 0,56,57
 134 7 134 7 134 14 c 0,58,59
 134 18 134 18 138 23 c 2,46,-1
378 88 m 1,60,61
 378 91 378 91 378 93 c 0,62,63
 378 97 378 97 381 100 c 0,64,65
 431 143 431 143 456 188.5 c 128,-1,66
 481 234 481 234 481 305 c 0,67,68
 481 320 481 320 496 320 c 128,-1,69
 511 320 511 320 511 305 c 0,70,71
 511 240 511 240 489.5 189 c 128,-1,72
 468 138 468 138 436 110 c 1,73,-1
 566 110 l 2,74,75
 581 110 581 110 581 125 c 2,76,-1
 581 231 l 2,77,78
 581 246 581 246 596 246 c 128,-1,79
 611 246 611 246 611 231 c 2,80,-1
 611 125 l 2,81,82
 611 110 611 110 626 110 c 2,83,-1
 656 110 l 2,84,85
 671 110 671 110 671 95 c 128,-1,86
 671 80 671 80 656 80 c 2,87,-1
 626 80 l 2,88,89
 611 80 611 80 611 65 c 2,90,-1
 611 10 l 2,91,92
 611 -5 611 -5 596 -5 c 128,-1,93
 581 -5 581 -5 581 10 c 2,94,-1
 581 65 l 2,95,96
 581 80 581 80 566 80 c 2,97,-1
 391 80 l 2,98,99
 381 80 381 80 378 88 c 1,60,61
EndSplineSet
Ligature2: "'frac' Diagonal Fractions in Latin lookup 0 subtable" three slash four
EndChar

StartChar: questiondown
Encoding: 191 191 128
Width: 532
GlyphClass: 2
Flags: W
LayerCount: 2
Fore
SplineSet
40 -20 m 0,0,1
 40 -97 40 -97 101.5 -153.5 c 128,-1,2
 163 -210 163 -210 270 -210 c 0,3,4
 378 -210 378 -210 439 -155.5 c 128,-1,5
 500 -101 500 -101 500 -10 c 0,6,7
 500 5 500 5 485 5 c 128,-1,8
 470 5 470 5 470 -10 c 0,9,10
 470 -89 470 -89 416.5 -134.5 c 128,-1,11
 363 -180 363 -180 270 -180 c 0,12,13
 178 -180 178 -180 124 -132 c 128,-1,14
 70 -84 70 -84 70 -20 c 0,15,16
 70 27 70 27 92 61.5 c 128,-1,17
 114 96 114 96 146 119 c 2,18,-1
 210 165 l 1,19,20
 241 189 241 189 263 226.5 c 128,-1,21
 285 264 285 264 285 315 c 0,22,23
 285 330 285 330 270 330 c 128,-1,24
 255 330 255 330 255 315 c 0,25,26
 255 283 255 283 243 256.5 c 128,-1,27
 231 230 231 230 212 211.5 c 128,-1,28
 193 193 193 193 170 176 c 2,29,-1
 125 141 l 2,30,31
 102 123 102 123 83 102 c 128,-1,32
 64 81 64 81 52 50 c 128,-1,33
 40 19 40 19 40 -20 c 0,0,1
220 460 m 128,-1,35
 220 482 220 482 234 496 c 128,-1,36
 248 510 248 510 270 510 c 128,-1,37
 292 510 292 510 306 496 c 128,-1,38
 320 482 320 482 320 460 c 128,-1,39
 320 438 320 438 306 424 c 128,-1,40
 292 410 292 410 270 410 c 128,-1,41
 248 410 248 410 234 424 c 128,-1,34
 220 438 220 438 220 460 c 128,-1,35
EndSplineSet
EndChar

StartChar: Agrave
Encoding: 192 192 129
Width: 724
GlyphClass: 2
Flags: W
LayerCount: 2
Fore
SplineSet
-10 15 m 128,-1,1
 -10 30 -10 30 5 30 c 2,2,-1
 70 30 l 2,3,4
 82 30 82 30 90 45 c 1,5,-1
 340 695 l 1,6,7
 344 710 344 710 362 710 c 128,-1,8
 380 710 380 710 384 695 c 1,9,-1
 634 45 l 1,10,11
 642 30 642 30 654 30 c 2,12,-1
 719 30 l 2,13,14
 734 30 734 30 734 15 c 128,-1,15
 734 0 734 0 719 0 c 2,16,-1
 499 0 l 2,17,18
 484 0 484 0 484 15 c 128,-1,19
 484 30 484 30 499 30 c 2,20,-1
 589 30 l 2,21,22
 606 30 606 30 599 45 c 1,23,-1
 368 645 l 2,24,25
 366 651 366 651 362 651 c 128,-1,26
 358 651 358 651 356 645 c 2,27,-1
 219 289 l 1,28,29
 212 274 212 274 230 274 c 2,30,-1
 434 274 l 2,31,32
 449 274 449 274 449 259 c 128,-1,33
 449 244 449 244 434 244 c 2,34,-1
 220 244 l 2,35,36
 202 244 202 244 196 230 c 2,37,-1
 125 45 l 1,38,39
 118 30 118 30 135 30 c 2,40,-1
 225 30 l 2,41,42
 240 30 240 30 240 15 c 128,-1,43
 240 0 240 0 225 0 c 2,44,-1
 5 0 l 2,45,0
 -10 0 -10 0 -10 15 c 128,-1,1
257 890 m 2,46,47
 253 895 253 895 253 900 c 0,48,49
 253 906 253 906 261 910 c 1,50,51
 266 915 266 915 271 915 c 0,52,53
 277 915 277 915 282 906 c 1,54,-1
 371 779 l 2,55,56
 375 774 375 774 375 769 c 256,57,58
 375 764 375 764 368 759 c 1,59,60
 362 756 362 756 358 756 c 0,61,62
 351 756 351 756 347 762 c 2,63,-1
 257 890 l 2,46,47
EndSplineSet
EndChar

StartChar: Aacute
Encoding: 193 193 130
Width: 724
GlyphClass: 2
Flags: W
LayerCount: 2
Fore
SplineSet
-10 15 m 128,-1,1
 -10 30 -10 30 5 30 c 2,2,-1
 70 30 l 2,3,4
 82 30 82 30 90 45 c 1,5,-1
 340 695 l 1,6,7
 344 710 344 710 362 710 c 128,-1,8
 380 710 380 710 384 695 c 1,9,-1
 634 45 l 1,10,11
 642 30 642 30 654 30 c 2,12,-1
 719 30 l 2,13,14
 734 30 734 30 734 15 c 128,-1,15
 734 0 734 0 719 0 c 2,16,-1
 499 0 l 2,17,18
 484 0 484 0 484 15 c 128,-1,19
 484 30 484 30 499 30 c 2,20,-1
 589 30 l 2,21,22
 606 30 606 30 599 45 c 1,23,-1
 368 645 l 2,24,25
 366 651 366 651 362 651 c 128,-1,26
 358 651 358 651 356 645 c 2,27,-1
 219 289 l 1,28,29
 212 274 212 274 230 274 c 2,30,-1
 434 274 l 2,31,32
 449 274 449 274 449 259 c 128,-1,33
 449 244 449 244 434 244 c 2,34,-1
 220 244 l 2,35,36
 202 244 202 244 196 230 c 2,37,-1
 125 45 l 1,38,39
 118 30 118 30 135 30 c 2,40,-1
 225 30 l 2,41,42
 240 30 240 30 240 15 c 128,-1,43
 240 0 240 0 225 0 c 2,44,-1
 5 0 l 2,45,0
 -10 0 -10 0 -10 15 c 128,-1,1
351 779 m 2,46,-1
 440 906 l 1,47,48
 445 915 445 915 451 915 c 0,49,50
 456 915 456 915 461 910 c 1,51,52
 469 906 469 906 469 900 c 0,53,54
 469 895 469 895 465 890 c 2,55,-1
 375 762 l 2,56,57
 370 756 370 756 363 756 c 0,58,59
 359 756 359 756 354 759 c 0,60,61
 347 764 347 764 347 769 c 256,62,63
 347 774 347 774 351 779 c 2,46,-1
EndSplineSet
EndChar

StartChar: Acircumflex
Encoding: 194 194 131
Width: 724
GlyphClass: 2
Flags: W
LayerCount: 2
Fore
SplineSet
-10 15 m 128,-1,1
 -10 30 -10 30 5 30 c 2,2,-1
 70 30 l 2,3,4
 82 30 82 30 90 45 c 1,5,-1
 340 695 l 1,6,7
 344 710 344 710 362 710 c 128,-1,8
 380 710 380 710 384 695 c 1,9,-1
 634 45 l 1,10,11
 642 30 642 30 654 30 c 2,12,-1
 719 30 l 2,13,14
 734 30 734 30 734 15 c 128,-1,15
 734 0 734 0 719 0 c 2,16,-1
 499 0 l 2,17,18
 484 0 484 0 484 15 c 128,-1,19
 484 30 484 30 499 30 c 2,20,-1
 589 30 l 2,21,22
 606 30 606 30 599 45 c 1,23,-1
 368 645 l 2,24,25
 366 651 366 651 362 651 c 128,-1,26
 358 651 358 651 356 645 c 2,27,-1
 219 289 l 1,28,29
 212 274 212 274 230 274 c 2,30,-1
 434 274 l 2,31,32
 449 274 449 274 449 259 c 128,-1,33
 449 244 449 244 434 244 c 2,34,-1
 220 244 l 2,35,36
 202 244 202 244 196 230 c 2,37,-1
 125 45 l 1,38,39
 118 30 118 30 135 30 c 2,40,-1
 225 30 l 2,41,42
 240 30 240 30 240 15 c 128,-1,43
 240 0 240 0 225 0 c 2,44,-1
 5 0 l 2,45,0
 -10 0 -10 0 -10 15 c 128,-1,1
237.5 740 m 128,-1,47
 232 745 232 745 232 750.5 c 128,-1,48
 232 756 232 756 237 761 c 2,49,-1
 344 870 l 2,50,51
 353 879 353 879 361 879 c 256,52,53
 369 879 369 879 377 871 c 2,54,-1
 487 761 l 2,55,56
 493 756 493 756 493 750.5 c 128,-1,57
 493 745 493 745 487.5 740 c 128,-1,58
 482 735 482 735 476.5 735 c 128,-1,59
 471 735 471 735 466 740 c 2,60,-1
 370 835 l 2,61,62
 361 844 361 844 352 835 c 2,63,-1
 258 740 l 2,64,65
 253 735 253 735 248 735 c 128,-1,46
 243 735 243 735 237.5 740 c 128,-1,47
EndSplineSet
EndChar

StartChar: Atilde
Encoding: 195 195 132
Width: 724
GlyphClass: 2
Flags: W
LayerCount: 2
Fore
SplineSet
-10 15 m 128,-1,1
 -10 30 -10 30 5 30 c 2,2,-1
 70 30 l 2,3,4
 82 30 82 30 90 45 c 1,5,-1
 340 695 l 1,6,7
 344 710 344 710 362 710 c 128,-1,8
 380 710 380 710 384 695 c 1,9,-1
 634 45 l 1,10,11
 642 30 642 30 654 30 c 2,12,-1
 719 30 l 2,13,14
 734 30 734 30 734 15 c 128,-1,15
 734 0 734 0 719 0 c 2,16,-1
 499 0 l 2,17,18
 484 0 484 0 484 15 c 128,-1,19
 484 30 484 30 499 30 c 2,20,-1
 589 30 l 2,21,22
 606 30 606 30 599 45 c 1,23,-1
 368 645 l 2,24,25
 366 651 366 651 362 651 c 128,-1,26
 358 651 358 651 356 645 c 2,27,-1
 219 289 l 1,28,29
 212 274 212 274 230 274 c 2,30,-1
 434 274 l 2,31,32
 449 274 449 274 449 259 c 128,-1,33
 449 244 449 244 434 244 c 2,34,-1
 220 244 l 2,35,36
 202 244 202 244 196 230 c 2,37,-1
 125 45 l 1,38,39
 118 30 118 30 135 30 c 2,40,-1
 225 30 l 2,41,42
 240 30 240 30 240 15 c 128,-1,43
 240 0 240 0 225 0 c 2,44,-1
 5 0 l 2,45,0
 -10 0 -10 0 -10 15 c 128,-1,1
237 761 m 0,46,47
 237 804 237 804 256.5 827.5 c 128,-1,48
 276 851 276 851 307 851 c 0,49,50
 329 851 329 851 345 839.5 c 128,-1,51
 361 828 361 828 369 813.5 c 128,-1,52
 377 799 377 799 389.5 787.5 c 128,-1,53
 402 776 402 776 417 776 c 0,54,55
 457 776 457 776 457 836 c 0,56,57
 457 851 457 851 472 851 c 128,-1,58
 487 851 487 851 487 836 c 0,59,60
 487 792 487 792 467.5 769 c 128,-1,61
 448 746 448 746 417 746 c 0,62,63
 395 746 395 746 379 757.5 c 128,-1,64
 363 769 363 769 355 783.5 c 128,-1,65
 347 798 347 798 334.5 809.5 c 128,-1,66
 322 821 322 821 307 821 c 0,67,68
 267 821 267 821 267 761 c 0,69,70
 267 746 267 746 252 746 c 128,-1,71
 237 746 237 746 237 761 c 0,46,47
EndSplineSet
EndChar

StartChar: Adieresis
Encoding: 196 196 133
Width: 724
GlyphClass: 2
Flags: W
LayerCount: 2
Fore
SplineSet
-10 15 m 128,-1,1
 -10 30 -10 30 5 30 c 2,2,-1
 70 30 l 2,3,4
 82 30 82 30 90 45 c 1,5,-1
 340 695 l 1,6,7
 344 710 344 710 362 710 c 128,-1,8
 380 710 380 710 384 695 c 1,9,-1
 634 45 l 1,10,11
 642 30 642 30 654 30 c 2,12,-1
 719 30 l 2,13,14
 734 30 734 30 734 15 c 128,-1,15
 734 0 734 0 719 0 c 2,16,-1
 499 0 l 2,17,18
 484 0 484 0 484 15 c 128,-1,19
 484 30 484 30 499 30 c 2,20,-1
 589 30 l 2,21,22
 606 30 606 30 599 45 c 1,23,-1
 368 645 l 2,24,25
 366 651 366 651 362 651 c 128,-1,26
 358 651 358 651 356 645 c 2,27,-1
 219 289 l 1,28,29
 212 274 212 274 230 274 c 2,30,-1
 434 274 l 2,31,32
 449 274 449 274 449 259 c 128,-1,33
 449 244 449 244 434 244 c 2,34,-1
 220 244 l 2,35,36
 202 244 202 244 196 230 c 2,37,-1
 125 45 l 1,38,39
 118 30 118 30 135 30 c 2,40,-1
 225 30 l 2,41,42
 240 30 240 30 240 15 c 128,-1,43
 240 0 240 0 225 0 c 2,44,-1
 5 0 l 2,45,0
 -10 0 -10 0 -10 15 c 128,-1,1
242 785 m 128,-1,47
 242 802 242 802 253.5 813.5 c 128,-1,48
 265 825 265 825 282 825 c 128,-1,49
 299 825 299 825 310.5 813.5 c 128,-1,50
 322 802 322 802 322 785 c 128,-1,51
 322 768 322 768 310.5 756.5 c 128,-1,52
 299 745 299 745 282 745 c 128,-1,53
 265 745 265 745 253.5 756.5 c 128,-1,46
 242 768 242 768 242 785 c 128,-1,47
402 785 m 128,-1,55
 402 802 402 802 413.5 813.5 c 128,-1,56
 425 825 425 825 442 825 c 128,-1,57
 459 825 459 825 470.5 813.5 c 128,-1,58
 482 802 482 802 482 785 c 128,-1,59
 482 768 482 768 470.5 756.5 c 128,-1,60
 459 745 459 745 442 745 c 128,-1,61
 425 745 425 745 413.5 756.5 c 128,-1,54
 402 768 402 768 402 785 c 128,-1,55
EndSplineSet
EndChar

StartChar: Aring
Encoding: 197 197 134
Width: 725
GlyphClass: 2
Flags: W
LayerCount: 2
Fore
SplineSet
-9 15 m 128,-1,1
 -9 30 -9 30 6 30 c 2,2,-1
 71 30 l 2,3,4
 84 30 84 30 91 45 c 1,5,-1
 336 684 l 1,6,7
 283 702 283 702 283 760 c 0,8,9
 283 794 283 794 305.5 817 c 128,-1,10
 328 840 328 840 363 840 c 128,-1,11
 398 840 398 840 420.5 817 c 128,-1,12
 443 794 443 794 443 760 c 0,13,14
 443 733 443 733 428.5 712.5 c 128,-1,15
 414 692 414 692 389 684 c 1,16,-1
 635 45 l 1,17,18
 642 30 642 30 655 30 c 2,19,-1
 720 30 l 2,20,21
 735 30 735 30 735 15 c 128,-1,22
 735 0 735 0 720 0 c 2,23,-1
 520 0 l 2,24,25
 505 0 505 0 505 15 c 128,-1,26
 505 30 505 30 520 30 c 2,27,-1
 590 30 l 2,28,29
 608 30 608 30 600 45 c 1,30,-1
 369 645 l 2,31,32
 367 651 367 651 363 651 c 128,-1,33
 359 651 359 651 357 645 c 2,34,-1
 230 315 l 1,35,36
 223 300 223 300 241 300 c 2,37,-1
 431 300 l 2,38,39
 446 300 446 300 446 285 c 128,-1,40
 446 270 446 270 431 270 c 2,41,-1
 231 270 l 2,42,43
 213 270 213 270 207 256 c 2,44,-1
 126 45 l 1,45,46
 118 30 118 30 136 30 c 2,47,-1
 206 30 l 2,48,49
 221 30 221 30 221 15 c 128,-1,50
 221 0 221 0 206 0 c 2,51,-1
 6 0 l 2,52,0
 -9 0 -9 0 -9 15 c 128,-1,1
313 760 m 0,53,54
 313 738 313 738 325.5 724.5 c 128,-1,55
 338 711 338 711 359 710 c 1,56,-1
 363 710 l 2,57,58
 386 710 386 710 399.5 723.5 c 128,-1,59
 413 737 413 737 413 760 c 128,-1,60
 413 783 413 783 399.5 796.5 c 128,-1,61
 386 810 386 810 363 810 c 128,-1,62
 340 810 340 810 326.5 796.5 c 128,-1,63
 313 783 313 783 313 760 c 0,53,54
EndSplineSet
EndChar

StartChar: AE
Encoding: 198 198 135
Width: 964
GlyphClass: 2
Flags: W
LayerCount: 2
Fore
SplineSet
-24 15 m 128,-1,1
 -24 30 -24 30 -9 30 c 2,2,-1
 56 30 l 2,3,4
 68 30 68 30 76 45 c 2,5,-1
 428 680 l 1,6,7
 437 700 437 700 454 700 c 2,8,-1
 886 700 l 2,9,10
 901 700 901 700 901 685 c 2,11,-1
 901 545 l 2,12,13
 901 530 901 530 886 530 c 128,-1,14
 871 530 871 530 871 545 c 2,15,-1
 871 655 l 2,16,17
 871 670 871 670 856 670 c 2,18,-1
 541 670 l 2,19,20
 526 670 526 670 526 655 c 2,21,-1
 526 385 l 2,22,23
 526 370 526 370 541 370 c 2,24,-1
 766 370 l 2,25,26
 781 370 781 370 781 385 c 2,27,-1
 781 435 l 2,28,29
 781 450 781 450 796 450 c 128,-1,30
 811 450 811 450 811 435 c 2,31,-1
 811 275 l 2,32,33
 811 260 811 260 796 260 c 128,-1,34
 781 260 781 260 781 275 c 2,35,-1
 781 325 l 2,36,37
 781 340 781 340 766 340 c 2,38,-1
 541 340 l 2,39,40
 526 340 526 340 526 325 c 2,41,-1
 526 45 l 2,42,43
 526 30 526 30 541 30 c 2,44,-1
 866 30 l 2,45,46
 881 30 881 30 881 45 c 2,47,-1
 881 155 l 2,48,49
 881 170 881 170 896 170 c 128,-1,50
 911 170 911 170 911 155 c 2,51,-1
 911 15 l 2,52,53
 911 0 911 0 896 0 c 2,54,-1
 411 0 l 2,55,56
 396 0 396 0 396 15 c 128,-1,57
 396 30 396 30 411 30 c 2,58,-1
 481 30 l 2,59,60
 496 30 496 30 496 45 c 2,61,-1
 496 655 l 2,62,63
 496 670 496 670 481 670 c 2,64,-1
 470 670 l 2,65,66
 458 670 458 670 450 655 c 2,67,-1
 261 315 l 1,68,69
 254 300 254 300 272 300 c 2,70,-1
 416 300 l 2,71,72
 431 300 431 300 431 285 c 128,-1,73
 431 270 431 270 416 270 c 2,74,-1
 252 270 l 2,75,76
 234 270 234 270 228 256 c 1,77,-1
 111 45 l 1,78,79
 104 30 104 30 121 30 c 2,80,-1
 211 30 l 2,81,82
 226 30 226 30 226 15 c 128,-1,83
 226 0 226 0 211 0 c 2,84,-1
 -9 0 l 2,85,0
 -24 0 -24 0 -24 15 c 128,-1,1
EndSplineSet
EndChar

StartChar: Ccedilla
Encoding: 199 199 136
Width: 711
GlyphClass: 2
Flags: W
LayerCount: 2
Fore
SplineSet
59 350 m 0,0,1
 59 505 59 505 147.5 607.5 c 128,-1,2
 236 710 236 710 374 710 c 0,3,4
 494 710 494 710 593 625 c 0,5,6
 609 611 609 611 609 635 c 2,7,-1
 609 685 l 2,8,9
 609 700 609 700 624 700 c 128,-1,10
 639 700 639 700 639 685 c 2,11,-1
 639 495 l 2,12,13
 639 480 639 480 624 480 c 128,-1,14
 609 480 609 480 609 495 c 2,15,-1
 609 565 l 1,16,17
 582 596 582 596 546 622 c 0,18,19
 464 680 464 680 374 680 c 0,20,21
 251 680 251 680 170 586 c 128,-1,22
 89 492 89 492 89 350 c 0,23,24
 89 206 89 206 173 113 c 128,-1,25
 257 20 257 20 394 20 c 0,26,27
 538 20 538 20 623 131 c 1,28,29
 634 142 634 142 644 131 c 0,30,31
 649 126 649 126 649 120.5 c 128,-1,32
 649 115 649 115 644 110 c 0,33,34
 549 -10 549 -10 394 -10 c 0,35,36
 243 -10 243 -10 151 91.5 c 128,-1,37
 59 193 59 193 59 350 c 0,0,1
352 -165 m 128,-1,39
 352 -150 352 -150 367 -150 c 0,40,41
 437 -150 437 -150 437 -110 c 0,42,43
 437 -93 437 -93 424.5 -81.5 c 128,-1,44
 412 -70 412 -70 387 -70 c 2,45,-1
 372 -70 l 2,46,47
 357 -70 357 -70 357 -55 c 2,48,-1
 357 0 l 2,49,50
 357 15 357 15 372 15 c 128,-1,51
 387 15 387 15 387 0 c 2,52,-1
 387 -40 l 1,53,54
 424 -40 424 -40 445.5 -59.5 c 128,-1,55
 467 -79 467 -79 467 -110 c 0,56,57
 467 -142 467 -142 442.5 -161 c 128,-1,58
 418 -180 418 -180 367 -180 c 0,59,38
 352 -180 352 -180 352 -165 c 128,-1,39
EndSplineSet
EndChar

StartChar: Egrave
Encoding: 200 200 137
Width: 614
GlyphClass: 2
Flags: W
LayerCount: 2
Fore
SplineSet
46 15 m 128,-1,1
 46 30 46 30 61 30 c 2,2,-1
 131 30 l 2,3,4
 146 30 146 30 146 45 c 2,5,-1
 146 655 l 2,6,7
 146 670 146 670 131 670 c 2,8,-1
 61 670 l 2,9,10
 46 670 46 670 46 685 c 128,-1,11
 46 700 46 700 61 700 c 2,12,-1
 536 700 l 2,13,14
 551 700 551 700 551 685 c 2,15,-1
 551 545 l 2,16,17
 551 530 551 530 536 530 c 128,-1,18
 521 530 521 530 521 545 c 2,19,-1
 521 655 l 2,20,21
 521 670 521 670 506 670 c 2,22,-1
 191 670 l 2,23,24
 176 670 176 670 176 655 c 2,25,-1
 176 385 l 2,26,27
 176 370 176 370 191 370 c 2,28,-1
 416 370 l 2,29,30
 431 370 431 370 431 385 c 2,31,-1
 431 435 l 2,32,33
 431 450 431 450 446 450 c 128,-1,34
 461 450 461 450 461 435 c 2,35,-1
 461 275 l 2,36,37
 461 260 461 260 446 260 c 128,-1,38
 431 260 431 260 431 275 c 2,39,-1
 431 325 l 2,40,41
 431 340 431 340 416 340 c 2,42,-1
 191 340 l 2,43,44
 176 340 176 340 176 325 c 2,45,-1
 176 45 l 2,46,47
 176 30 176 30 191 30 c 2,48,-1
 516 30 l 2,49,50
 531 30 531 30 531 45 c 2,51,-1
 531 155 l 2,52,53
 531 170 531 170 546 170 c 128,-1,54
 561 170 561 170 561 155 c 2,55,-1
 561 15 l 2,56,57
 561 0 561 0 546 0 c 2,58,-1
 61 0 l 2,59,0
 46 0 46 0 46 15 c 128,-1,1
236 895 m 2,60,61
 232 900 232 900 232 905 c 0,62,63
 232 911 232 911 240 915 c 1,64,65
 245 920 245 920 250 920 c 0,66,67
 256 920 256 920 261 911 c 1,68,-1
 350 784 l 2,69,70
 354 779 354 779 354 774 c 256,71,72
 354 769 354 769 347 764 c 0,73,74
 342 761 342 761 337 761 c 0,75,76
 331 761 331 761 326 767 c 2,77,-1
 236 895 l 2,60,61
EndSplineSet
EndChar

StartChar: Eacute
Encoding: 201 201 138
Width: 614
GlyphClass: 2
Flags: W
LayerCount: 2
Fore
SplineSet
46 15 m 128,-1,1
 46 30 46 30 61 30 c 2,2,-1
 131 30 l 2,3,4
 146 30 146 30 146 45 c 2,5,-1
 146 655 l 2,6,7
 146 670 146 670 131 670 c 2,8,-1
 61 670 l 2,9,10
 46 670 46 670 46 685 c 128,-1,11
 46 700 46 700 61 700 c 2,12,-1
 536 700 l 2,13,14
 551 700 551 700 551 685 c 2,15,-1
 551 545 l 2,16,17
 551 530 551 530 536 530 c 128,-1,18
 521 530 521 530 521 545 c 2,19,-1
 521 655 l 2,20,21
 521 670 521 670 506 670 c 2,22,-1
 191 670 l 2,23,24
 176 670 176 670 176 655 c 2,25,-1
 176 385 l 2,26,27
 176 370 176 370 191 370 c 2,28,-1
 416 370 l 2,29,30
 431 370 431 370 431 385 c 2,31,-1
 431 435 l 2,32,33
 431 450 431 450 446 450 c 128,-1,34
 461 450 461 450 461 435 c 2,35,-1
 461 275 l 2,36,37
 461 260 461 260 446 260 c 128,-1,38
 431 260 431 260 431 275 c 2,39,-1
 431 325 l 2,40,41
 431 340 431 340 416 340 c 2,42,-1
 191 340 l 2,43,44
 176 340 176 340 176 325 c 2,45,-1
 176 45 l 2,46,47
 176 30 176 30 191 30 c 2,48,-1
 516 30 l 2,49,50
 531 30 531 30 531 45 c 2,51,-1
 531 155 l 2,52,53
 531 170 531 170 546 170 c 128,-1,54
 561 170 561 170 561 155 c 2,55,-1
 561 15 l 2,56,57
 561 0 561 0 546 0 c 2,58,-1
 61 0 l 2,59,0
 46 0 46 0 46 15 c 128,-1,1
296 774 m 2,60,-1
 385 901 l 1,61,62
 390 910 390 910 396 910 c 0,63,64
 401 910 401 910 406 905 c 1,65,66
 414 901 414 901 414 895 c 0,67,68
 414 890 414 890 410 885 c 2,69,-1
 320 757 l 2,70,71
 315 751 315 751 309 751 c 0,72,73
 304 751 304 751 299 754 c 0,74,75
 292 759 292 759 292 764 c 256,76,77
 292 769 292 769 296 774 c 2,60,-1
EndSplineSet
EndChar

StartChar: Ecircumflex
Encoding: 202 202 139
Width: 614
GlyphClass: 2
Flags: W
LayerCount: 2
Fore
SplineSet
46 15 m 128,-1,1
 46 30 46 30 61 30 c 2,2,-1
 131 30 l 2,3,4
 146 30 146 30 146 45 c 2,5,-1
 146 655 l 2,6,7
 146 670 146 670 131 670 c 2,8,-1
 61 670 l 2,9,10
 46 670 46 670 46 685 c 128,-1,11
 46 700 46 700 61 700 c 2,12,-1
 536 700 l 2,13,14
 551 700 551 700 551 685 c 2,15,-1
 551 545 l 2,16,17
 551 530 551 530 536 530 c 128,-1,18
 521 530 521 530 521 545 c 2,19,-1
 521 655 l 2,20,21
 521 670 521 670 506 670 c 2,22,-1
 191 670 l 2,23,24
 176 670 176 670 176 655 c 2,25,-1
 176 385 l 2,26,27
 176 370 176 370 191 370 c 2,28,-1
 416 370 l 2,29,30
 431 370 431 370 431 385 c 2,31,-1
 431 435 l 2,32,33
 431 450 431 450 446 450 c 128,-1,34
 461 450 461 450 461 435 c 2,35,-1
 461 275 l 2,36,37
 461 260 461 260 446 260 c 128,-1,38
 431 260 431 260 431 275 c 2,39,-1
 431 325 l 2,40,41
 431 340 431 340 416 340 c 2,42,-1
 191 340 l 2,43,44
 176 340 176 340 176 325 c 2,45,-1
 176 45 l 2,46,47
 176 30 176 30 191 30 c 2,48,-1
 516 30 l 2,49,50
 531 30 531 30 531 45 c 2,51,-1
 531 155 l 2,52,53
 531 170 531 170 546 170 c 128,-1,54
 561 170 561 170 561 155 c 2,55,-1
 561 15 l 2,56,57
 561 0 561 0 546 0 c 2,58,-1
 61 0 l 2,59,0
 46 0 46 0 46 15 c 128,-1,1
188 766 m 128,-1,61
 183 771 183 771 183 776.5 c 128,-1,62
 183 782 183 782 188 787 c 2,63,-1
 295 896 l 2,64,65
 304 905 304 905 312 905 c 256,66,67
 320 905 320 905 328 897 c 2,68,-1
 438 787 l 2,69,70
 443 782 443 782 443 776.5 c 128,-1,71
 443 771 443 771 438 766 c 128,-1,72
 433 761 433 761 427.5 761 c 128,-1,73
 422 761 422 761 417 766 c 2,74,-1
 321 861 l 2,75,76
 312 870 312 870 303 861 c 2,77,-1
 209 766 l 2,78,79
 204 761 204 761 198.5 761 c 128,-1,60
 193 761 193 761 188 766 c 128,-1,61
EndSplineSet
EndChar

StartChar: Edieresis
Encoding: 203 203 140
Width: 614
GlyphClass: 2
Flags: W
LayerCount: 2
Fore
SplineSet
46 15 m 128,-1,1
 46 30 46 30 61 30 c 2,2,-1
 131 30 l 2,3,4
 146 30 146 30 146 45 c 2,5,-1
 146 655 l 2,6,7
 146 670 146 670 131 670 c 2,8,-1
 61 670 l 2,9,10
 46 670 46 670 46 685 c 128,-1,11
 46 700 46 700 61 700 c 2,12,-1
 536 700 l 2,13,14
 551 700 551 700 551 685 c 2,15,-1
 551 545 l 2,16,17
 551 530 551 530 536 530 c 128,-1,18
 521 530 521 530 521 545 c 2,19,-1
 521 655 l 2,20,21
 521 670 521 670 506 670 c 2,22,-1
 191 670 l 2,23,24
 176 670 176 670 176 655 c 2,25,-1
 176 385 l 2,26,27
 176 370 176 370 191 370 c 2,28,-1
 416 370 l 2,29,30
 431 370 431 370 431 385 c 2,31,-1
 431 435 l 2,32,33
 431 450 431 450 446 450 c 128,-1,34
 461 450 461 450 461 435 c 2,35,-1
 461 275 l 2,36,37
 461 260 461 260 446 260 c 128,-1,38
 431 260 431 260 431 275 c 2,39,-1
 431 325 l 2,40,41
 431 340 431 340 416 340 c 2,42,-1
 191 340 l 2,43,44
 176 340 176 340 176 325 c 2,45,-1
 176 45 l 2,46,47
 176 30 176 30 191 30 c 2,48,-1
 516 30 l 2,49,50
 531 30 531 30 531 45 c 2,51,-1
 531 155 l 2,52,53
 531 170 531 170 546 170 c 128,-1,54
 561 170 561 170 561 155 c 2,55,-1
 561 15 l 2,56,57
 561 0 561 0 546 0 c 2,58,-1
 61 0 l 2,59,0
 46 0 46 0 46 15 c 128,-1,1
203 810 m 128,-1,61
 203 827 203 827 214.5 838.5 c 128,-1,62
 226 850 226 850 243 850 c 128,-1,63
 260 850 260 850 271.5 838.5 c 128,-1,64
 283 827 283 827 283 810 c 128,-1,65
 283 793 283 793 271.5 781.5 c 128,-1,66
 260 770 260 770 243 770 c 128,-1,67
 226 770 226 770 214.5 781.5 c 128,-1,60
 203 793 203 793 203 810 c 128,-1,61
363 810 m 128,-1,69
 363 827 363 827 374.5 838.5 c 128,-1,70
 386 850 386 850 403 850 c 128,-1,71
 420 850 420 850 431.5 838.5 c 128,-1,72
 443 827 443 827 443 810 c 128,-1,73
 443 793 443 793 431.5 781.5 c 128,-1,74
 420 770 420 770 403 770 c 128,-1,75
 386 770 386 770 374.5 781.5 c 128,-1,68
 363 793 363 793 363 810 c 128,-1,69
EndSplineSet
EndChar

StartChar: Igrave
Encoding: 204 204 141
Width: 322
GlyphClass: 2
Flags: W
LayerCount: 2
Fore
SplineSet
46 15 m 128,-1,1
 46 30 46 30 61 30 c 2,2,-1
 131 30 l 2,3,4
 146 30 146 30 146 45 c 2,5,-1
 146 655 l 2,6,7
 146 670 146 670 131 670 c 2,8,-1
 61 670 l 2,9,10
 46 670 46 670 46 685 c 128,-1,11
 46 700 46 700 61 700 c 2,12,-1
 261 700 l 2,13,14
 276 700 276 700 276 685 c 128,-1,15
 276 670 276 670 261 670 c 2,16,-1
 191 670 l 2,17,18
 176 670 176 670 176 655 c 2,19,-1
 176 45 l 2,20,21
 176 30 176 30 191 30 c 2,22,-1
 261 30 l 2,23,24
 276 30 276 30 276 15 c 128,-1,25
 276 0 276 0 261 0 c 2,26,-1
 61 0 l 2,27,0
 46 0 46 0 46 15 c 128,-1,1
54 885 m 2,28,29
 50 890 50 890 50 895 c 0,30,31
 50 901 50 901 58 905 c 1,32,33
 63 910 63 910 68 910 c 0,34,35
 74 910 74 910 79 901 c 1,36,-1
 168 774 l 2,37,38
 172 769 172 769 172 764 c 256,39,40
 172 759 172 759 165 754 c 0,41,42
 160 751 160 751 155 751 c 0,43,44
 149 751 149 751 144 757 c 2,45,-1
 54 885 l 2,28,29
EndSplineSet
EndChar

StartChar: Iacute
Encoding: 205 205 142
Width: 322
GlyphClass: 2
Flags: W
LayerCount: 2
Fore
SplineSet
46 15 m 128,-1,1
 46 30 46 30 61 30 c 2,2,-1
 131 30 l 2,3,4
 146 30 146 30 146 45 c 2,5,-1
 146 655 l 2,6,7
 146 670 146 670 131 670 c 2,8,-1
 61 670 l 2,9,10
 46 670 46 670 46 685 c 128,-1,11
 46 700 46 700 61 700 c 2,12,-1
 261 700 l 2,13,14
 276 700 276 700 276 685 c 128,-1,15
 276 670 276 670 261 670 c 2,16,-1
 191 670 l 2,17,18
 176 670 176 670 176 655 c 2,19,-1
 176 45 l 2,20,21
 176 30 176 30 191 30 c 2,22,-1
 261 30 l 2,23,24
 276 30 276 30 276 15 c 128,-1,25
 276 0 276 0 261 0 c 2,26,-1
 61 0 l 2,27,0
 46 0 46 0 46 15 c 128,-1,1
144 774 m 2,28,-1
 233 901 l 1,29,30
 238 910 238 910 244 910 c 0,31,32
 249 910 249 910 254 905 c 1,33,34
 262 901 262 901 262 895 c 0,35,36
 262 890 262 890 258 885 c 2,37,-1
 168 757 l 2,38,39
 163 751 163 751 157 751 c 0,40,41
 152 751 152 751 147 754 c 0,42,43
 140 759 140 759 140 764 c 256,44,45
 140 769 140 769 144 774 c 2,28,-1
EndSplineSet
EndChar

StartChar: Icircumflex
Encoding: 206 206 143
Width: 322
GlyphClass: 2
Flags: W
LayerCount: 2
Fore
SplineSet
36 766 m 0,0,1
 31 771 31 771 31 776.5 c 128,-1,2
 31 782 31 782 36 787 c 2,3,-1
 143 896 l 2,4,5
 152 905 152 905 160 905 c 256,6,7
 168 905 168 905 176 897 c 2,8,-1
 286 787 l 2,9,10
 291 782 291 782 291 776.5 c 128,-1,11
 291 771 291 771 286 766 c 0,12,13
 276 756 276 756 265 766 c 2,14,-1
 169 861 l 2,15,16
 160 870 160 870 151 861 c 2,17,-1
 57 766 l 2,18,19
 46 756 46 756 36 766 c 0,0,1
46 15 m 128,-1,21
 46 30 46 30 61 30 c 2,22,-1
 131 30 l 2,23,24
 146 30 146 30 146 45 c 2,25,-1
 146 655 l 2,26,27
 146 670 146 670 131 670 c 2,28,-1
 61 670 l 2,29,30
 46 670 46 670 46 685 c 128,-1,31
 46 700 46 700 61 700 c 2,32,-1
 261 700 l 2,33,34
 276 700 276 700 276 685 c 128,-1,35
 276 670 276 670 261 670 c 2,36,-1
 191 670 l 2,37,38
 176 670 176 670 176 655 c 2,39,-1
 176 45 l 2,40,41
 176 30 176 30 191 30 c 2,42,-1
 261 30 l 2,43,44
 276 30 276 30 276 15 c 128,-1,45
 276 0 276 0 261 0 c 2,46,-1
 61 0 l 2,47,20
 46 0 46 0 46 15 c 128,-1,21
EndSplineSet
EndChar

StartChar: Idieresis
Encoding: 207 207 144
Width: 322
GlyphClass: 2
Flags: W
LayerCount: 2
Fore
SplineSet
41 810 m 128,-1,1
 41 827 41 827 52.5 838.5 c 128,-1,2
 64 850 64 850 81 850 c 128,-1,3
 98 850 98 850 109.5 838.5 c 128,-1,4
 121 827 121 827 121 810 c 128,-1,5
 121 793 121 793 109.5 781.5 c 128,-1,6
 98 770 98 770 81 770 c 128,-1,7
 64 770 64 770 52.5 781.5 c 128,-1,0
 41 793 41 793 41 810 c 128,-1,1
46 15 m 128,-1,9
 46 30 46 30 61 30 c 2,10,-1
 131 30 l 2,11,12
 146 30 146 30 146 45 c 2,13,-1
 146 655 l 2,14,15
 146 670 146 670 131 670 c 2,16,-1
 61 670 l 2,17,18
 46 670 46 670 46 685 c 128,-1,19
 46 700 46 700 61 700 c 2,20,-1
 261 700 l 2,21,22
 276 700 276 700 276 685 c 128,-1,23
 276 670 276 670 261 670 c 2,24,-1
 191 670 l 2,25,26
 176 670 176 670 176 655 c 2,27,-1
 176 45 l 2,28,29
 176 30 176 30 191 30 c 2,30,-1
 261 30 l 2,31,32
 276 30 276 30 276 15 c 128,-1,33
 276 0 276 0 261 0 c 2,34,-1
 61 0 l 2,35,8
 46 0 46 0 46 15 c 128,-1,9
201 810 m 128,-1,37
 201 827 201 827 212.5 838.5 c 128,-1,38
 224 850 224 850 241 850 c 128,-1,39
 258 850 258 850 269.5 838.5 c 128,-1,40
 281 827 281 827 281 810 c 128,-1,41
 281 793 281 793 269.5 781.5 c 128,-1,42
 258 770 258 770 241 770 c 128,-1,43
 224 770 224 770 212.5 781.5 c 128,-1,36
 201 793 201 793 201 810 c 128,-1,37
EndSplineSet
EndChar

StartChar: Eth
Encoding: 208 208 145
Width: 734
GlyphClass: 2
Flags: W
LayerCount: 2
Fore
SplineSet
46 15 m 128,-1,1
 46 30 46 30 61 30 c 2,2,-1
 131 30 l 2,3,4
 146 30 146 30 146 45 c 2,5,-1
 146 320 l 2,6,7
 146 335 146 335 131 335 c 2,8,-1
 61 335 l 2,9,10
 46 335 46 335 46 350 c 128,-1,11
 46 365 46 365 61 365 c 2,12,-1
 131 365 l 2,13,14
 146 365 146 365 146 380 c 2,15,-1
 146 655 l 2,16,17
 146 670 146 670 131 670 c 2,18,-1
 61 670 l 2,19,20
 46 670 46 670 46 685 c 128,-1,21
 46 700 46 700 61 700 c 2,22,-1
 341 700 l 2,23,24
 492 700 492 700 584 600 c 128,-1,25
 676 500 676 500 676 350 c 128,-1,26
 676 200 676 200 584 100 c 128,-1,27
 492 0 492 0 341 0 c 2,28,-1
 61 0 l 2,29,0
 46 0 46 0 46 15 c 128,-1,1
176 45 m 2,30,31
 176 30 176 30 191 30 c 2,32,-1
 341 30 l 2,33,34
 477 30 477 30 561.5 121 c 128,-1,35
 646 212 646 212 646 350 c 128,-1,36
 646 488 646 488 561.5 579 c 128,-1,37
 477 670 477 670 341 670 c 2,38,-1
 191 670 l 2,39,40
 176 670 176 670 176 655 c 2,41,-1
 176 380 l 2,42,43
 176 365 176 365 191 365 c 2,44,-1
 261 365 l 2,45,46
 276 365 276 365 276 350 c 128,-1,47
 276 335 276 335 261 335 c 2,48,-1
 191 335 l 2,49,50
 176 335 176 335 176 320 c 2,51,-1
 176 45 l 2,30,31
EndSplineSet
EndChar

StartChar: Ntilde
Encoding: 209 209 146
Width: 785
GlyphClass: 2
Flags: W
LayerCount: 2
Fore
SplineSet
46 15 m 128,-1,1
 46 30 46 30 61 30 c 2,2,-1
 131 30 l 2,3,4
 146 30 146 30 146 45 c 2,5,-1
 146 655 l 2,6,7
 146 670 146 670 131 670 c 2,8,-1
 61 670 l 2,9,10
 46 670 46 670 46 685 c 128,-1,11
 46 700 46 700 61 700 c 2,12,-1
 171 700 l 2,13,14
 187 700 187 700 196 685 c 2,15,-1
 606 60 l 2,16,17
 608 56 608 56 612 56.5 c 128,-1,18
 616 57 616 57 616 65 c 2,19,-1
 616 655 l 2,20,21
 616 670 616 670 601 670 c 2,22,-1
 511 670 l 2,23,24
 496 670 496 670 496 685 c 128,-1,25
 496 700 496 700 511 700 c 2,26,-1
 731 700 l 2,27,28
 746 700 746 700 746 685 c 128,-1,29
 746 670 746 670 731 670 c 2,30,-1
 661 670 l 2,31,32
 646 670 646 670 646 655 c 2,33,-1
 646 45 l 2,34,35
 646 30 646 30 661 30 c 2,36,-1
 731 30 l 2,37,38
 746 30 746 30 746 15 c 128,-1,39
 746 0 746 0 731 0 c 2,40,-1
 621 0 l 2,41,42
 605 0 605 0 596 15 c 2,43,-1
 186 640 l 2,44,45
 184 644 184 644 180 643.5 c 128,-1,46
 176 643 176 643 176 635 c 2,47,-1
 176 45 l 2,48,49
 176 30 176 30 191 30 c 2,50,-1
 281 30 l 2,51,52
 296 30 296 30 296 15 c 128,-1,53
 296 0 296 0 281 0 c 2,54,-1
 61 0 l 2,55,0
 46 0 46 0 46 15 c 128,-1,1
261 785 m 0,56,57
 261 828 261 828 280.5 851.5 c 128,-1,58
 300 875 300 875 331 875 c 0,59,60
 353 875 353 875 369 863.5 c 128,-1,61
 385 852 385 852 393 837.5 c 128,-1,62
 401 823 401 823 413.5 811.5 c 128,-1,63
 426 800 426 800 441 800 c 0,64,65
 481 800 481 800 481 860 c 0,66,67
 481 875 481 875 496 875 c 128,-1,68
 511 875 511 875 511 860 c 0,69,70
 511 816 511 816 491.5 793 c 128,-1,71
 472 770 472 770 441 770 c 0,72,73
 419 770 419 770 403 781.5 c 128,-1,74
 387 793 387 793 379 807.5 c 128,-1,75
 371 822 371 822 358.5 833.5 c 128,-1,76
 346 845 346 845 331 845 c 0,77,78
 291 845 291 845 291 785 c 0,79,80
 291 770 291 770 276 770 c 128,-1,81
 261 770 261 770 261 785 c 0,56,57
EndSplineSet
EndChar

StartChar: Ograve
Encoding: 210 210 147
Width: 786
GlyphClass: 2
Flags: W
LayerCount: 2
Fore
SplineSet
58 350 m 128,-1,1
 58 507 58 507 150 608.5 c 128,-1,2
 242 710 242 710 393 710 c 128,-1,3
 544 710 544 710 636 608.5 c 128,-1,4
 728 507 728 507 728 350 c 128,-1,5
 728 193 728 193 636 91.5 c 128,-1,6
 544 -10 544 -10 393 -10 c 128,-1,7
 242 -10 242 -10 150 91.5 c 128,-1,0
 58 193 58 193 58 350 c 128,-1,1
88 350 m 128,-1,9
 88 206 88 206 172 113 c 128,-1,10
 256 20 256 20 393 20 c 128,-1,11
 530 20 530 20 614 113 c 128,-1,12
 698 206 698 206 698 350 c 128,-1,13
 698 494 698 494 614 587 c 128,-1,14
 530 680 530 680 393 680 c 128,-1,15
 256 680 256 680 172 587 c 128,-1,8
 88 494 88 494 88 350 c 128,-1,9
296 895 m 2,16,17
 292 900 292 900 292 905 c 0,18,19
 292 911 292 911 300 915 c 1,20,21
 305 920 305 920 310 920 c 0,22,23
 316 920 316 920 321 911 c 1,24,-1
 410 784 l 2,25,26
 414 779 414 779 414 774 c 256,27,28
 414 769 414 769 407 764 c 0,29,30
 402 761 402 761 397 761 c 0,31,32
 391 761 391 761 386 767 c 2,33,-1
 296 895 l 2,16,17
EndSplineSet
EndChar

StartChar: Oacute
Encoding: 211 211 148
Width: 786
GlyphClass: 2
Flags: W
LayerCount: 2
Fore
SplineSet
58 350 m 128,-1,1
 58 507 58 507 150 608.5 c 128,-1,2
 242 710 242 710 393 710 c 128,-1,3
 544 710 544 710 636 608.5 c 128,-1,4
 728 507 728 507 728 350 c 128,-1,5
 728 193 728 193 636 91.5 c 128,-1,6
 544 -10 544 -10 393 -10 c 128,-1,7
 242 -10 242 -10 150 91.5 c 128,-1,0
 58 193 58 193 58 350 c 128,-1,1
88 350 m 128,-1,9
 88 206 88 206 172 113 c 128,-1,10
 256 20 256 20 393 20 c 128,-1,11
 530 20 530 20 614 113 c 128,-1,12
 698 206 698 206 698 350 c 128,-1,13
 698 494 698 494 614 587 c 128,-1,14
 530 680 530 680 393 680 c 128,-1,15
 256 680 256 680 172 587 c 128,-1,8
 88 494 88 494 88 350 c 128,-1,9
376 784 m 2,16,-1
 465 911 l 1,17,18
 470 920 470 920 476 920 c 0,19,20
 481 920 481 920 486 915 c 1,21,22
 494 911 494 911 494 905 c 0,23,24
 494 900 494 900 490 895 c 2,25,-1
 400 767 l 2,26,27
 395 761 395 761 389 761 c 0,28,29
 384 761 384 761 379 764 c 0,30,31
 372 769 372 769 372 774 c 256,32,33
 372 779 372 779 376 784 c 2,16,-1
EndSplineSet
EndChar

StartChar: Ocircumflex
Encoding: 212 212 149
Width: 786
GlyphClass: 2
Flags: W
LayerCount: 2
Fore
SplineSet
58 350 m 128,-1,1
 58 507 58 507 150 608.5 c 128,-1,2
 242 710 242 710 393 710 c 128,-1,3
 544 710 544 710 636 608.5 c 128,-1,4
 728 507 728 507 728 350 c 128,-1,5
 728 193 728 193 636 91.5 c 128,-1,6
 544 -10 544 -10 393 -10 c 128,-1,7
 242 -10 242 -10 150 91.5 c 128,-1,0
 58 193 58 193 58 350 c 128,-1,1
88 350 m 128,-1,9
 88 206 88 206 172 113 c 128,-1,10
 256 20 256 20 393 20 c 128,-1,11
 530 20 530 20 614 113 c 128,-1,12
 698 206 698 206 698 350 c 128,-1,13
 698 494 698 494 614 587 c 128,-1,14
 530 680 530 680 393 680 c 128,-1,15
 256 680 256 680 172 587 c 128,-1,8
 88 494 88 494 88 350 c 128,-1,9
268 766 m 128,-1,17
 263 771 263 771 263 776.5 c 128,-1,18
 263 782 263 782 268 787 c 2,19,-1
 375 896 l 2,20,21
 384 905 384 905 392 905 c 256,22,23
 400 905 400 905 408 897 c 2,24,-1
 518 787 l 2,25,26
 523 782 523 782 523 776.5 c 128,-1,27
 523 771 523 771 518 766 c 128,-1,28
 513 761 513 761 507.5 761 c 128,-1,29
 502 761 502 761 497 766 c 2,30,-1
 401 861 l 2,31,32
 392 870 392 870 383 861 c 2,33,-1
 289 766 l 2,34,35
 284 761 284 761 278.5 761 c 128,-1,16
 273 761 273 761 268 766 c 128,-1,17
EndSplineSet
EndChar

StartChar: Otilde
Encoding: 213 213 150
Width: 786
GlyphClass: 2
Flags: W
LayerCount: 2
Fore
SplineSet
58 350 m 128,-1,1
 58 507 58 507 150 608.5 c 128,-1,2
 242 710 242 710 393 710 c 128,-1,3
 544 710 544 710 636 608.5 c 128,-1,4
 728 507 728 507 728 350 c 128,-1,5
 728 193 728 193 636 91.5 c 128,-1,6
 544 -10 544 -10 393 -10 c 128,-1,7
 242 -10 242 -10 150 91.5 c 128,-1,0
 58 193 58 193 58 350 c 128,-1,1
88 350 m 128,-1,9
 88 206 88 206 172 113 c 128,-1,10
 256 20 256 20 393 20 c 128,-1,11
 530 20 530 20 614 113 c 128,-1,12
 698 206 698 206 698 350 c 128,-1,13
 698 494 698 494 614 587 c 128,-1,14
 530 680 530 680 393 680 c 128,-1,15
 256 680 256 680 172 587 c 128,-1,8
 88 494 88 494 88 350 c 128,-1,9
268 785 m 0,16,17
 268 828 268 828 287.5 851.5 c 128,-1,18
 307 875 307 875 338 875 c 0,19,20
 360 875 360 875 376 863.5 c 128,-1,21
 392 852 392 852 400 837.5 c 128,-1,22
 408 823 408 823 420.5 811.5 c 128,-1,23
 433 800 433 800 448 800 c 0,24,25
 488 800 488 800 488 860 c 0,26,27
 488 875 488 875 503 875 c 128,-1,28
 518 875 518 875 518 860 c 0,29,30
 518 816 518 816 498.5 793 c 128,-1,31
 479 770 479 770 448 770 c 0,32,33
 426 770 426 770 410 781.5 c 128,-1,34
 394 793 394 793 386 807.5 c 128,-1,35
 378 822 378 822 365.5 833.5 c 128,-1,36
 353 845 353 845 338 845 c 0,37,38
 298 845 298 845 298 785 c 0,39,40
 298 770 298 770 283 770 c 128,-1,41
 268 770 268 770 268 785 c 0,16,17
EndSplineSet
EndChar

StartChar: Odieresis
Encoding: 214 214 151
Width: 786
GlyphClass: 2
Flags: W
LayerCount: 2
Fore
SplineSet
58 350 m 128,-1,1
 58 507 58 507 150 608.5 c 128,-1,2
 242 710 242 710 393 710 c 128,-1,3
 544 710 544 710 636 608.5 c 128,-1,4
 728 507 728 507 728 350 c 128,-1,5
 728 193 728 193 636 91.5 c 128,-1,6
 544 -10 544 -10 393 -10 c 128,-1,7
 242 -10 242 -10 150 91.5 c 128,-1,0
 58 193 58 193 58 350 c 128,-1,1
88 350 m 128,-1,9
 88 206 88 206 172 113 c 128,-1,10
 256 20 256 20 393 20 c 128,-1,11
 530 20 530 20 614 113 c 128,-1,12
 698 206 698 206 698 350 c 128,-1,13
 698 494 698 494 614 587 c 128,-1,14
 530 680 530 680 393 680 c 128,-1,15
 256 680 256 680 172 587 c 128,-1,8
 88 494 88 494 88 350 c 128,-1,9
273 820 m 128,-1,17
 273 837 273 837 284.5 848.5 c 128,-1,18
 296 860 296 860 313 860 c 128,-1,19
 330 860 330 860 341.5 848.5 c 128,-1,20
 353 837 353 837 353 820 c 128,-1,21
 353 803 353 803 341.5 791.5 c 128,-1,22
 330 780 330 780 313 780 c 128,-1,23
 296 780 296 780 284.5 791.5 c 128,-1,16
 273 803 273 803 273 820 c 128,-1,17
433 820 m 128,-1,25
 433 837 433 837 444.5 848.5 c 128,-1,26
 456 860 456 860 473 860 c 128,-1,27
 490 860 490 860 501.5 848.5 c 128,-1,28
 513 837 513 837 513 820 c 128,-1,29
 513 803 513 803 501.5 791.5 c 128,-1,30
 490 780 490 780 473 780 c 128,-1,31
 456 780 456 780 444.5 791.5 c 128,-1,24
 433 803 433 803 433 820 c 128,-1,25
EndSplineSet
EndChar

StartChar: multiply
Encoding: 215 215 152
Width: 457
GlyphClass: 2
Flags: W
LayerCount: 2
Fore
SplineSet
78 477 m 2,0,1
 73 482 73 482 73 487.5 c 128,-1,2
 73 493 73 493 78 499 c 0,3,4
 83 504 83 504 88.5 504 c 128,-1,5
 94 504 94 504 99 499 c 2,6,-1
 216 382 l 2,7,8
 226 372 226 372 237 382 c 2,9,-1
 357 502 l 2,10,11
 362 507 362 507 367.5 507 c 128,-1,12
 373 507 373 507 379 502 c 0,13,14
 384 497 384 497 384 491.5 c 128,-1,15
 384 486 384 486 379 481 c 2,16,-1
 258 361 l 2,17,18
 248 350 248 350 258 340 c 2,19,-1
 375 223 l 2,20,21
 380 218 380 218 380 212.5 c 128,-1,22
 380 207 380 207 375 202 c 128,-1,23
 370 197 370 197 364.5 197 c 128,-1,24
 359 197 359 197 354 202 c 2,25,-1
 237 318 l 2,26,27
 226 328 226 328 216 318 c 2,28,-1
 103 205 l 2,29,30
 98 200 98 200 92.5 200 c 128,-1,31
 87 200 87 200 82 205 c 128,-1,32
 77 210 77 210 77 215.5 c 128,-1,33
 77 221 77 221 82 226 c 2,34,-1
 195 339 l 1,35,36
 205 351 205 351 195 361 c 2,37,-1
 78 477 l 2,0,1
EndSplineSet
EndChar

StartChar: Oslash
Encoding: 216 216 153
Width: 786
GlyphClass: 2
Flags: W
LayerCount: 2
Fore
SplineSet
58 350 m 0,0,1
 58 507 58 507 150 608.5 c 128,-1,2
 242 710 242 710 393 710 c 0,3,4
 494 710 494 710 575 659 c 1,5,-1
 597 692 l 2,6,7
 605 703 605 703 617 697 c 1,8,9
 631 687 631 687 621 677 c 1,10,-1
 599 643 l 1,11,12
 728 542 728 542 728 350 c 0,13,14
 728 193 728 193 636 91.5 c 128,-1,15
 544 -10 544 -10 393 -10 c 0,16,17
 290 -10 290 -10 210 40 c 1,18,-1
 189 7 l 2,19,20
 181 -4 181 -4 169 2 c 0,21,22
 155 10 155 10 164 23 c 2,23,-1
 186 57 l 1,24,25
 58 160 58 160 58 350 c 0,0,1
88 350 m 0,26,27
 88 178 88 178 203 83 c 1,28,-1
 559 633 l 1,29,30
 488 680 488 680 393 680 c 0,31,32
 256 680 256 680 172 587 c 128,-1,33
 88 494 88 494 88 350 c 0,26,27
227 66 m 1,34,35
 297 20 297 20 393 20 c 0,36,37
 530 20 530 20 614 113 c 128,-1,38
 698 206 698 206 698 350 c 0,39,40
 698 524 698 524 582 617 c 1,41,-1
 227 66 l 1,34,35
EndSplineSet
EndChar

StartChar: Ugrave
Encoding: 217 217 154
Width: 776
GlyphClass: 2
Flags: W
LayerCount: 2
Fore
SplineSet
28 685 m 128,-1,1
 28 700 28 700 43 700 c 2,2,-1
 263 700 l 2,3,4
 278 700 278 700 278 685 c 128,-1,5
 278 670 278 670 263 670 c 2,6,-1
 173 670 l 2,7,8
 158 670 158 670 158 655 c 2,9,-1
 158 250 l 2,10,11
 158 146 158 146 223 83 c 128,-1,12
 288 20 288 20 388 20 c 128,-1,13
 488 20 488 20 553 83 c 128,-1,14
 618 146 618 146 618 250 c 2,15,-1
 618 655 l 2,16,17
 618 670 618 670 603 670 c 2,18,-1
 513 670 l 2,19,20
 498 670 498 670 498 685 c 128,-1,21
 498 700 498 700 513 700 c 2,22,-1
 733 700 l 2,23,24
 748 700 748 700 748 685 c 128,-1,25
 748 670 748 670 733 670 c 2,26,-1
 663 670 l 2,27,28
 648 670 648 670 648 655 c 2,29,-1
 648 250 l 2,30,31
 648 135 648 135 574.5 62.5 c 128,-1,32
 501 -10 501 -10 388 -10 c 128,-1,33
 275 -10 275 -10 201.5 62.5 c 128,-1,34
 128 135 128 135 128 250 c 2,35,-1
 128 655 l 2,36,37
 128 670 128 670 113 670 c 2,38,-1
 43 670 l 2,39,0
 28 670 28 670 28 685 c 128,-1,1
311 885 m 2,40,41
 307 890 307 890 307 895 c 0,42,43
 307 901 307 901 315 905 c 1,44,45
 320 910 320 910 325 910 c 0,46,47
 331 910 331 910 336 901 c 1,48,-1
 425 774 l 2,49,50
 429 769 429 769 429 764 c 256,51,52
 429 759 429 759 422 754 c 1,53,54
 416 751 416 751 411 751 c 0,55,56
 405 751 405 751 401 757 c 2,57,-1
 311 885 l 2,40,41
EndSplineSet
EndChar

StartChar: Uacute
Encoding: 218 218 155
Width: 776
GlyphClass: 2
Flags: W
LayerCount: 2
Fore
SplineSet
28 685 m 128,-1,1
 28 700 28 700 43 700 c 2,2,-1
 263 700 l 2,3,4
 278 700 278 700 278 685 c 128,-1,5
 278 670 278 670 263 670 c 2,6,-1
 173 670 l 2,7,8
 158 670 158 670 158 655 c 2,9,-1
 158 250 l 2,10,11
 158 146 158 146 223 83 c 128,-1,12
 288 20 288 20 388 20 c 128,-1,13
 488 20 488 20 553 83 c 128,-1,14
 618 146 618 146 618 250 c 2,15,-1
 618 655 l 2,16,17
 618 670 618 670 603 670 c 2,18,-1
 513 670 l 2,19,20
 498 670 498 670 498 685 c 128,-1,21
 498 700 498 700 513 700 c 2,22,-1
 733 700 l 2,23,24
 748 700 748 700 748 685 c 128,-1,25
 748 670 748 670 733 670 c 2,26,-1
 663 670 l 2,27,28
 648 670 648 670 648 655 c 2,29,-1
 648 250 l 2,30,31
 648 135 648 135 574.5 62.5 c 128,-1,32
 501 -10 501 -10 388 -10 c 128,-1,33
 275 -10 275 -10 201.5 62.5 c 128,-1,34
 128 135 128 135 128 250 c 2,35,-1
 128 655 l 2,36,37
 128 670 128 670 113 670 c 2,38,-1
 43 670 l 2,39,0
 28 670 28 670 28 685 c 128,-1,1
371 774 m 2,40,-1
 460 901 l 1,41,42
 465 910 465 910 471 910 c 0,43,44
 476 910 476 910 481 905 c 1,45,46
 489 901 489 901 489 895 c 0,47,48
 489 890 489 890 485 885 c 2,49,-1
 395 757 l 2,50,51
 390 751 390 751 384 751 c 0,52,53
 379 751 379 751 374 754 c 0,54,55
 367 759 367 759 367 764 c 256,56,57
 367 769 367 769 371 774 c 2,40,-1
EndSplineSet
EndChar

StartChar: Ucircumflex
Encoding: 219 219 156
Width: 776
GlyphClass: 2
Flags: W
LayerCount: 2
Fore
SplineSet
28 685 m 128,-1,1
 28 700 28 700 43 700 c 2,2,-1
 263 700 l 2,3,4
 278 700 278 700 278 685 c 128,-1,5
 278 670 278 670 263 670 c 2,6,-1
 173 670 l 2,7,8
 158 670 158 670 158 655 c 2,9,-1
 158 250 l 2,10,11
 158 146 158 146 223 83 c 128,-1,12
 288 20 288 20 388 20 c 128,-1,13
 488 20 488 20 553 83 c 128,-1,14
 618 146 618 146 618 250 c 2,15,-1
 618 655 l 2,16,17
 618 670 618 670 603 670 c 2,18,-1
 513 670 l 2,19,20
 498 670 498 670 498 685 c 128,-1,21
 498 700 498 700 513 700 c 2,22,-1
 733 700 l 2,23,24
 748 700 748 700 748 685 c 128,-1,25
 748 670 748 670 733 670 c 2,26,-1
 663 670 l 2,27,28
 648 670 648 670 648 655 c 2,29,-1
 648 250 l 2,30,31
 648 135 648 135 574.5 62.5 c 128,-1,32
 501 -10 501 -10 388 -10 c 128,-1,33
 275 -10 275 -10 201.5 62.5 c 128,-1,34
 128 135 128 135 128 250 c 2,35,-1
 128 655 l 2,36,37
 128 670 128 670 113 670 c 2,38,-1
 43 670 l 2,39,0
 28 670 28 670 28 685 c 128,-1,1
263 766 m 128,-1,41
 258 771 258 771 258 776.5 c 128,-1,42
 258 782 258 782 263 787 c 2,43,-1
 370 896 l 2,44,45
 379 905 379 905 387 905 c 256,46,47
 395 905 395 905 403 897 c 2,48,-1
 513 787 l 2,49,50
 518 782 518 782 518 776.5 c 128,-1,51
 518 771 518 771 513 766 c 128,-1,52
 508 761 508 761 502.5 761 c 128,-1,53
 497 761 497 761 492 766 c 2,54,-1
 396 861 l 2,55,56
 387 870 387 870 378 861 c 2,57,-1
 284 766 l 2,58,59
 279 761 279 761 273.5 761 c 128,-1,40
 268 761 268 761 263 766 c 128,-1,41
EndSplineSet
EndChar

StartChar: Udieresis
Encoding: 220 220 157
Width: 776
GlyphClass: 2
Flags: W
LayerCount: 2
Fore
SplineSet
28 685 m 128,-1,1
 28 700 28 700 43 700 c 2,2,-1
 263 700 l 2,3,4
 278 700 278 700 278 685 c 128,-1,5
 278 670 278 670 263 670 c 2,6,-1
 173 670 l 2,7,8
 158 670 158 670 158 655 c 2,9,-1
 158 250 l 2,10,11
 158 146 158 146 223 83 c 128,-1,12
 288 20 288 20 388 20 c 128,-1,13
 488 20 488 20 553 83 c 128,-1,14
 618 146 618 146 618 250 c 2,15,-1
 618 655 l 2,16,17
 618 670 618 670 603 670 c 2,18,-1
 513 670 l 2,19,20
 498 670 498 670 498 685 c 128,-1,21
 498 700 498 700 513 700 c 2,22,-1
 733 700 l 2,23,24
 748 700 748 700 748 685 c 128,-1,25
 748 670 748 670 733 670 c 2,26,-1
 663 670 l 2,27,28
 648 670 648 670 648 655 c 2,29,-1
 648 250 l 2,30,31
 648 135 648 135 574.5 62.5 c 128,-1,32
 501 -10 501 -10 388 -10 c 128,-1,33
 275 -10 275 -10 201.5 62.5 c 128,-1,34
 128 135 128 135 128 250 c 2,35,-1
 128 655 l 2,36,37
 128 670 128 670 113 670 c 2,38,-1
 43 670 l 2,39,0
 28 670 28 670 28 685 c 128,-1,1
268 810 m 128,-1,41
 268 827 268 827 279.5 838.5 c 128,-1,42
 291 850 291 850 308 850 c 128,-1,43
 325 850 325 850 336.5 838.5 c 128,-1,44
 348 827 348 827 348 810 c 128,-1,45
 348 793 348 793 336.5 781.5 c 128,-1,46
 325 770 325 770 308 770 c 128,-1,47
 291 770 291 770 279.5 781.5 c 128,-1,40
 268 793 268 793 268 810 c 128,-1,41
428 810 m 128,-1,49
 428 827 428 827 439.5 838.5 c 128,-1,50
 451 850 451 850 468 850 c 128,-1,51
 485 850 485 850 496.5 838.5 c 128,-1,52
 508 827 508 827 508 810 c 128,-1,53
 508 793 508 793 496.5 781.5 c 128,-1,54
 485 770 485 770 468 770 c 128,-1,55
 451 770 451 770 439.5 781.5 c 128,-1,48
 428 793 428 793 428 810 c 128,-1,49
EndSplineSet
EndChar

StartChar: Yacute
Encoding: 221 221 158
Width: 627
GlyphClass: 2
Flags: W
LayerCount: 2
Fore
SplineSet
-10 685 m 128,-1,1
 -10 700 -10 700 5 700 c 2,2,-1
 225 700 l 2,3,4
 240 700 240 700 240 685 c 128,-1,5
 240 670 240 670 225 670 c 2,6,-1
 135 670 l 2,7,8
 127 670 127 670 124 665.5 c 128,-1,9
 121 661 121 661 125 655 c 2,10,-1
 306 339 l 1,11,12
 313 329 313 329 320 339 c 1,13,-1
 502 655 l 2,14,15
 506 661 506 661 503 665.5 c 128,-1,16
 500 670 500 670 492 670 c 2,17,-1
 402 670 l 2,18,19
 387 670 387 670 387 685 c 128,-1,20
 387 700 387 700 402 700 c 2,21,-1
 622 700 l 2,22,23
 637 700 637 700 637 685 c 128,-1,24
 637 670 637 670 622 670 c 2,25,-1
 562 670 l 2,26,27
 546 670 546 670 537 655 c 2,28,-1
 329 294 l 1,29,-1
 329 45 l 2,30,31
 329 30 329 30 344 30 c 2,32,-1
 414 30 l 2,33,34
 429 30 429 30 429 15 c 128,-1,35
 429 0 429 0 414 0 c 2,36,-1
 214 0 l 2,37,38
 199 0 199 0 199 15 c 128,-1,39
 199 30 199 30 214 30 c 2,40,-1
 284 30 l 2,41,42
 299 30 299 30 299 45 c 2,43,-1
 299 292 l 1,44,-1
 90 655 l 2,45,46
 81 670 81 670 65 670 c 2,47,-1
 5 670 l 2,48,0
 -10 670 -10 670 -10 685 c 128,-1,1
306 774 m 2,49,-1
 395 901 l 1,50,51
 400 910 400 910 406 910 c 0,52,53
 411 910 411 910 416 905 c 1,54,55
 424 901 424 901 424 895 c 0,56,57
 424 890 424 890 420 885 c 2,58,-1
 330 757 l 2,59,60
 325 751 325 751 319 751 c 0,61,62
 314 751 314 751 309 754 c 0,63,64
 302 759 302 759 302 764 c 256,65,66
 302 769 302 769 306 774 c 2,49,-1
EndSplineSet
EndChar

StartChar: Thorn
Encoding: 222 222 159
Width: 610
GlyphClass: 2
Flags: W
LayerCount: 2
Fore
SplineSet
46 15 m 128,-1,1
 46 30 46 30 61 30 c 2,2,-1
 131 30 l 2,3,4
 146 30 146 30 146 45 c 2,5,-1
 146 655 l 2,6,7
 146 670 146 670 131 670 c 2,8,-1
 61 670 l 2,9,10
 46 670 46 670 46 685 c 128,-1,11
 46 700 46 700 61 700 c 2,12,-1
 261 700 l 2,13,14
 276 700 276 700 276 685 c 128,-1,15
 276 670 276 670 261 670 c 2,16,-1
 191 670 l 2,17,18
 176 670 176 670 176 655 c 2,19,-1
 176 605 l 2,20,21
 176 590 176 590 191 590 c 2,22,-1
 296 590 l 2,23,24
 426 590 426 590 498.5 525 c 128,-1,25
 571 460 571 460 571 350 c 128,-1,26
 571 240 571 240 498.5 175 c 128,-1,27
 426 110 426 110 296 110 c 2,28,-1
 251 110 l 2,29,30
 236 110 236 110 236 125 c 128,-1,31
 236 140 236 140 251 140 c 2,32,-1
 296 140 l 2,33,34
 414 140 414 140 477.5 195.5 c 128,-1,35
 541 251 541 251 541 350 c 128,-1,36
 541 449 541 449 477.5 504.5 c 128,-1,37
 414 560 414 560 296 560 c 2,38,-1
 191 560 l 2,39,40
 176 560 176 560 176 545 c 2,41,-1
 176 45 l 2,42,43
 176 30 176 30 191 30 c 2,44,-1
 261 30 l 2,45,46
 276 30 276 30 276 15 c 128,-1,47
 276 0 276 0 261 0 c 2,48,-1
 61 0 l 2,49,0
 46 0 46 0 46 15 c 128,-1,1
EndSplineSet
EndChar

StartChar: germandbls
Encoding: 223 223 160
Width: 641
GlyphClass: 2
Flags: W
LayerCount: 2
Fore
SplineSet
36 15 m 128,-1,1
 36 30 36 30 51 30 c 2,2,-1
 121 30 l 2,3,4
 136 30 136 30 136 45 c 2,5,-1
 136 455 l 2,6,7
 136 470 136 470 121 470 c 2,8,-1
 51 470 l 2,9,10
 36 470 36 470 36 485 c 128,-1,11
 36 500 36 500 51 500 c 2,12,-1
 121 500 l 2,13,14
 136 500 136 500 136 515 c 2,15,-1
 136 525 l 2,16,17
 136 614 136 614 186.5 662 c 128,-1,18
 237 710 237 710 316 710 c 0,19,20
 390 710 390 710 438 670 c 128,-1,21
 486 630 486 630 486 570 c 0,22,23
 486 538 486 538 468 514 c 128,-1,24
 450 490 450 490 428.5 478.5 c 128,-1,25
 407 467 407 467 389 449 c 128,-1,26
 371 431 371 431 371 410 c 0,27,28
 371 380 371 380 395.5 355.5 c 128,-1,29
 420 331 420 331 455.5 312 c 128,-1,30
 491 293 491 293 526.5 271 c 128,-1,31
 562 249 562 249 586.5 213 c 128,-1,32
 611 177 611 177 611 130 c 0,33,34
 611 72 611 72 564 31 c 128,-1,35
 517 -10 517 -10 441 -10 c 0,36,37
 316 -10 316 -10 241 90 c 1,38,39
 229 104 229 104 243 113 c 0,40,41
 255 121 255 121 262 111 c 0,42,43
 328 20 328 20 441 20 c 0,44,45
 507 20 507 20 544 51.5 c 128,-1,46
 581 83 581 83 581 130 c 0,47,48
 581 165 581 165 563 193.5 c 128,-1,49
 545 222 545 222 518 240 c 2,50,-1
 461 278 l 1,51,-1
 403 313 l 2,52,53
 377 329 377 329 359 354.5 c 128,-1,54
 341 380 341 380 341 410 c 0,55,56
 341 438 341 438 359 460 c 128,-1,57
 377 482 377 482 398.5 493.5 c 128,-1,58
 420 505 420 505 438 525 c 128,-1,59
 456 545 456 545 456 570 c 0,60,61
 456 619 456 619 417.5 649.5 c 128,-1,62
 379 680 379 680 316 680 c 0,63,64
 246 680 246 680 206 641 c 128,-1,65
 166 602 166 602 166 525 c 2,66,-1
 166 15 l 2,67,68
 166 0 166 0 151 0 c 2,69,-1
 51 0 l 2,70,0
 36 0 36 0 36 15 c 128,-1,1
EndSplineSet
EndChar

StartChar: agrave
Encoding: 224 224 161
Width: 572
GlyphClass: 2
Flags: W
LayerCount: 2
Fore
SplineSet
41 150 m 0,0,1
 41 220 41 220 94 265 c 128,-1,2
 147 310 147 310 241 310 c 2,3,-1
 346 310 l 2,4,5
 361 310 361 310 361 295 c 128,-1,6
 361 280 361 280 346 280 c 2,7,-1
 241 280 l 2,8,9
 155 280 155 280 113 244.5 c 128,-1,10
 71 209 71 209 71 150 c 128,-1,11
 71 91 71 91 109.5 55.5 c 128,-1,12
 148 20 148 20 221 20 c 0,13,14
 303 20 303 20 370 87 c 0,15,16
 399 116 399 116 421 155 c 1,17,-1
 421 345 l 2,18,19
 421 403 421 403 378 441.5 c 128,-1,20
 335 480 335 480 265 480 c 0,21,22
 162 480 162 480 106 405 c 0,23,24
 97 393 97 393 85 402 c 128,-1,25
 73 411 73 411 82 423 c 0,26,27
 109 457 109 457 157 483.5 c 128,-1,28
 205 510 205 510 265 510 c 0,29,30
 349 510 349 510 400 462.5 c 128,-1,31
 451 415 451 415 451 345 c 2,32,-1
 451 45 l 2,33,34
 451 30 451 30 466 30 c 2,35,-1
 536 30 l 2,36,37
 551 30 551 30 551 15 c 128,-1,38
 551 0 551 0 536 0 c 2,39,-1
 436 0 l 2,40,41
 421 0 421 0 421 15 c 2,42,-1
 421 71 l 2,43,44
 421 81 421 81 417 85 c 128,-1,45
 413 89 413 89 405 81 c 1,46,47
 381 49 381 49 332.5 19.5 c 128,-1,48
 284 -10 284 -10 221 -10 c 0,49,50
 134 -10 134 -10 87.5 34.5 c 128,-1,51
 41 79 41 79 41 150 c 0,0,1
170 705 m 2,52,53
 166 710 166 710 166 715 c 0,54,55
 166 721 166 721 174 725 c 1,56,57
 179 730 179 730 184 730 c 0,58,59
 190 730 190 730 195 721 c 1,60,-1
 284 594 l 2,61,62
 288 589 288 589 288 584 c 256,63,64
 288 579 288 579 281 574 c 0,65,66
 276 571 276 571 271 571 c 0,67,68
 265 571 265 571 260 577 c 2,69,-1
 170 705 l 2,52,53
EndSplineSet
EndChar

StartChar: aacute
Encoding: 225 225 162
Width: 572
GlyphClass: 2
Flags: W
LayerCount: 2
Fore
SplineSet
41 150 m 0,0,1
 41 220 41 220 94 265 c 128,-1,2
 147 310 147 310 241 310 c 2,3,-1
 346 310 l 2,4,5
 361 310 361 310 361 295 c 128,-1,6
 361 280 361 280 346 280 c 2,7,-1
 241 280 l 2,8,9
 155 280 155 280 113 244.5 c 128,-1,10
 71 209 71 209 71 150 c 128,-1,11
 71 91 71 91 109.5 55.5 c 128,-1,12
 148 20 148 20 221 20 c 0,13,14
 303 20 303 20 370 87 c 0,15,16
 399 116 399 116 421 155 c 1,17,-1
 421 345 l 2,18,19
 421 403 421 403 378 441.5 c 128,-1,20
 335 480 335 480 265 480 c 0,21,22
 162 480 162 480 106 405 c 0,23,24
 97 393 97 393 85 402 c 128,-1,25
 73 411 73 411 82 423 c 0,26,27
 109 457 109 457 157 483.5 c 128,-1,28
 205 510 205 510 265 510 c 0,29,30
 349 510 349 510 400 462.5 c 128,-1,31
 451 415 451 415 451 345 c 2,32,-1
 451 45 l 2,33,34
 451 30 451 30 466 30 c 2,35,-1
 536 30 l 2,36,37
 551 30 551 30 551 15 c 128,-1,38
 551 0 551 0 536 0 c 2,39,-1
 436 0 l 2,40,41
 421 0 421 0 421 15 c 2,42,-1
 421 71 l 2,43,44
 421 81 421 81 417 85 c 128,-1,45
 413 89 413 89 405 81 c 1,46,47
 381 49 381 49 332.5 19.5 c 128,-1,48
 284 -10 284 -10 221 -10 c 0,49,50
 134 -10 134 -10 87.5 34.5 c 128,-1,51
 41 79 41 79 41 150 c 0,0,1
250 594 m 2,52,-1
 339 721 l 1,53,54
 344 730 344 730 350 730 c 0,55,56
 355 730 355 730 360 725 c 1,57,58
 368 721 368 721 368 715 c 0,59,60
 368 710 368 710 364 705 c 2,61,-1
 274 577 l 2,62,63
 269 571 269 571 263 571 c 0,64,65
 258 571 258 571 253 574 c 0,66,67
 246 579 246 579 246 584 c 256,68,69
 246 589 246 589 250 594 c 2,52,-1
EndSplineSet
EndChar

StartChar: acircumflex
Encoding: 226 226 163
Width: 572
GlyphClass: 2
Flags: W
LayerCount: 2
Fore
SplineSet
41 150 m 0,0,1
 41 220 41 220 94 265 c 128,-1,2
 147 310 147 310 241 310 c 2,3,-1
 346 310 l 2,4,5
 361 310 361 310 361 295 c 128,-1,6
 361 280 361 280 346 280 c 2,7,-1
 241 280 l 2,8,9
 155 280 155 280 113 244.5 c 128,-1,10
 71 209 71 209 71 150 c 128,-1,11
 71 91 71 91 109.5 55.5 c 128,-1,12
 148 20 148 20 221 20 c 0,13,14
 303 20 303 20 370 87 c 0,15,16
 399 116 399 116 421 155 c 1,17,-1
 421 345 l 2,18,19
 421 403 421 403 378 441.5 c 128,-1,20
 335 480 335 480 265 480 c 0,21,22
 162 480 162 480 106 405 c 0,23,24
 97 393 97 393 85 402 c 128,-1,25
 73 411 73 411 82 423 c 0,26,27
 109 457 109 457 157 483.5 c 128,-1,28
 205 510 205 510 265 510 c 0,29,30
 349 510 349 510 400 462.5 c 128,-1,31
 451 415 451 415 451 345 c 2,32,-1
 451 45 l 2,33,34
 451 30 451 30 466 30 c 2,35,-1
 536 30 l 2,36,37
 551 30 551 30 551 15 c 128,-1,38
 551 0 551 0 536 0 c 2,39,-1
 436 0 l 2,40,41
 421 0 421 0 421 15 c 2,42,-1
 421 71 l 2,43,44
 421 81 421 81 417 85 c 128,-1,45
 413 89 413 89 405 81 c 1,46,47
 381 49 381 49 332.5 19.5 c 128,-1,48
 284 -10 284 -10 221 -10 c 0,49,50
 134 -10 134 -10 87.5 34.5 c 128,-1,51
 41 79 41 79 41 150 c 0,0,1
142 566 m 128,-1,53
 137 571 137 571 137 576 c 128,-1,54
 137 581 137 581 142 587 c 2,55,-1
 249 696 l 2,56,57
 258 705 258 705 266 705 c 256,58,59
 274 705 274 705 282 697 c 2,60,-1
 392 587 l 2,61,62
 397 581 397 581 397 576 c 128,-1,63
 397 571 397 571 392 566 c 128,-1,64
 387 561 387 561 381.5 561 c 128,-1,65
 376 561 376 561 371 566 c 2,66,-1
 275 661 l 2,67,68
 266 670 266 670 257 661 c 2,69,-1
 163 566 l 2,70,71
 157 561 157 561 152 561 c 128,-1,52
 147 561 147 561 142 566 c 128,-1,53
EndSplineSet
EndChar

StartChar: atilde
Encoding: 227 227 164
Width: 572
GlyphClass: 2
Flags: W
LayerCount: 2
Fore
SplineSet
41 150 m 0,0,1
 41 220 41 220 94 265 c 128,-1,2
 147 310 147 310 241 310 c 2,3,-1
 346 310 l 2,4,5
 361 310 361 310 361 295 c 128,-1,6
 361 280 361 280 346 280 c 2,7,-1
 241 280 l 2,8,9
 155 280 155 280 113 244.5 c 128,-1,10
 71 209 71 209 71 150 c 128,-1,11
 71 91 71 91 109.5 55.5 c 128,-1,12
 148 20 148 20 221 20 c 0,13,14
 303 20 303 20 370 87 c 0,15,16
 399 116 399 116 421 155 c 1,17,-1
 421 345 l 2,18,19
 421 403 421 403 378 441.5 c 128,-1,20
 335 480 335 480 265 480 c 0,21,22
 162 480 162 480 106 405 c 0,23,24
 97 393 97 393 85 402 c 128,-1,25
 73 411 73 411 82 423 c 0,26,27
 109 457 109 457 157 483.5 c 128,-1,28
 205 510 205 510 265 510 c 0,29,30
 349 510 349 510 400 462.5 c 128,-1,31
 451 415 451 415 451 345 c 2,32,-1
 451 45 l 2,33,34
 451 30 451 30 466 30 c 2,35,-1
 536 30 l 2,36,37
 551 30 551 30 551 15 c 128,-1,38
 551 0 551 0 536 0 c 2,39,-1
 436 0 l 2,40,41
 421 0 421 0 421 15 c 2,42,-1
 421 71 l 2,43,44
 421 81 421 81 417 85 c 128,-1,45
 413 89 413 89 405 81 c 1,46,47
 381 49 381 49 332.5 19.5 c 128,-1,48
 284 -10 284 -10 221 -10 c 0,49,50
 134 -10 134 -10 87.5 34.5 c 128,-1,51
 41 79 41 79 41 150 c 0,0,1
142 585 m 0,52,53
 142 628 142 628 161.5 651.5 c 128,-1,54
 181 675 181 675 212 675 c 0,55,56
 234 675 234 675 250 663.5 c 128,-1,57
 266 652 266 652 274 637.5 c 128,-1,58
 282 623 282 623 294.5 611.5 c 128,-1,59
 307 600 307 600 322 600 c 0,60,61
 362 600 362 600 362 660 c 0,62,63
 362 675 362 675 377 675 c 128,-1,64
 392 675 392 675 392 660 c 0,65,66
 392 616 392 616 372.5 593 c 128,-1,67
 353 570 353 570 322 570 c 0,68,69
 300 570 300 570 284 581.5 c 128,-1,70
 268 593 268 593 260 607.5 c 128,-1,71
 252 622 252 622 239.5 633.5 c 128,-1,72
 227 645 227 645 212 645 c 0,73,74
 172 645 172 645 172 585 c 0,75,76
 172 570 172 570 157 570 c 128,-1,77
 142 570 142 570 142 585 c 0,52,53
EndSplineSet
EndChar

StartChar: adieresis
Encoding: 228 228 165
Width: 572
GlyphClass: 2
Flags: W
LayerCount: 2
Fore
SplineSet
41 150 m 0,0,1
 41 220 41 220 94 265 c 128,-1,2
 147 310 147 310 241 310 c 2,3,-1
 346 310 l 2,4,5
 361 310 361 310 361 295 c 128,-1,6
 361 280 361 280 346 280 c 2,7,-1
 241 280 l 2,8,9
 155 280 155 280 113 244.5 c 128,-1,10
 71 209 71 209 71 150 c 128,-1,11
 71 91 71 91 109.5 55.5 c 128,-1,12
 148 20 148 20 221 20 c 0,13,14
 303 20 303 20 370 87 c 0,15,16
 399 116 399 116 421 155 c 1,17,-1
 421 345 l 2,18,19
 421 403 421 403 378 441.5 c 128,-1,20
 335 480 335 480 265 480 c 0,21,22
 162 480 162 480 106 405 c 0,23,24
 97 393 97 393 85 402 c 128,-1,25
 73 411 73 411 82 423 c 0,26,27
 109 457 109 457 157 483.5 c 128,-1,28
 205 510 205 510 265 510 c 0,29,30
 349 510 349 510 400 462.5 c 128,-1,31
 451 415 451 415 451 345 c 2,32,-1
 451 45 l 2,33,34
 451 30 451 30 466 30 c 2,35,-1
 536 30 l 2,36,37
 551 30 551 30 551 15 c 128,-1,38
 551 0 551 0 536 0 c 2,39,-1
 436 0 l 2,40,41
 421 0 421 0 421 15 c 2,42,-1
 421 71 l 2,43,44
 421 81 421 81 417 85 c 128,-1,45
 413 89 413 89 405 81 c 1,46,47
 381 49 381 49 332.5 19.5 c 128,-1,48
 284 -10 284 -10 221 -10 c 0,49,50
 134 -10 134 -10 87.5 34.5 c 128,-1,51
 41 79 41 79 41 150 c 0,0,1
157 610 m 128,-1,53
 157 627 157 627 168.5 638.5 c 128,-1,54
 180 650 180 650 197 650 c 128,-1,55
 214 650 214 650 225.5 638.5 c 128,-1,56
 237 627 237 627 237 610 c 128,-1,57
 237 593 237 593 225.5 581.5 c 128,-1,58
 214 570 214 570 197 570 c 128,-1,59
 180 570 180 570 168.5 581.5 c 128,-1,52
 157 593 157 593 157 610 c 128,-1,53
317 610 m 128,-1,61
 317 627 317 627 328.5 638.5 c 128,-1,62
 340 650 340 650 357 650 c 128,-1,63
 374 650 374 650 385.5 638.5 c 128,-1,64
 397 627 397 627 397 610 c 128,-1,65
 397 593 397 593 385.5 581.5 c 128,-1,66
 374 570 374 570 357 570 c 128,-1,67
 340 570 340 570 328.5 581.5 c 128,-1,60
 317 593 317 593 317 610 c 128,-1,61
EndSplineSet
EndChar

StartChar: aring
Encoding: 229 229 166
Width: 572
GlyphClass: 2
Flags: W
LayerCount: 2
Fore
SplineSet
41 150 m 0,0,1
 41 220 41 220 94 265 c 128,-1,2
 147 310 147 310 241 310 c 2,3,-1
 346 310 l 2,4,5
 361 310 361 310 361 295 c 128,-1,6
 361 280 361 280 346 280 c 2,7,-1
 241 280 l 2,8,9
 155 280 155 280 113 244.5 c 128,-1,10
 71 209 71 209 71 150 c 128,-1,11
 71 91 71 91 109.5 55.5 c 128,-1,12
 148 20 148 20 221 20 c 0,13,14
 303 20 303 20 370 87 c 0,15,16
 399 116 399 116 421 155 c 1,17,-1
 421 345 l 2,18,19
 421 403 421 403 378 441.5 c 128,-1,20
 335 480 335 480 265 480 c 0,21,22
 162 480 162 480 106 405 c 0,23,24
 97 393 97 393 85 402 c 128,-1,25
 73 411 73 411 82 423 c 0,26,27
 109 457 109 457 157 483.5 c 128,-1,28
 205 510 205 510 265 510 c 0,29,30
 349 510 349 510 400 462.5 c 128,-1,31
 451 415 451 415 451 345 c 2,32,-1
 451 45 l 2,33,34
 451 30 451 30 466 30 c 2,35,-1
 536 30 l 2,36,37
 551 30 551 30 551 15 c 128,-1,38
 551 0 551 0 536 0 c 2,39,-1
 436 0 l 2,40,41
 421 0 421 0 421 15 c 2,42,-1
 421 71 l 2,43,44
 421 81 421 81 417 85 c 128,-1,45
 413 89 413 89 405 81 c 1,46,47
 381 49 381 49 332.5 19.5 c 128,-1,48
 284 -10 284 -10 221 -10 c 0,49,50
 134 -10 134 -10 87.5 34.5 c 128,-1,51
 41 79 41 79 41 150 c 0,0,1
187 640 m 128,-1,53
 187 674 187 674 209.5 697 c 128,-1,54
 232 720 232 720 267 720 c 128,-1,55
 302 720 302 720 324.5 697 c 128,-1,56
 347 674 347 674 347 640 c 128,-1,57
 347 606 347 606 324.5 583 c 128,-1,58
 302 560 302 560 267 560 c 128,-1,59
 232 560 232 560 209.5 583 c 128,-1,52
 187 606 187 606 187 640 c 128,-1,53
217 640 m 128,-1,61
 217 617 217 617 230.5 603.5 c 128,-1,62
 244 590 244 590 267 590 c 128,-1,63
 290 590 290 590 303.5 603.5 c 128,-1,64
 317 617 317 617 317 640 c 128,-1,65
 317 663 317 663 303.5 676.5 c 128,-1,66
 290 690 290 690 267 690 c 128,-1,67
 244 690 244 690 230.5 676.5 c 128,-1,60
 217 663 217 663 217 640 c 128,-1,61
EndSplineSet
EndChar

StartChar: ae
Encoding: 230 230 167
Width: 937
GlyphClass: 2
Flags: W
LayerCount: 2
Fore
SplineSet
42 140 m 0,0,1
 42 210 42 210 93.5 250 c 128,-1,2
 145 290 145 290 242 290 c 2,3,-1
 347 290 l 2,4,5
 362 290 362 290 362 275 c 128,-1,6
 362 260 362 260 347 260 c 2,7,-1
 242 260 l 2,8,9
 72 260 72 260 72 140 c 128,-1,10
 72 20 72 20 232 20 c 0,11,12
 314 20 314 20 381 87 c 0,13,14
 410 116 410 116 432 155 c 1,15,-1
 432 345 l 2,16,17
 432 403 432 403 388 441.5 c 128,-1,18
 344 480 344 480 266 480 c 0,19,20
 163 480 163 480 107 405 c 0,21,22
 98 393 98 393 86 402 c 128,-1,23
 74 411 74 411 83 423 c 0,24,25
 110 457 110 457 158 483.5 c 128,-1,26
 206 510 206 510 266 510 c 0,27,28
 346 510 346 510 396 473.5 c 128,-1,29
 446 437 446 437 458 380 c 1,30,31
 488 441 488 441 541.5 475.5 c 128,-1,32
 595 510 595 510 662 510 c 0,33,34
 759 510 759 510 825.5 447 c 128,-1,35
 892 384 892 384 892 305 c 2,36,-1
 892 290 l 2,37,38
 892 260 892 260 862 260 c 2,39,-1
 547 260 l 2,40,41
 532 260 532 260 532 275 c 128,-1,42
 532 290 532 290 547 290 c 2,43,-1
 847 290 l 2,44,45
 862 290 862 290 862 305 c 0,46,47
 862 371 862 371 803.5 425.5 c 128,-1,48
 745 480 745 480 662 480 c 0,49,50
 575 480 575 480 518.5 416.5 c 128,-1,51
 462 353 462 353 462 250 c 0,52,53
 462 146 462 146 518 83 c 128,-1,54
 574 20 574 20 662 20 c 0,55,56
 712 20 712 20 763 45.5 c 128,-1,57
 814 71 814 71 846 121 c 0,58,59
 854 132 854 132 865 123 c 1,60,61
 877 116 877 116 867 100 c 0,62,63
 834 48 834 48 778.5 19 c 128,-1,64
 723 -10 723 -10 662 -10 c 0,65,66
 590 -10 590 -10 534.5 28 c 128,-1,67
 479 66 479 66 453 133 c 1,68,69
 418 72 418 72 357 31 c 128,-1,70
 296 -10 296 -10 232 -10 c 0,71,72
 137 -10 137 -10 89.5 29.5 c 128,-1,73
 42 69 42 69 42 140 c 0,0,1
EndSplineSet
EndChar

StartChar: ccedilla
Encoding: 231 231 168
Width: 560
GlyphClass: 2
Flags: W
LayerCount: 2
Fore
SplineSet
51 250 m 0,0,1
 51 365 51 365 114 437.5 c 128,-1,2
 177 510 177 510 271 510 c 0,3,4
 370 510 370 510 445 435 c 0,5,6
 454 427 454 427 457.5 431 c 128,-1,7
 461 435 461 435 461 445 c 2,8,-1
 461 485 l 2,9,10
 461 500 461 500 476 500 c 128,-1,11
 491 500 491 500 491 485 c 2,12,-1
 491 325 l 2,13,14
 491 310 491 310 476 310 c 128,-1,15
 461 310 461 310 461 325 c 2,16,-1
 461 375 l 1,17,18
 435 408 435 408 411 427 c 0,19,20
 346 480 346 480 271 480 c 0,21,22
 190 480 190 480 135.5 416 c 128,-1,23
 81 352 81 352 81 250 c 0,24,25
 81 145 81 145 138 82.5 c 128,-1,26
 195 20 195 20 286 20 c 0,27,28
 413 20 413 20 475 121 c 1,29,30
 483 132 483 132 494 123 c 1,31,32
 501 119 501 119 501 113 c 256,33,34
 501 107 501 107 496 100 c 0,35,36
 426 -10 426 -10 286 -10 c 0,37,38
 181 -10 181 -10 116 62 c 128,-1,39
 51 134 51 134 51 250 c 0,0,1
259 -165 m 128,-1,41
 259 -150 259 -150 274 -150 c 0,42,43
 344 -150 344 -150 344 -110 c 0,44,45
 344 -93 344 -93 331.5 -81.5 c 128,-1,46
 319 -70 319 -70 294 -70 c 2,47,-1
 279 -70 l 2,48,49
 264 -70 264 -70 264 -55 c 2,50,-1
 264 0 l 2,51,52
 264 15 264 15 279 15 c 128,-1,53
 294 15 294 15 294 0 c 2,54,-1
 294 -40 l 1,55,56
 331 -40 331 -40 352.5 -59.5 c 128,-1,57
 374 -79 374 -79 374 -110 c 0,58,59
 374 -142 374 -142 349.5 -161 c 128,-1,60
 325 -180 325 -180 274 -180 c 0,61,40
 259 -180 259 -180 259 -165 c 128,-1,41
EndSplineSet
EndChar

StartChar: egrave
Encoding: 232 232 169
Width: 567
GlyphClass: 2
Flags: W
LayerCount: 2
Fore
SplineSet
52 250 m 128,-1,1
 52 366 52 366 117 438 c 128,-1,2
 182 510 182 510 287 510 c 0,3,4
 390 510 390 510 456 444 c 128,-1,5
 522 378 522 378 522 285 c 2,6,-1
 522 270 l 2,7,8
 522 240 522 240 492 240 c 2,9,-1
 167 240 l 2,10,11
 152 240 152 240 152 255 c 128,-1,12
 152 270 152 270 167 270 c 2,13,-1
 477 270 l 2,14,15
 492 270 492 270 492 285 c 0,16,17
 492 365 492 365 433.5 422.5 c 128,-1,18
 375 480 375 480 287 480 c 0,19,20
 196 480 196 480 139 416.5 c 128,-1,21
 82 353 82 353 82 250 c 0,22,23
 82 145 82 145 139 82.5 c 128,-1,24
 196 20 196 20 287 20 c 0,25,26
 340 20 340 20 392 45.5 c 128,-1,27
 444 71 444 71 476 121 c 0,28,29
 484 132 484 132 495 123 c 1,30,31
 507 116 507 116 497 100 c 0,32,33
 464 48 464 48 408 19 c 128,-1,34
 352 -10 352 -10 287 -10 c 0,35,36
 182 -10 182 -10 117 62 c 128,-1,0
 52 134 52 134 52 250 c 128,-1,1
185 705 m 2,37,38
 181 710 181 710 181 715 c 0,39,40
 181 721 181 721 189 725 c 1,41,42
 194 730 194 730 199 730 c 0,43,44
 205 730 205 730 210 721 c 1,45,-1
 299 594 l 2,46,47
 303 589 303 589 303 584 c 256,48,49
 303 579 303 579 296 574 c 1,50,51
 290 571 290 571 285 571 c 0,52,53
 279 571 279 571 275 577 c 2,54,-1
 185 705 l 2,37,38
EndSplineSet
EndChar

StartChar: eacute
Encoding: 233 233 170
Width: 567
GlyphClass: 2
Flags: W
LayerCount: 2
Fore
SplineSet
52 250 m 128,-1,1
 52 366 52 366 117 438 c 128,-1,2
 182 510 182 510 287 510 c 0,3,4
 390 510 390 510 456 444 c 128,-1,5
 522 378 522 378 522 285 c 2,6,-1
 522 270 l 2,7,8
 522 240 522 240 492 240 c 2,9,-1
 167 240 l 2,10,11
 152 240 152 240 152 255 c 128,-1,12
 152 270 152 270 167 270 c 2,13,-1
 477 270 l 2,14,15
 492 270 492 270 492 285 c 0,16,17
 492 365 492 365 433.5 422.5 c 128,-1,18
 375 480 375 480 287 480 c 0,19,20
 196 480 196 480 139 416.5 c 128,-1,21
 82 353 82 353 82 250 c 0,22,23
 82 145 82 145 139 82.5 c 128,-1,24
 196 20 196 20 287 20 c 0,25,26
 340 20 340 20 392 45.5 c 128,-1,27
 444 71 444 71 476 121 c 0,28,29
 484 132 484 132 495 123 c 1,30,31
 507 116 507 116 497 100 c 0,32,33
 464 48 464 48 408 19 c 128,-1,34
 352 -10 352 -10 287 -10 c 0,35,36
 182 -10 182 -10 117 62 c 128,-1,0
 52 134 52 134 52 250 c 128,-1,1
275 594 m 2,37,-1
 364 721 l 1,38,39
 369 730 369 730 375 730 c 0,40,41
 380 730 380 730 385 725 c 1,42,43
 393 721 393 721 393 715 c 0,44,45
 393 710 393 710 389 705 c 2,46,-1
 299 577 l 2,47,48
 294 571 294 571 288 571 c 0,49,50
 283 571 283 571 278 574 c 0,51,52
 271 579 271 579 271 584 c 256,53,54
 271 589 271 589 275 594 c 2,37,-1
EndSplineSet
EndChar

StartChar: ecircumflex
Encoding: 234 234 171
Width: 567
GlyphClass: 2
Flags: W
LayerCount: 2
Fore
SplineSet
52 250 m 128,-1,1
 52 366 52 366 117 438 c 128,-1,2
 182 510 182 510 287 510 c 0,3,4
 390 510 390 510 456 444 c 128,-1,5
 522 378 522 378 522 285 c 2,6,-1
 522 270 l 2,7,8
 522 240 522 240 492 240 c 2,9,-1
 167 240 l 2,10,11
 152 240 152 240 152 255 c 128,-1,12
 152 270 152 270 167 270 c 2,13,-1
 477 270 l 2,14,15
 492 270 492 270 492 285 c 0,16,17
 492 365 492 365 433.5 422.5 c 128,-1,18
 375 480 375 480 287 480 c 0,19,20
 196 480 196 480 139 416.5 c 128,-1,21
 82 353 82 353 82 250 c 0,22,23
 82 145 82 145 139 82.5 c 128,-1,24
 196 20 196 20 287 20 c 0,25,26
 340 20 340 20 392 45.5 c 128,-1,27
 444 71 444 71 476 121 c 0,28,29
 484 132 484 132 495 123 c 1,30,31
 507 116 507 116 497 100 c 0,32,33
 464 48 464 48 408 19 c 128,-1,34
 352 -10 352 -10 287 -10 c 0,35,36
 182 -10 182 -10 117 62 c 128,-1,0
 52 134 52 134 52 250 c 128,-1,1
157 566 m 128,-1,38
 152 571 152 571 152 576.5 c 128,-1,39
 152 582 152 582 157 587 c 2,40,-1
 264 696 l 2,41,42
 273 705 273 705 281 705 c 256,43,44
 289 705 289 705 297 697 c 2,45,-1
 407 587 l 2,46,47
 412 582 412 582 412 576.5 c 128,-1,48
 412 571 412 571 407 566 c 128,-1,49
 402 561 402 561 396.5 561 c 128,-1,50
 391 561 391 561 386 566 c 2,51,-1
 290 661 l 2,52,53
 281 670 281 670 272 661 c 2,54,-1
 178 566 l 2,55,56
 173 561 173 561 167.5 561 c 128,-1,37
 162 561 162 561 157 566 c 128,-1,38
EndSplineSet
EndChar

StartChar: edieresis
Encoding: 235 235 172
Width: 567
GlyphClass: 2
Flags: W
LayerCount: 2
Fore
SplineSet
52 250 m 128,-1,1
 52 366 52 366 117 438 c 128,-1,2
 182 510 182 510 287 510 c 0,3,4
 390 510 390 510 456 444 c 128,-1,5
 522 378 522 378 522 285 c 2,6,-1
 522 270 l 2,7,8
 522 240 522 240 492 240 c 2,9,-1
 167 240 l 2,10,11
 152 240 152 240 152 255 c 128,-1,12
 152 270 152 270 167 270 c 2,13,-1
 477 270 l 2,14,15
 492 270 492 270 492 285 c 0,16,17
 492 365 492 365 433.5 422.5 c 128,-1,18
 375 480 375 480 287 480 c 0,19,20
 196 480 196 480 139 416.5 c 128,-1,21
 82 353 82 353 82 250 c 0,22,23
 82 145 82 145 139 82.5 c 128,-1,24
 196 20 196 20 287 20 c 0,25,26
 340 20 340 20 392 45.5 c 128,-1,27
 444 71 444 71 476 121 c 0,28,29
 484 132 484 132 495 123 c 1,30,31
 507 116 507 116 497 100 c 0,32,33
 464 48 464 48 408 19 c 128,-1,34
 352 -10 352 -10 287 -10 c 0,35,36
 182 -10 182 -10 117 62 c 128,-1,0
 52 134 52 134 52 250 c 128,-1,1
162 620 m 128,-1,38
 162 637 162 637 173.5 648.5 c 128,-1,39
 185 660 185 660 202 660 c 128,-1,40
 219 660 219 660 230.5 648.5 c 128,-1,41
 242 637 242 637 242 620 c 128,-1,42
 242 603 242 603 230.5 591.5 c 128,-1,43
 219 580 219 580 202 580 c 128,-1,44
 185 580 185 580 173.5 591.5 c 128,-1,37
 162 603 162 603 162 620 c 128,-1,38
322 620 m 128,-1,46
 322 637 322 637 333.5 648.5 c 128,-1,47
 345 660 345 660 362 660 c 128,-1,48
 379 660 379 660 390.5 648.5 c 128,-1,49
 402 637 402 637 402 620 c 128,-1,50
 402 603 402 603 390.5 591.5 c 128,-1,51
 379 580 379 580 362 580 c 128,-1,52
 345 580 345 580 333.5 591.5 c 128,-1,45
 322 603 322 603 322 620 c 128,-1,46
EndSplineSet
EndChar

StartChar: igrave
Encoding: 236 236 173
Width: 286
GlyphClass: 2
Flags: W
LayerCount: 2
Fore
SplineSet
37 15 m 128,-1,1
 37 30 37 30 52 30 c 2,2,-1
 122 30 l 2,3,4
 137 30 137 30 137 45 c 2,5,-1
 137 455 l 2,6,7
 137 470 137 470 122 470 c 2,8,-1
 52 470 l 2,9,10
 37 470 37 470 37 485 c 128,-1,11
 37 500 37 500 52 500 c 2,12,-1
 152 500 l 2,13,14
 167 500 167 500 167 485 c 2,15,-1
 167 45 l 2,16,17
 167 30 167 30 182 30 c 2,18,-1
 252 30 l 2,19,20
 267 30 267 30 267 15 c 128,-1,21
 267 0 267 0 252 0 c 2,22,-1
 52 0 l 2,23,0
 37 0 37 0 37 15 c 128,-1,1
45 705 m 2,24,25
 41 710 41 710 41 715 c 0,26,27
 41 721 41 721 49 725 c 1,28,29
 54 730 54 730 59 730 c 0,30,31
 65 730 65 730 70 721 c 1,32,-1
 159 594 l 2,33,34
 163 589 163 589 163 584 c 256,35,36
 163 579 163 579 156 574 c 1,37,38
 150 571 150 571 145 571 c 0,39,40
 139 571 139 571 135 577 c 2,41,-1
 45 705 l 2,24,25
EndSplineSet
EndChar

StartChar: iacute
Encoding: 237 237 174
Width: 286
GlyphClass: 2
Flags: W
LayerCount: 2
Fore
SplineSet
37 15 m 128,-1,1
 37 30 37 30 52 30 c 2,2,-1
 122 30 l 2,3,4
 137 30 137 30 137 45 c 2,5,-1
 137 455 l 2,6,7
 137 470 137 470 122 470 c 2,8,-1
 52 470 l 2,9,10
 37 470 37 470 37 485 c 128,-1,11
 37 500 37 500 52 500 c 2,12,-1
 152 500 l 2,13,14
 167 500 167 500 167 485 c 2,15,-1
 167 45 l 2,16,17
 167 30 167 30 182 30 c 2,18,-1
 252 30 l 2,19,20
 267 30 267 30 267 15 c 128,-1,21
 267 0 267 0 252 0 c 2,22,-1
 52 0 l 2,23,0
 37 0 37 0 37 15 c 128,-1,1
125 594 m 2,24,-1
 214 721 l 1,25,26
 219 730 219 730 225 730 c 0,27,28
 230 730 230 730 235 725 c 1,29,30
 243 721 243 721 243 715 c 0,31,32
 243 710 243 710 239 705 c 2,33,-1
 149 577 l 2,34,35
 144 571 144 571 138 571 c 0,36,37
 133 571 133 571 128 574 c 0,38,39
 121 579 121 579 121 584 c 256,40,41
 121 589 121 589 125 594 c 2,24,-1
EndSplineSet
EndChar

StartChar: icircumflex
Encoding: 238 238 175
Width: 286
GlyphClass: 2
Flags: W
LayerCount: 2
Fore
SplineSet
17 566 m 0,0,1
 12 571 12 571 12 576.5 c 128,-1,2
 12 582 12 582 17 587 c 2,3,-1
 124 696 l 2,4,5
 133 705 133 705 141 705 c 256,6,7
 149 705 149 705 157 697 c 2,8,-1
 267 587 l 2,9,10
 272 582 272 582 272 576.5 c 128,-1,11
 272 571 272 571 267 566 c 0,12,13
 256 556 256 556 246 566 c 2,14,-1
 150 661 l 2,15,16
 141 670 141 670 132 661 c 2,17,-1
 38 566 l 2,18,19
 28 556 28 556 17 566 c 0,0,1
37 15 m 128,-1,21
 37 30 37 30 52 30 c 2,22,-1
 122 30 l 2,23,24
 137 30 137 30 137 45 c 2,25,-1
 137 455 l 2,26,27
 137 470 137 470 122 470 c 2,28,-1
 52 470 l 2,29,30
 37 470 37 470 37 485 c 128,-1,31
 37 500 37 500 52 500 c 2,32,-1
 152 500 l 2,33,34
 167 500 167 500 167 485 c 2,35,-1
 167 45 l 2,36,37
 167 30 167 30 182 30 c 2,38,-1
 252 30 l 2,39,40
 267 30 267 30 267 15 c 128,-1,41
 267 0 267 0 252 0 c 2,42,-1
 52 0 l 2,43,20
 37 0 37 0 37 15 c 128,-1,21
EndSplineSet
EndChar

StartChar: idieresis
Encoding: 239 239 176
Width: 286
GlyphClass: 2
Flags: W
LayerCount: 2
Fore
SplineSet
22 620 m 128,-1,1
 22 637 22 637 33.5 648.5 c 128,-1,2
 45 660 45 660 62 660 c 128,-1,3
 79 660 79 660 90.5 648.5 c 128,-1,4
 102 637 102 637 102 620 c 128,-1,5
 102 603 102 603 90.5 591.5 c 128,-1,6
 79 580 79 580 62 580 c 128,-1,7
 45 580 45 580 33.5 591.5 c 128,-1,0
 22 603 22 603 22 620 c 128,-1,1
37 15 m 128,-1,9
 37 30 37 30 52 30 c 2,10,-1
 122 30 l 2,11,12
 137 30 137 30 137 45 c 2,13,-1
 137 455 l 2,14,15
 137 470 137 470 122 470 c 2,16,-1
 52 470 l 2,17,18
 37 470 37 470 37 485 c 128,-1,19
 37 500 37 500 52 500 c 2,20,-1
 152 500 l 2,21,22
 167 500 167 500 167 485 c 2,23,-1
 167 45 l 2,24,25
 167 30 167 30 182 30 c 2,26,-1
 252 30 l 2,27,28
 267 30 267 30 267 15 c 128,-1,29
 267 0 267 0 252 0 c 2,30,-1
 52 0 l 2,31,8
 37 0 37 0 37 15 c 128,-1,9
182 620 m 128,-1,33
 182 637 182 637 193.5 648.5 c 128,-1,34
 205 660 205 660 222 660 c 128,-1,35
 239 660 239 660 250.5 648.5 c 128,-1,36
 262 637 262 637 262 620 c 128,-1,37
 262 603 262 603 250.5 591.5 c 128,-1,38
 239 580 239 580 222 580 c 128,-1,39
 205 580 205 580 193.5 591.5 c 128,-1,32
 182 603 182 603 182 620 c 128,-1,33
EndSplineSet
EndChar

